/* XPM */
static char *f60b478764af460ab1e745996f543e34TST6EdADv2pkf6GG[] = {
/* columns rows colors chars-per-pixel */
"60 60 60 1 ",
"  c #040405",
". c #040505",
"X c #050606",
"o c #070808",
"O c #070809",
"+ c #08090A",
"@ c #090A0B",
"# c #090A0A",
"$ c #0B0C0D",
"% c #0D0F10",
"& c #0E0F11",
"* c #0E1011",
"= c #0D0E0F",
"- c #0C0D0E",
"; c #0B0D0E",
": c #0C0E0F",
"> c #0A0C0D",
", c #080A0A",
"< c #080909",
"1 c #060708",
"2 c #070708",
"3 c #050607",
"4 c #050506",
"5 c #030404",
"6 c #030304",
"7 c #020303",
"8 c #020203",
"9 c #010202",
"0 c #040506",
"q c #0C0D0F",
"w c #0E0F10",
"e c #0A0B0C",
"r c #060707",
"t c #090B0C",
"y c #090B0B",
"u c #0B0C0E",
"i c #0F1112",
"p c #0D0E10",
"a c #060607",
"s c #030405",
"d c #0F1011",
"f c #131416",
"g c #020304",
"h c #0E1010",
"j c #0B0D0D",
"k c #0A0B0D",
"l c #0A0C0C",
"z c #070909",
"x c #080809",
"c c #060808",
"v c #07090A",
"b c #0A0B0B",
"n c #090A0C",
"m c #080A0B",
"M c #060809",
"N c #09090A",
"B c #010203",
"V c #010102",
"C c #020202",
"Z c white",
/* pixels */
" ..XoO+@+#$%&%*=-;$$:>-=@>-$-,<+1213o34XX4..5665677777789888",
"5.03<OO@+,$$:=q=%;=w-;=ee@+@+Or112111134.4 4 . .555577777888",
"5.Xrrr13Ot@y$u=iw-&w:*p-$=$e@,O++1O+1113ra3X 0.0. s 6775s777",
"5331X32OO++@e@$=:$--;----*df-$@$>+@,O2Oa1ar1. 0.0 5566gg7877",
"0X3r31a2oOO+++e>>t$$==h:--jw$$$e$e+OOo1111X333333.55s66g7778",
"a3X3rr112o31++ke@ewu%w=e$;e$;-$k$et@@+OO2Or11r30000 56g66678",
"Xa311313rr1+OO@@@e$e$e$;j$ee-$e@e@e@@++O113a3X40X.Xs55656g77",
"3431a3r40a3ooO+OO+eyl@@@e@@e;=$@-k$ee@@o1e1oXa3X30 .s 555556",
"oXrOOXXX1ro++@#+++@e$;>$->e$>e@@>@+@e@+<O@1+O+r31444..5s55s5",
"z11<or1ao13OO+O+@@+@@@@;;u$$;e$e@y#@@xOOO+r111aXa400.0 005s6",
"r3Xr3o+++OoOOOO+,++@@+e:$$->$--;;e@@e@+<<Or+cO1a1r1343 .s566",
"+O2O1OxOOO+1v+O+@O+b@et-$nee-$e$-e-@@,#OoOOOaar3rX30.X... .s",
"oO1<+x<OO1O+Om@++++++@@@ee;$-@->;>%@+#O++@@+O<Oa3a1r3rXX500s",
"O1rO<+oo+m+@+<OO+@<OO@ey@@ek>$ueel-uye++++++<+1X331X3rXX..30",
"OOO+o1oO+++<O+OOOOOOO#+z<<+@>$$-$ey$>e++O+@@+Oro+1r0XrX3.03.",
"OO1O+OO121OOaO+OxrOO+<12<<@e@+@@@+e@@eee@@++1111rarX1rX4.44 ",
"+O11O1aaa11rXXroO32O@+OoOO+@@@+++t@+@@++@@tezOOc1OOrr1c3333X",
"O21OO+2r2O234r111311OoO+11@@@++@e$@+ieo@m,@+13XrOr1332X3r00.",
"O1OOOOrao1oarr3111orO11+1O@+OO+@@t+e$+@+O+O++OO,,11c313aX.0.",
"1O@+2<oO1r+O213rr320r1313OO12O++<e@e@@@#+@e>eOo@+r1M13004XX.",
"OOO<O+oo1oO111rr3r14r1X31O133aOOOOOmey++,@e$@+@t@O+OO13X34X0",
"O+++++oOO1O111r1111aOO3r11OO13oO+O+@@+N<+@@n+@@@@+@+oo3c14X0",
"O+<Oo21ar12r12a21o13Or3103X3X011OO+++@$e>@+eOv@@@@@eoOO11330",
"O<+1ao2103or1343X33XaX3r4331arO2oo+O1rO,@@@e@@n@+,O+OOO21r13",
"O1133r1rr13a2r1ra11r3a1a4131rrr13Oo112O++@e@t@@@t$@m@@O1oO11",
"Oa1O1OroOX3ao1X33aa1o113X1X3332O++o+<++O++@y$ey@y@@emeOOOO11",
"or333133X433rX4041O1rara333113OoOO1O31<O+o+@@@+@++t$$++@@@za",
"orX0X13XX30X1XX403r3a3aarra1r31312a111O+@@@+++#@@@@ey++ke,++",
"1X1X4344X4433XXX3r34Xa331113r3r3c1arr111OO<++@e>+#@@@ee+++++",
"X3Ora34a4X3XX3444X33rr3r111O133a1X31r11OOO+e@O<@@@e@meeee@t+",
"r3303aXa41143X30.3333X3r113O131rr33131O1O+<@+++@e@>+x@e@-@+@",
"3X34aa33.3X0X.0 00013Xr3X1a1ra13r1.33arr1OOoz@O1+O+O+>ee$@+<",
" 03X3X.30X0...X s333XXa3X311OOraa34XX331a3aO++o<z+@v+++#+#@O",
"0r3XX .X0r4.X3O30a121XO13r11O1raaXX3rrX3131oa11<+@z+O+#@O+e+",
"43333X3rX3X4arO33X030XX3113raO34raa1rrXX1ar3a211O,@@++++++xO",
"..43X3a3333333oX113r31a3rr3ar3.   03X34X112rOo3a11<+++@+++@+",
"ss0XX3r3rX.411cXa111Xa4444Xa4.  ..X. 30034r1Or31a3+,<<b@e+<2",
"B6654.43XX.41rOr31ro3aa33X4a0XX04444000XX0raaoO+OOO@Oo++++O+",
"99B7s.X11r.0rrO23XXr44r3103a330.0 .000 .0Xa03Oo11OroOoO+<++O",
"9999985.aas4X1aXXX3O1r1r13ao34.5 .X. ..003r3113ararr131O1O+@",
"9999998703 34.r3XX3r3a3X13X14X4.040..4.0003XXX333a1<122<OOO1",
"999999999g XX0r1332O1O3313Xa3X0.004..0 0.43X33ar3a3rr1O+Oo<O",
"999999999975.003XX1a41331X4a3r0XXrO1XX4430XX133XX1111o+@O1++",
"99999999999B850Xr312Xr33r4ar3r3r33<+o333rXX4ra3ra1111oOo1rO<",
"9999999999VV9986..XXX300X44XX3X40.Xaa0440XX433313X3a3aaO12OO",
"9999999999999999986s .00XX0.0XX030X0X1XXXXX01a344344X31O1311",
"9999999999999999999B76s  .0 .4..303004X0.440X3a0.aa3rrr1ar++",
"99999999999999999999998gs.0 . s .X4030000.40X0.4.a3X3XX33rr1",
"9999999999999999999999995g5  056   s00 .0X04rX0443331rrO31OO",
"888B9999999999999999B999998655s 65 s....5.4X4 0...03aX121oO1",
"888B999999999999999999999998776 66 s 5555... s . 003XX311O+O",
"B88B999999999999999999999999997666s .5555..   .ss.04..X31o1O",
"B99999999999999999999999999999977555s6555556 5 .0s 0 .rr1raO",
"999999999999999999999999999999V98665s5   s   5  0004XXr3r1ar",
"999999999999999999999999999999999B77s5sss55 55  .00434XXar3o",
"999999999999999999999999999999999V9C87555s6 ss0  .0044..4XXr",
"BBBBBBBBBB9999999999999999999999999999B7g65 5 ... ..040XX333",
"888888899999999999999999999999999999999997555 ss    .0. 03XX",
"88888889999999999999999999999999999999999987655s 55... .3400",
"88888888888BB8888888999999999999999999999998775 0ss..0.0a000"
};
