/* XPM */
static char *_8666cc78ede41f5fb8807c81b79834a2rV3OufSeDUVqPUr[] = {
/* columns rows colors chars-per-pixel */
"60 60 241 2 ",
"   c None",
".  c #AA5B03",
"X  c #B05D02",
"o  c #BD7807",
"O  c #BC770A",
"+  c #BB7811",
"@  c #B16408",
"#  c #C37C0C",
"$  c #C47406",
"%  c #CC7C15",
"&  c #CB7519",
"*  c #C87918",
"=  c #CE7E22",
"-  c #DA7B22",
";  c #BB851C",
":  c #BF881B",
">  c #BA8217",
",  c #BB8721",
"<  c #BD8924",
"1  c #BF8D2A",
"2  c #BF822A",
"3  c #C78309",
"4  c #D68E0B",
"5  c #DA8A06",
"6  c #D89309",
"7  c #CA8412",
"8  c #C28B17",
"9  c #CB8B1C",
"0  c #C58719",
"q  c #D68917",
"w  c #CC941C",
"e  c #C99418",
"r  c #D99C12",
"t  c #D79818",
"y  c #E79908",
"u  c #E28E17",
"i  c #E49515",
"p  c #F49C04",
"a  c #DDA20E",
"s  c #DAA409",
"d  c #DCB407",
"f  c #DEB709",
"g  c #DDA612",
"h  c #DCA31B",
"j  c #DEA917",
"k  c #E2A40F",
"l  c #E4AB0D",
"z  c #E8A705",
"x  c #F7AB05",
"c  c #E4B50C",
"v  c #EBB30D",
"b  c #E8BA08",
"n  c #FCB505",
"m  c #F4BC01",
"M  c #F8BB08",
"N  c #E3AC13",
"B  c #E7A512",
"V  c #F2AB1A",
"C  c #ECB819",
"Z  c #FBBC12",
"A  c #FABA1A",
"S  c #C48325",
"D  c #C58D25",
"F  c #C3842B",
"G  c #C18E2C",
"H  c #CA8B2B",
"J  c #CC8625",
"K  c #D78A28",
"L  c #C1912E",
"P  c #CB942C",
"I  c #CC9627",
"U  c #D39B25",
"Y  c #D29B2C",
"T  c #D59628",
"R  c #C68A34",
"E  c #CB8E33",
"W  c #C68A36",
"Q  c #C29333",
"!  c #CE9335",
"~  c #CE943C",
"^  c #C6993D",
"/  c #C99A38",
"(  c #D59C33",
")  c #D59938",
"_  c #DA8831",
"`  c #E48D23",
"'  c #E58A29",
"]  c #EC962A",
"[  c #E38C32",
"{  c #EB9537",
"}  c #F19B36",
"|  c #DAA327",
" . c #D9A538",
".. c #DEB134",
"X. c #DEB128",
"o. c #E3AA2C",
"O. c #EBB524",
"+. c #E8B928",
"@. c #FBBD25",
"#. c #FBB628",
"$. c #E5AB33",
"%. c #E4A735",
"&. c #F7A739",
"*. c #EABC37",
"=. c #FBB337",
"-. c #F2AF23",
";. c #E5C309",
":. c #E9CA09",
">. c #F3C403",
",. c #FEC505",
"<. c #F5CB03",
"1. c #FDCD04",
"2. c #FDC50B",
"3. c #FDCC0B",
"4. c #F1C40C",
"5. c #EBD507",
"6. c #FBD302",
"7. c #FEDB03",
"8. c #FFDB0B",
"9. c #F8D708",
"0. c #FBCC14",
"q. c #FAC718",
"w. c #FEDC12",
"e. c #FEDB1B",
"r. c #FCD515",
"t. c #EEC01E",
"y. c #FFE302",
"u. c #FFEB01",
"i. c #FAE408",
"p. c #FFF201",
"a. c #FFFC03",
"s. c #FFE313",
"d. c #FFEA16",
"f. c #FFE51C",
"g. c #FFEB1B",
"h. c #FFF11E",
"j. c #EFC228",
"k. c #F2C524",
"l. c #FFC223",
"z. c #F4CA24",
"x. c #FDCC24",
"c. c #FAC92C",
"v. c #FBD222",
"b. c #FFDE2B",
"n. c #FDD528",
"m. c #FEC532",
"M. c #FDCE33",
"N. c #F6C837",
"B. c #FED234",
"V. c #FED934",
"C. c #FFD63B",
"Z. c #FFDE3B",
"A. c #EFC73F",
"S. c #FFE523",
"D. c #FFEC23",
"F. c #FFEC2B",
"G. c #FFE02C",
"H. c #FFF524",
"J. c #FFF32B",
"K. c #FFFC2C",
"L. c #FFFB25",
"P. c #FFEC32",
"I. c #FFEA3C",
"U. c #FFE439",
"Y. c #FFF334",
"T. c #FFFD34",
"R. c #FFF43C",
"E. c #FFFC3C",
"W. c #CA9B42",
"Q. c #CB9343",
"!. c #D39B42",
"~. c #D09D57",
"^. c #F7994C",
"/. c #FB9D54",
"(. c #CCA34C",
"). c #CBA146",
"_. c #DAA848",
"`. c #CEA652",
"'. c #D5A958",
"]. c #DBB25A",
"[. c #FBA646",
"{. c #E4B648",
"}. c #FFBA44",
"|. c #FEB84B",
" X c #E4B855",
".X c #FFBC55",
"XX c #FFAC58",
"oX c #D5B164",
"OX c #DEB666",
"+X c #DDBD77",
"@X c #D7A964",
"#X c #E2BF7B",
"$X c #F7CA46",
"%X c #FFDB4E",
"&X c #FDD447",
"*X c #FFCD54",
"=X c #F6CC5A",
"-X c #FDDA53",
";X c #FBD75A",
":X c #FFE848",
">X c #FFF34A",
",X c #FFEB5C",
"<X c #FFF35B",
"1X c #DFC17C",
"2X c #EBC76A",
"3X c #FCDD6D",
"4X c #F9D668",
"5X c #ECCD7C",
"6X c #E9C975",
"7X c #FCDF7B",
"8X c #F7D775",
"9X c #F3CD74",
"0X c #FFE36A",
"qX c #FFF36C",
"wX c #FEE27C",
"eX c #FFE577",
"rX c #FFF37D",
"tX c #DFC281",
"yX c #E6C987",
"uX c #EFD48D",
"iX c #F5DB88",
"pX c #EBD394",
"aX c #EED897",
"sX c #F3DD98",
"dX c #FEE48C",
"fX c #FDE787",
"gX c #FFF48E",
"hX c #FCE797",
"jX c #FFF59D",
"kX c #EDD8A2",
"lX c #F0DDA9",
"zX c #FFEBA1",
"xX c #FEEDAD",
"cX c #F8E5A8",
"vX c #FAECBD",
"bX c #FBEBB3",
"nX c #FFF2BA",
"mX c #FEF3A9",
"MX c #FCF7DB",
"NX c #FCF5D7",
"BX c #FAEFC2",
/* pixels */
"                                                                                                                        ",
"                                                                                                                        ",
"                                                                                                                        ",
"                                                                                                                        ",
"                                                                                                                        ",
"                                                                                                                        ",
"                                                                                                                        ",
"                                                    < D Y Y Y D , ,                                                     ",
"                                                < D Y $.%.U U U > > ; ;                                                 ",
"                                              < Y $.o.9 # o o $ O @ + > ;                                               ",
"                                            < Y $.I 0 > > o $ o $ . . O ; ;                                             ",
"                                          1 Y {. .9 9 9 8 7 3 3 3 $ X @ 0 : ;                                           ",
"                                        1 P  X X .I U U t V y 6 5 6 $ $ %. .8 ;                                         ",
"                                        I  X2X X .| U | -.0.q.x z z 5 5 =.=X X8 1                                       ",
"                                      G _.5X2X X5XpX{.| #.e.r.M n n x z q.*X8X_.8                                       ",
"                                    Q / 9XuXOXuXMXMX5X| O.x.0.,.n ,.1.n 0.C.0X8XI <                                     ",
"                                    L ].kX5X2XvXMXMX2XX.O.O.Z ,.,.6.7.n 3.b.,XdX X;                                     ",
"                                  Q ^ sXsX4X4XNXMXvXA.+.+.C Z ,.6.7.y.,.,.S.:XrXfXI ,                                   ",
"                                  G #XbXiX2X$XcXvX2Xq.j.j.q.2.3.6.y.u.6.n d.R.qXjX].:                                   ",
"                                G Q lXcX8X=XA.A.A.j.z.z.k.0.3.7.y.u.p.7.n s.J.<XgXhXL <                                 ",
"                                , oXvXhX4X;X  $Xk.j.x.k.t.4.1.y.p.u.p.y.x n h.>XrXmX'.;                                 ",
"                                < kXbXdX4X-X  B.c.z.v.r.C 4.m m 7.y.p.u.x x w.R.qXjXyX< 1                               ",
"                              , (.vXzXeX-XB.B.M.z.+.z.e.v >.m y n y.u.u.x p v S.<XgXbXW.<                               ",
"                              , tXBXhX3X&Xc.N.j.j.k.C r.<.>.>.s m y.7.7.x p y q.:XfXxX+X;                               ",
"                            < 1 cXxXfX-XN.j.*...X.t.b 9.1.>.<.z z b 3.<.y y 5 z Z.0XjXlXG <                             ",
"                            ; `.BXhX0X$Xj.X. .( | <.>.6.6.<.6.b z g j N 4 5 5 6 M.;XdXbX(.;                             ",
"                            ; 1XBXdX=X*.X. .~ P j <.>.6.6.6.6.>.s e 9 w 3 3 # # C %XwXbX+X,                             ",
"                          1 1 lXxXwX=X=.%.~ ) N ;.9.<.6.6.6.6.<.z b g w + + # # v &X3XzXlX<                             ",
"                          : ^ vXzX7X*X=.&.&.@.0.r.i.8.8.6.9.6.6.6.6.<.v * # # # a b.4XdXbXW.,                           ",
"                          ; oXnXhXeX*X}.}.B.S.g.d.s.s.i.7.7.6.9.7.y.y.<.4 % % # r x.%XwXxX'.,                           ",
"                          ; yXxXfX0X&X&X:XJ.L.H.g.g.d.s.8.7.9.7.y.p.p.i.s 4 % % t q.&X0XzX1X;                           ",
"                        L , aXmXfX0X-X:XT.K.L.K.H.H.g.s.s.8.7.y.p.p.a.5.d r q % q t.n.4XhXyX<                           ",
"                        , L cXhX7X;X%X>XT.T.T.T.K.L.H.g.f.8.8.y.u.a.a.5.d d 4 & * i c.-XfXaX1                           ",
"                        < ^ cXdX8X*X*X>XT.T.T.T.T.K.H.D.f.w.8.u.p.a.a.5.d d t * & q Y &X8XsX^ L                         ",
"                        , / hXiX4X|.|.:XT.T.E.E.T.T.J.F.f.s.w.8.p.a.a.:.;.d g & = K T {.eXaX(.<                         ",
"                        , ) iX8X.X[.XX&XT.>XE.E.E.E.Y.F.D.f.s.3.y.a.i.;.b f r & = _ Y _.4XdX`.>                         ",
"                        D P wX4X|.[./.$XT.>X>XE.E.R.Y.K.H.S.s.3.6.p.9.:.;.d r & J _ ) _.6XiX(.;                         ",
"                        1 8 ;X*X=.} /.|.U.E.T.R.T.>XR.K.L.S.e.2.1.i.:.;.c d r * J ! _.'.6XfX).1                         ",
"                        , 0 j.N.#.&.^.}.C.E.R.E.>XE.R.Y.F.S.0.Z ,.6.b v c c g 9 E !._. X8XiX^                           ",
"                        1 : v q.@.&.&.M.V.I.E.E.R.R.Y.Y.F.e.A Z 3.b v N c j j w ! Q.).].6X5X1                           ",
"                          ; g 2.V ] =.n.F.C.I.:XI.I.V.B.c.@.q.2.Z v N y N j h U D F H W OX6X,                           ",
"                          , e v - - ] x.b.B.N.M.I.R.P.G.n.r.q.A l k k r h h h I H Y o.) #X`.,                           ",
"                          < > k u q ' @.l.c.m.V.P.Y.P.S.q.q.A A l B g w w U Y Y ( o.$.~.yXQ                             ",
"                            : 8 y u ` ] } } m.F.F.G.x.l.@.@.A V B r U J H P P !  .o.) 5X].<                             ",
"                            G ; r i u ] { { =.n.c.=.=.#.#.#.V r I D F 2 R R W ) $. .@XyX1                               ",
"                              ; 8 k i i ` ] ] &.} { { } { T H S F 2 F R W W W !.) ~.yXW.<                               ",
"                                ; 8 y i u ` [ [ [ [ [ _ _ = S S S F F W W ~ !.Q.~.yX'.<                                 ",
"                                G ; 8 i y i u u ` K K K = 0 S J H R E ! ~ %.!.~.pXoX<                                   ",
"                                  G ; 8 g l i q q q q q 0 0 J D H ! ~ ~ Q._.OXpXoX1                                     ",
"                                      ; : e k k t 4 q 7 q J H P P ! ~ W.].yXpX~.1                                       ",
"                                        < ; 8 t g k g r t Y Y |  ._. X5XaX1X^ <                                         ",
"                                            < ; ; e | X...$.{. X2X6XyX+X(.R                                             ",
"                                                1 ; < 1 L ^ ^ ).(.).^ Q                                                 ",
"                                                                                                                        ",
"                                                                                                                        ",
"                                                                                                                        ",
"                                                                                                                        ",
"                                                                                                                        ",
"                                                                                                                        ",
"                                                                                                                        "
};
