/* XPM */
static char *result[] = {
/* columns rows colors chars-per-pixel */
"60 60 224 2 ",
"   c #0E0D0C",
".  c #0A0605",
"X  c #160500",
"o  c #180A06",
"O  c #0D110F",
"+  c #0E1716",
"@  c #131818",
"#  c #370C00",
"$  c #3D0D00",
"%  c #3A160A",
"&  c #2B130C",
"*  c #2A211C",
"=  c #0B3232",
"-  c #073535",
";  c #1A3D3D",
":  c #1F2324",
">  c #282826",
",  c #27383A",
"<  c #31393B",
"1  c #373533",
"2  c #322A26",
"3  c #450F00",
"4  c #481201",
"5  c #511400",
"6  c #5C1903",
"7  c #651A01",
"8  c #6B1E04",
"9  c #601600",
"0  c #6E2106",
"q  c #6E2208",
"w  c #642008",
"e  c #752407",
"r  c #73250A",
"t  c #76280C",
"y  c #7B2B0D",
"u  c #7A2709",
"i  c #782D12",
"p  c #602511",
"a  c #4B3D35",
"s  c #4D3026",
"d  c #753B26",
"f  c #643525",
"g  c #5C2310",
"h  c #754936",
"j  c #774B36",
"k  c #77503E",
"l  c #5D4134",
"z  c #2A3C40",
"x  c #165555",
"c  c #1C4A4A",
"v  c #2A494A",
"b  c #33474A",
"n  c #354E54",
"m  c #394F55",
"M  c #285858",
"N  c #3A5151",
"B  c #365458",
"V  c #176F6F",
"C  c #1A6969",
"Z  c #17706F",
"A  c #177070",
"S  c #1E7575",
"D  c #2B696B",
"F  c #366769",
"G  c #287678",
"H  c #37787A",
"J  c #265F61",
"K  c #5A4D42",
"L  c #475859",
"P  c #585555",
"I  c #5B5A58",
"U  c #595747",
"Y  c #62554E",
"T  c #476367",
"R  c #5B6C6B",
"E  c #4B6C73",
"W  c #4D7179",
"Q  c #4B7175",
"!  c #577477",
"~  c #5C716C",
"^  c #686867",
"/  c #747F7F",
"(  c #595F60",
")  c #842D0B",
"_  c #8A310E",
"`  c #823215",
"'  c #8C3514",
"]  c #8C3A1B",
"[  c #883618",
"{  c #923E1E",
"}  c #9B3C16",
"|  c #802F12",
" . c #A23F15",
".. c #A83D11",
"X. c #923F20",
"o. c #9D411C",
"O. c #96411F",
"+. c #A3431E",
"@. c #A94418",
"#. c #BC4F1E",
"$. c #BD501F",
"%. c #854028",
"&. c #8A4328",
"*. c #864529",
"=. c #954020",
"-. c #9F4A29",
";. c #974424",
":. c #925134",
">. c #A14C2A",
",. c #AA4C27",
"<. c #A8512E",
"1. c #BC5121",
"2. c #B5522A",
"3. c #B85229",
"4. c #A75434",
"5. c #AA5331",
"6. c #A75A3B",
"7. c #B35A37",
"8. c #BB5C36",
"9. c #B45B38",
"0. c #B35630",
"q. c #B74F21",
"w. c #BF6136",
"e. c #C35422",
"r. c #CC5823",
"t. c #C75726",
"y. c #C35E35",
"u. c #C95F35",
"i. c #C15F38",
"p. c #D75F27",
"a. c #DD632A",
"s. c #C36137",
"d. c #CC6136",
"f. c #CB6538",
"g. c #CC683C",
"h. c #D16536",
"j. c #DB6633",
"k. c #D16638",
"l. c #DD6936",
"z. c #E3672D",
"x. c #E5682D",
"c. c #E26C36",
"v. c #E76E35",
"b. c #EF7237",
"n. c #F17234",
"m. c #F67638",
"M. c #A66045",
"N. c #A45D40",
"B. c #C86E46",
"V. c #C57653",
"C. c #C87753",
"Z. c #53877E",
"A. c #BE876D",
"S. c #BC8A73",
"D. c #C1876C",
"F. c #C08A71",
"G. c #287E80",
"H. c #567E86",
"J. c #4B7B81",
"K. c #2A8C8E",
"L. c #289B9B",
"P. c #368F91",
"I. c #39A7A9",
"U. c #36B7B9",
"Y. c #2EAFAF",
"T. c #5C848D",
"R. c #558387",
"E. c #5E8C94",
"W. c #5D8B94",
"Q. c #459498",
"!. c #5D949C",
"~. c #50959B",
"^. c #468A90",
"/. c #60838A",
"(. c #798585",
"). c #608790",
"_. c #608A93",
"`. c #618F98",
"'. c #5A9BA3",
"]. c #42A7AA",
"[. c #55A6AC",
"{. c #59A3AA",
"}. c #59A5AB",
"|. c #55ABB2",
" X c #49B6BA",
".X c #53B5BB",
"XX c #52B9BE",
"oX c #53B1B6",
"OX c #44ADB1",
"+X c #36BFC0",
"@X c #51BCC1",
"#X c #4DBEC2",
"$X c #37C3C4",
"%X c #3BCBCD",
"&X c #39D5D5",
"*X c #2FC8C8",
"=X c #3FDFE0",
"-X c #3BE7E6",
";X c #3BEAEA",
":X c #3BE8E7",
">X c #3DF3F3",
",X c #4EC6CA",
"<X c #4CCACE",
"1X c #4AC3C6",
"2X c #4CCED1",
"3X c #4AD3D6",
"4X c #4AD5D9",
"5X c #45DBDD",
"6X c #49DADC",
"7X c #42D1D3",
"8X c #50C1C6",
"9X c #47DEE1",
"0X c #46E5E6",
"qX c #44EAEB",
"wX c #41F4F5",
"eX c #40F8F8",
"rX c #43EFF0",
"tX c #999696",
"yX c #979999",
"uX c #809090",
"iX c #A09E9E",
"pX c #ACB3B3",
"aX c #DEDDDD",
"sX c None",
/* pixels */
"sXsXsXsXsXsXsXsXsXsXsXsXsXsXsXsXsXsXsXsXsXsXsXsXsXsXsXsXsXsXsXsXsXsXsXsXsXsXsXsXsXsXsXsXsXsXsXsXsXsXsXsXsXsXsXsXsXsXsXsX",
"sXsXsXsXsXsXsXsXsXsXsXsXsXsXsXsXsXsXsXsXsXsXsXsXsXsXsXsXsXsXsXsXsXsXsXsXsXsXsXsXsXsXsXsXsXsXsXsXsXsXsXsXsXsXsXsXsXsXsXsX",
"sXsXsXsXsXsXsXsXsXsXsXsXsXsXsXsXsXsXsXsXsXsXsXsXsXsXsXsXsXsXsXsXsXsXsXsXsXsXsXsXsXsXsXsXsXsXsXsXsXsXsXsXsXsXsXsXsXsXsXsX",
"sXsXsXsXsXsXsXsXsXsXsXsXsXsXsXsXsXsXsXsXsXsXsXsXsXL N N N N N N N n ^ sXsXsXsXsXsXsXsXsXsXsXsXsXsXsXsXsXsXsXsXsXsXsXsXsX",
"sXsXsXsXsXsXsXsXsXsXsXsXsXsXsXsXsXsXsXsXsXT v v D %X$X$X$X$X$X$X$X%XU.M v v (.sXsXsXsXsXsXsXsXsXsXsXsXsXsXsXsXsXsXsXsXsX",
"sXsXsXsXsXsXsXsXsXsXsXsXsXsXsXsXsXsX(.M M U.7X%X&X9XXX{.!.!.!.!.}.,X=X%X7X%XL.c M sXsXsXsXsXsXsXsXsXsXsXsXsXsXsXsXsXsXsX",
"sXsXsXsXsXsXsXsXsXsXsXsXsXsXsXyXF C L.;X<X~.!.`.`.!.qX.X_._.`._.4X3XE.!.E.!.[.3X:XG.C Q sXsXsXsXsXsXsXsXsXsXsXsXsXsXsXsX",
"sXsXsXsXsXsXsXsXsXsXsXsXsX! V S  X3X<X<XXX!._._.E.W.K.D n n n n G P._._._.).{.8X<X<X<XI.V D (.sXsXsXsXsXsXsXsXsXsXsXsXsX",
"sXsXsXsXsXsXsXsXsXsXsXsXH +X>X#X!._.T.!.XX#XH , z , % # # # # # # * < z z P.,XoXE.).).{.2X>XL.Q sXsXsXsXsXsXsXsXsXsXsXsX",
"sXsXsXsXsXsXsXsXsXsXR K.OX.X@X,X'.T.T.W , x 2 3 $ 3 7 8 7 7 7 8 8 5 $ 3 $ z c z R.T.W.}.,X.XXXI.H sXsXsXsXsXsXsXsXsXsXsX",
"sXsXsXsXsXsXsXsXsXF Y.|.!.).W.|.1XJ : * 3 3 6 8 0 8 e.3.-.>.>.>.-.[ 7 8 q 6 3 % > : K.XX}.E._.'.OXL.T sXsXsXsXsXsXsXsXsX",
"sXsXsXsXsXsXsXsXD %XoXE.W.E.T.E , % 5 6 8 r X.2.,.e x.h.7.9.7.7.8.{ ) a.t.' r 8 5 5 * v H.E._.).!. X+Xv sXsXsXsXsXsXsXsX",
"sXsXsXsXsXsXsXL S 0X4X|.!.R.B * 4 e ) ` <.5.7.i.3.u z.h.7.7.7.7.9.{ ) m.j.y.3.;.y e 7 3 > E T.'.XX6X5Xx sXsXsXsXsXsXsXsX",
"sXsXsXsXsXsX1 L.7XE.!.<X^.< # 6 7 t.v.y.7.7.8.y.3.e z.h.7.7.7.7.9.X.) n.y.u.u.y.u.u.' 9 4 & m ].XX`.'.&Xx sXsXsXsXsXsXsX",
"sXsXsXsXsXsXD Y..X_.W.E., & 7 | 8 r.b.u.i.7.y.d.,.e z.h.7.9.8.7.9.{ ) n.i.8.u.d.h.d.' y } 6 o B `.E.!.,XK.Q sXsXsXsXsXsX",
"sXsXsXsXsX@ &X.X)._.T.N * 3 u 5.r r.v.y.h.9.y.s.>.e z.h.9.y.u.8.9.X.) n.i.9.y.h.d.y.` @.a.0 # 2 T _._._.6XL.1 sXsXsXsXsX",
"sXsXsXsXR L. X<X3X8XH.+ $ y -.5.e r.c.9.u.8.y.y.>.u z.g.8.d.u.8.9.O.) b.s.7.y.d.d.0.` @.b.O.0 o , !.<X2X8XOXK.sXsXsXsXsX",
"sXsXsXsX- qX'.'..XQ.> % 6 [ 9.5.r r.c.8.d.y.d.y.>.r z.h.i.h.u.8.9.] ) b.w.7.7.s.d.8.` } n.0.t 5 & v [.oX!..X*X+ sXsXsXsX",
"sXsXsXsX- -X'.)._.E . 5 ] 0.9.0.r r.c.9.8.d.y.9.>.e z.h.i.d.d.8.9.O.) n.s.7.7.7.u.8.` @.b.7.<.| # @ R.)._.XX*X@ sXsXsXsX",
"sXsXsXH.x 7X'.).H.L o 5 ;.9.9.5.r r.c.7.7.d.8.9.>.e z.h.i.d.u.8.7.O.) b.s.7.7.7.d.d.' } b.8.9.` 3 @ E T._.|.$X; sXsXsXsX",
"sXsX^ D &X@X|.|.F o 6 ) >.9.9.5.r r.c.9.7.y.8.7.>.e z.h.y.u.8.u.8.=.) n.s.7.7.8.u.h.'  .b.9.7.] 8 4 @ ^.|.|.#X&X; sXsXsX",
"sXsXP S wX4X4X4XG.X 8 z.f.7.9.5.r r.l.7.7.9.7.9.>.e x.c.u.i.0.u.s.] ) b.s.7.7.9.d.d.'  .n.9.7.7.X.5 O OX4X3X6X;X= sXsXsX",
"sXsXP V 0X!._.`.n X 8 z.d.9.9.5.r r.l.7.9.7.7.9.>.u z.c.y.9.8.u.y.=.) b.s.7.9.9.y.s.'  .n.9.9.9.=.5   W _._.}.-X= tXsXsX",
"sXsXP V 0XE.)._.L $ 8  .} ] ] ` 8 } o.] ] ] ] [ | 8  .} { [ ' { ] t e @.] ] [ ] ' ' r ) @.] [ ] i 6 % ! _._.{.-X= tXsXsX",
"sXsXP A 0X!._.I &.r.e.e.e.e.e.e.e.e.e.e.e.e.e.e.e.e.e.1.e.e.e.e.e.e.e.e.e.e.e.e.e.e.e.e.e.e.e.e.e.r.e.h R E.}.;X= tXsXsX",
"sXsXP V eX6X4XU ..m.f.f.f.V.A.f.d.d.f.f.g.A.V.d.g.d.f.f.f.B.S.B.d.f.d.s.f.d.V.A.s.f.f.f.s.f.A.V.d.f.y.e Z.4X0X;X= tXsXsX",
"sXsXP Z qX}.{.K o.j.5.5.<.4.6.4.4.<.4.5.4.6.6.<.5.5.5.5.5.4.N.4.5.4.5.5.4.<.6.6.5.5.4.5.5.5.N.6.<.4.>.f R {.oX:X= tXsXsX",
"sXsXP A 0X_.)./.Y 8 0 8 0 0 w 0 0 8 8 w 8 8 0 8 8 8 8 8 8 8 8 8 0 8 0 8 8 0 8 8 8 8 0 8 8 8 8 8 8 8 g ^ /.).{.-X= tXsXsX",
"sXsXP Z 0X`._._.m X 7 _ | y y y 7 y _ | y y y y r 7 _ _ i y y i y e 8 _ | i y i y y 8 e _ ) | ) r 5 o W ).).{.0X= tXsXsX",
"sXsXP Z rXXXXXXXD X 8 z.d.7.7.5.r r.b.u.8.7.7.7.>.r z.l.y.7.7.7.y.+.) n.y.5.7.7.7.7.`  .v.8.y.8.{ 5   Q.@X.X,X;X= tXsXsX",
"sXsXP Z wX,X,X,XG X 0 x.d.9.7.5.r r.v.y.u.8.9.9.>.r z.c.u.y.7.7.y.+.) n.s.7.7.7.7.9.i @.n.y.u.u.o.5 O ].,X8X3X;X= tXsXsX",
"sXsXP Z 0X`.)._.n X 0 x.d.:.h 4.r r.c.8.u.8.9.9.>.e z.j.y.u.7.8.d.+.) b.w.7.9.7.7.7.`  .m.h.y.u.>.5   E W.).{.-X= tXsXsX",
"sXsXP A 0X!._._.N X 8 z.:.Y ^ l w r.c.8.d.y.8.7.>.e z.h.8.u.8.u.u.X.) n.w.7.8.y.9.7.`  .m.k.8.y.+.5   W W._.}.:X= tXsXsX",
"sXsXP A qX'.!.'.B X 8 z.j ( (.a g r.c.7.8.d.y.9.>.e z.g.i.u.u.u.i.X.) n.y.7.8.u.7.7.`  .n.d.9.y.+.5   J.'.!.|.:X= tXsXsX",
"sXsXP Z eX6X6X0XK.X 7 z.w.h K :.q r.l.7.7.d.d.y.>.e z.h.7.i.d.h.8.{ ) n.y.7.8.u.7.7.`  .m.h.8.u.,.5 O U.6X6X0X;X= tXsXsX",
"sXsXP A 0X'.!.!.B X 8 z.g.h a 4.t t.c.7.7.7.y.y.>.e z.h.0.8.d.d.i.{ ) n.y.7.i.u.7.7.`  .m.h.u.d.+.5   W !.!.|.:X= tXsXsX",
"sXsXP A 0X!.E._.N X 8 z.d.h a 5.r r.c.9.7.7.y.i.>.e x.g.7.8.d.h.8.{ ) n.s.7.i.u.9.9.i  .n.u.d.y.=.5   W _._.{.:X= tXsXsX",
"sXsXP A 0XE._._.n X 8 z.h.h a 4.r r.c.9.7.9.y.d.<.e x.h.7.7.d.d.y.{ ) n.s.7.y.u.9.9.`  .b.8.u.i.=.5   W _.T.{.-X= tXsXsX",
"sXsXP Z wX<X,X<XG X 0 z.h.j a 4.r r.l.7.7.7.8.d.3.e x.h.7.8.d.u.8.] ) n.s.8.y.u.i.9.`  .b.8.u.u.;.5   I.<X,X3X;X= tXsXsX",
"sXsXP Z rXXX.XXXD X 0 x.:.Y ^ l w r.c.7.7.7.7.i.3.e z.h.7.7.d.h.i.X.) n.s.y.h.u.u.8.`  .b.8.u.h.+.5   Q..X.X,X:X= tXsXsX",
"sXsXP A 0XE._._.m X 8 z.j I (.1 g r.c.7.7.7.7.8.3.e z.g.7.8.u.u.8.{ ) n.y.y.d.u.u.8.`  .b.8.u.u.=.5   W ).).{.0X= tXsXsX",
"sXsXP A 0XE._._.m X 8 z.s.k Y :.q r.c.9.7.7.7.y.3.e z.k.7.9.8.9.9.{ ) n.y.u.u.8.u.8.`  .b.9.y.i.=.5   W ).).{.-X= tXsXsX",
"sXsXP Z qX|.{.}.F X 8 z.h.4.5.5.r r.c.9.7.7.9.w.3.u z.k.7.9.7.7.9.X.) n.h.d.i.8.u.8.|  .b.8.9.9.{ 5   ^.}.{..X:X= tXsXsX",
"sXsXP V eX4X4X6XG X 8 z.h.7.7.0.r r.c.9.7.7.7.8.3.r z.d.7.7.7.9.9.{ ) n.j.i.7.8.u.i.`  .b.8.9.9.O.5   U.6X4X0X:X= tXsXsX",
"sXsXP A 0X!.W.`.B X 8 z.h.9.9.5.e r.c.9.9.9.8.s.2.e z.h.9.9.9.9.8.=.) m.j.y.8.8.y.d.'  .n.9.9.9.O.5   W _.W.}.:X= tXsXsX",
"sXsXP A 0X!._._.L # 8 @.o.] { ] 8 } +.] ] ] { } ` 8 @.+.] ] ] ] ] i e @.>.} { ] X.} u ) @.X.] { y 6 & ! _._.}.:X= tXsXsX",
"sXsXP A 0X!._.I *.$.$.$.#.#.1.#.$.#.#.#.1.1.$.$.$.1.#.#.$.$.$.$.#.$.$.$.$.$.#.#.$.#.#.#.#.$.$.$.$.$.#.j ~ `.}.;X= tXsXsX",
"sXsXP V wX4X3XU ..m.h.g.d.C.D.g.g.k.d.g.g.D.C.k.d.d.d.g.k.B.F.B.h.d.g.h.d.g.C.D.g.d.g.d.g.g.D.C.d.f.s.e R.4X5X;X= tXsXsX",
"sXsXP Z qX|.}.K  .c.5.5.5.6.M.4.5.5.5.5.5.M.6.5.5.5.4.5.5.6.M.5.5.5.5.5.5.5.6.M.5.5.5.4.5.4.M.6.5.5.4.i R [.@X:X= tXsXsX",
"sXsXP A 0XE._./.Y r e 0 0 8 r 8 r q 0 q r 8 8 r 8 r r 8 8 e 0 0 0 0 0 e 0 0 0 e 0 0 r 0 0 e 0 r r 0 g ^ T.T.{.-X= tXsXsX",
"sXsXP A 0X_.)._.m X 9 ) ) y u u 7 ) ) t u u t t r 7 ) y r t y u t 0 8 ) u y t t y u 7 e ) u t t 0 5 o W ).).{.-X= tXsXsX",
"sXsXP Z rX.X.X.XD X 8 z.h.y.u.<.r e.j.5.7.y.8.7.-.e a.f.7.8.u.8.7.{ ) v.8.8.y.0.y.0.`  .v.7.5.7.{ 5 O Q..XoX,X:X= tXsXsX",
"sXsXP V wX<X<X3XG X 0 z.h.i.u.2.e r.c.9.7.u.8.7.>.r z.h.8.d.y.d.8.O.) n.s.8.y.y.d.7.`  .n.8.7.9.X.5 O I.2X<X4X;X= tXsXsX",
"sXsXP V 0X!._._.n X 8 z.d.8.u.8.r r.c.9.i.i.8.7.>.u z.h.8.d.9.u.y.{ ) n.s.7.8.d.y.8.`  .b.9.7.9.X.5   W _.).{.:X= tXsXsX",
"sXsXP V 0X!._._.n X 8 z.h.9.y.y.y r.c.9.u.8.7.7.>.r z.l.u.s.9.d.d.o.) n.s.7.8.8.7.7.| } b.9.9.8.X.6   W `.T.}.:X= tXsXsX",
"sXsX^ D &XT.H.R.v X 7 p.d.5.5.0.8 e.a.8.0.5.0.5.;.8 p.a.8.0.5.5.8.} u z.8.5.5.5.5.5.y } v.7.5.5.{ 3 . E H.H.~.&X; iXsXsX",
"sXsXsXuXv < < < > > 2 ] &.%.%.d s d &.&.%.%.%.%.d 2 X.&.&.X.h X.&.f s %.&.%.X.%.%.%.s s ;.&.%.%.f * > , < < < n pXsXsXsX",
"sXsXsXsXsXsXsXsXsXsXsXsXsXsXsXsXsXsXsXsXsXsXsXsXsXsXsXsXsXsXsXsXsXsXsXsXsXsXsXsXsXsXsXsXsXsXsXsXsXsXsXsXaXsXsXsXsXsXsXsX",
"sXsXsXsXsXsXsXsXsXsXsXsXsXsXsXsXsXsXsXsXsXsXsXsXsXsXsXsXsXsXsXsXsXsXsXsXsXsXsXsXsXsXsXsXsXsXsXsXsXsXsXsXsXsXsXsXsXsXsXsX",
"sXsXsXsXsXsXsXsXsXsXsXsXsXsXsXsXsXsXsXsXsXsXsXsXsXsXsXsXsXsXsXsXsXsXsXsXsXsXsXsXsXsXsXsXsXsXsXsXsXsXsXsXsXsXsXsXsXsXsXsX"
};
