/* XPM */
static char *result[] = {
/* columns rows colors chars-per-pixel */
"60 60 230 2 ",
"   c #0C0E0F",
".  c #060707",
"X  c #110501",
"o  c #0C0E10",
"O  c #0E1516",
"+  c #161C1D",
"@  c #1B1D1E",
"#  c #151516",
"$  c #2B1C17",
"%  c #341207",
"&  c #191F21",
"*  c #171F22",
"=  c #1A2628",
"-  c #192A2C",
";  c #192224",
":  c #163738",
">  c #12292A",
",  c #212525",
"<  c #232929",
"1  c #35322F",
"2  c #323B3C",
"3  c #273437",
"4  c #48190A",
"5  c #471809",
"6  c #5D1801",
"7  c #631B02",
"8  c #6A1D03",
"9  c #641600",
"0  c #63220B",
"q  c #6C2107",
"w  c #742306",
"e  c #742509",
"r  c #77290C",
"t  c #7C290A",
"y  c #7B2607",
"u  c #692B15",
"i  c #7D2E12",
"p  c #6F3117",
"a  c #4A3931",
"s  c #7B3C24",
"d  c #613622",
"f  c #6D4938",
"g  c #514137",
"h  c #303E41",
"j  c #105151",
"k  c #105858",
"l  c #154949",
"z  c #374547",
"x  c #285C5C",
"c  c #3C595D",
"v  c #395558",
"b  c #294B4D",
"n  c #3C5C62",
"m  c #1A6E6E",
"M  c #376569",
"N  c #347275",
"B  c #465659",
"V  c #565B59",
"C  c #504947",
"Z  c #655046",
"A  c #635E5B",
"S  c #5B645B",
"D  c #4E7974",
"F  c #527070",
"G  c #7B7878",
"H  c #757675",
"J  c #666C6C",
"K  c #415E65",
"L  c #832C0B",
"P  c #8A310D",
"I  c #833315",
"U  c #8D3514",
"Y  c #8B3919",
"T  c #933610",
"R  c #993911",
"E  c #973D1A",
"W  c #92360F",
"Q  c #A03F15",
"!  c #923F20",
"~  c #A64116",
"^  c #AC4418",
"/  c #A94419",
"(  c #B24A1B",
")  c #BB4F1E",
"_  c #BE501F",
"`  c #964324",
"'  c #9B4523",
"]  c #9B4A29",
"[  c #974E32",
"{  c #98543A",
"}  c #8E4D32",
"|  c #A84722",
" . c #AA4922",
".. c #A24C2A",
"X. c #A54925",
"o. c #A5542D",
"O. c #B4522B",
"+. c #B9532B",
"@. c #BD582B",
"#. c #AC5431",
"$. c #A95B3C",
"%. c #B45934",
"&. c #BB5B34",
"*. c #B55731",
"=. c #B04F29",
"-. c #B86439",
";. c #B36631",
":. c #C2521F",
">. c #C25321",
",. c #C2582E",
"<. c #CC5B28",
"1. c #D45E27",
"2. c #D35F29",
"3. c #C45D33",
"4. c #CB5F33",
"5. c #DB632B",
"6. c #D6612A",
"7. c #C56236",
"8. c #CC6335",
"9. c #C9663B",
"0. c #DB6736",
"q. c #D96835",
"w. c #DB6B38",
"e. c #D36737",
"r. c #CC7338",
"t. c #E5692D",
"y. c #EC6D31",
"u. c #E36E38",
"i. c #E96F38",
"p. c #E26B34",
"a. c #EE7138",
"s. c #EE7B39",
"d. c #F37236",
"f. c #FC7635",
"g. c #FF7936",
"h. c #FF7B38",
"j. c #F06F31",
"k. c #925B45",
"l. c #986554",
"z. c #957F52",
"x. c #AA664B",
"c. c #B96A48",
"v. c #A46C56",
"b. c #B47459",
"n. c #AB7057",
"m. c #A77866",
"M. c #B17B64",
"N. c #C36841",
"B. c #56827C",
"V. c #FE833E",
"C. c #A88553",
"Z. c #BA8A53",
"A. c #AE8475",
"S. c #DA9354",
"D. c #D49154",
"F. c #D3844A",
"G. c #FF8C44",
"H. c #E59654",
"J. c #EB9853",
"K. c #FC9E52",
"L. c #F69149",
"P. c #E9AA5F",
"I. c #FFAF5E",
"U. c #F8A255",
"Y. c #FFB05E",
"T. c #F0B061",
"R. c #327E81",
"E. c #527B83",
"W. c #2B898A",
"Q. c #2A9798",
"!. c #36999B",
"~. c #318585",
"^. c #28ADAD",
"/. c #29B2B2",
"(. c #2CBCBC",
"). c #38AFB0",
"_. c #5D848D",
"`. c #51828A",
"'. c #5E8B94",
"]. c #5E8C95",
"[. c #5C939C",
"{. c #57979F",
"}. c #4C8589",
"|. c #608790",
" X c #608A93",
".X c #778686",
"XX c #5A9BA2",
"oX c #559EA5",
"OX c #58A3AA",
"+X c #56A6AB",
"@X c #55ACB2",
"#X c #4AB7BB",
"$X c #53B4BA",
"%X c #51B9BF",
"&X c #53B0B6",
"*X c #4EA8AD",
"=X c #3CBEC0",
"-X c #4EBEC2",
";X c #51BDC2",
":X c #3DC2C5",
">X c #38D5D6",
",X c #3CE3E4",
"<X c #3EF4F4",
"1X c #3EEFF0",
"2X c #38DFE0",
"3X c #4EC2C6",
"4X c #4DC5CA",
"5X c #4DC9CD",
"6X c #44C5C8",
"7X c #4CCDD1",
"8X c #44CFD1",
"9X c #4AD2D5",
"0X c #4AD5D8",
"qX c #49DADC",
"wX c #46D7D8",
"eX c #50C6CA",
"rX c #49DDE0",
"tX c #42EAEC",
"yX c #46E3E5",
"uX c #40F1F2",
"iX c #42EFF0",
"pX c #899192",
"aX c #BF9D90",
"sX c #BFA095",
"dX c #C7A99E",
"fX c #CAB2AA",
"gX c #C09D90",
"hX c #DACECB",
"jX c #F2EDEC",
"kX c None",
/* pixels */
"kXkXkXkXkXkXkXkXkXkXkXkXkXkXkXkXkXkXkXkXkXkXkXkXkXkXkXkXkXkXkXkXkXkXjXjXjXkXkXkXkXkXkXkXkXkXkXkXkXkXkXkXkXkXkXkXkXkXkXkX",
"kXkXkXkXkXkXkXkXkXkXkXkXkXkXkXkXkXkXkXkXkXkXkXkX.Xc c c c c c v g } { k.k.} { } sXkXkXkXkXkXkXkXkXkXkXkXkXkXkXkXkXkXkXkX",
"kXkXkXkXkXkXkXkXkXkXkXkXkXkXkXkXkXkXkXkX.Xx x x /.>X:X:X:X:X).B.W 5.V.H.;.y 5.@.Y k.hXkXkXkXkXkXkXkXkXkXkXkXkXkXkXkXkXkX",
"kXkXkXkXkXkXkXkXkXkXkXkXkXkXkXkXkXpXN m Q.5X5X4X5X5X&X[.[.F } _ f.L.K.F.] t y.8.Y y #.aXkXkXkXkXkXkXkXkXkXkXkXkXkXkXkXkX",
"kXkXkXkXkXkXkXkXkXkXkXkXkXkXJ D W.Q.,XrX+X X X X_.#XwX_.Z ..5.g.V.T.L.q.` t y.0.Y T y.` l.kXkXkXkXkXkXkXkXkXkXkXkXkXkXkX",
"kXkXkXkXkXkXkXkXkXkXkXkXF !.^.).&X$X@XeX;X[.E.E.z : l < 6 6.g.G.U.o.t.w.` t y.0.U R a.%.r g pXkXkXkXkXkXkXkXkXkXkXkXkXkX",
"kXkXkXkXkXkXkXkXkXkXkXM ).tX7X+X|. X X`.!.Q.* O O + # $ r 5.g.G.P.r 1.w.' y y.0.U R d.*.r K ~.F kXkXkXkXkXkXkXkXkXkXkXkX",
"kXkXkXkXkXkXkXkXkXkX~.#XXX[.$X5XoXM B - O + + + & * $ q t.g.g.G.T.i 1.i.| y y.0.U T d.*.r 0 S ).N kXkXkXkXkXkXkXkXkXkXkX",
"kXkXkXkXkXkXkXkXkX).@X X X X X}.m O   + @ & & & * & $ w t.f.G.U.N.i 6.i.X.t y.0.U R d.3.t 9 f [.#XW.D kXkXkXkXkXkXkXkXkX",
"kXkXkXkXkXkXkXkX/.yX%X[. XE.n *   & & & & & & & & $ u <.f.f.K.P.#.w 6.i./ t y.8.I R d.4.t Q ] V 5X<Xk J kXkXkXkXkXkXkXkX",
"kXkXkXkXkXkXkX).*XOX$X3XE.3 + # @ & & & & & & & & 4 U f.f.f.K.P.#.w 2.i.X.t j.7.I R d.8.r >.:.d {.OX=X~.S kXkXkXkXkXkXkX",
"kXkXkXkXkXkXk >XOX'.].`.O # & & & & & & & & & & * % P s.f.f.K.P.#.w 2.i. .y y.7.I R d.4.t >.:.d _.'.4XQ.v kXkXkXkXkXkXkX",
"kXkXkXkXkXj yXXX]. XD z O * & & & & & & & & & & $ u ) f.f.G.J.F.*.w 2.i.| t y.8.I R d.4.y >.2.s A _. X;X(.< kXkXkXkXkXkX",
"kXkXkXkXkX!.;X5X7X+Xn . * * & & & & & & & & & & 4 ^ g.g.f.Y.S.-.,.y 2.p.' t y.0.T T d.4.t :.u...0 +X5XeX#XW.J kXkXkXkXkX",
"kXkXkXkXm yX[.+X@XM * O * * & & & & & & & & & & 4 ^ g.g.h.Y.S.&.,.w 2.w.! L y.0.T R d.4.t +.a.=.u B.*XXX+X,X> kXkXkXkXkX",
"kXkXkXC m tX X X Xh . + * * & & & & & & & & & ; 4 ^ g.g.h.Y.S.&.&.y 1.w.! t y.0.U R d.4.y >.a.O.0 # K  X+X2X> kXkXkXkXkX",
"kXkXkXM Q.-X'._.F < o & & & & & & & & & & & & & 4 ^ f.f.6.r.;.] E w 2.w.` t y.8.I R d.3.r >.i.=.9 X n  XXX6Xm .XkXkXkXkX",
"kXkX< ^.yX3X3X-X:   & & & & & & & & & & & & & & 4 ^ y.( ( ( ( ( Q w R / i y y.7.i R d.%.e :.p...7 X R.3X3X3X1Xj G kXkXkX",
"kXkX, /.rX&X&X&X: o & & & & & & & & & & & & ; @ 4 ( 1.w y.w.9.e.9.,._ >.Q e R Y w T p.#.e @.u...7 X N %X&X-X1Xj G kXkXkX",
"kXkX, /.4X'.'._.= o & & & & & & & & & & & & & & 4 ^ 5.P 1.*.o.x.A.N.3.N.N.6.2.2.Q L R I 8 ( 6.' 6 X n  X|.[.tXj G kXkXkX",
"kXkX, /.eX|. X_.= o * * & & & & & & & & * & & & 4 ^ f.t.~ y 8 i [ ..' v.M.-.-.c.9.0.6.6.E T R I 6 % c '.|.[.tXj G kXkXkX",
"kXkX, /.rX%X;X$X:   * * & & & & & & & & & & & & 4 ^ g.g.f.;.` t 7 8 8 i ! E ` m.x.&.c.b.e.0.0.<.Q q D ;X;X3XiXj G kXkXkX",
"kXkX, /.yX;X;X$X:   * @ & & & & & & & & & & & & 4 ^ f.g.g.Y.S.#.E w ^ T 7 7 8 t Y I ! v.x.%.x.M.7.t `.;X;X-XuXj G kXkXkX",
"kXkX, /.4X|.|._.&   * * & & & & & & & & & & & & 5 ^ g.g.g.Y.S.-.,.e 2.8.I w >.L 7 8 q t t t } x.o.q A  X X[.tXj G kXkXkX",
"kXkX, /.eX|.|._.- o ; & & & & & & & & & & & & & 4 ^ g.g.g.Y.H.3.#.w 6.w.` t y.@.i W 2.t 9 w y w q X K  X|.[.tXj G kXkXkX",
"kXkX, /.rX&X$X@X- o & & & & & & & & & & & & & & 5 ^ g.g.g.Y.H.8.=.w 6.q.' t y.7.I R i.#.r :.,.r 7 X N $X@X;XtXj G kXkXkX",
"kXkX, /.yX3X3X-X: o & & & & & & & & & & & & & & 4 ^ g.f.h.Y.H.#.f q 6.w.` t y.e.U R d.%.w >.u...7 X R.eX3X4XuXj G kXkXkX",
"kXkX, /.5X|. X_.= o & & & & & & & & & & & & & & 4 ^ g.g.h.Y.C.Z J a <.w.' y j.q.U R d.%.r >.u...7 X n  X X[.tXj G kXkXkX",
"kXkX, /.5X X|.|.= o ; & & & & & & & & & & & & & 4 ~ g.g.h.I.z.B pXz 9.w.` t y.0.U R a.*.r >.i.+.9 X n  X|.[.tXj G kXkXkX",
"kXkX, /.qX+X@X+X- o & & & & & & & & & & & & & & 4 ^ g.g.g.I.C.C H a 8.w.' t y.0.U R d.&.r >.a.+.7 X N @X@X&XtXj G kXkXkX",
"kXkX, /.tX5X5X4X: o & & & & & & & & & & & & & & 4 ^ g.g.h.Y.S.} 1 0 1.i.| L y.0.T R d.4.t >.i.+.7 X ~.7X4X7X<Xj G kXkXkX",
"kXkX, /.eX'.'._.= o & & & & & & & & & & & & & & 4 ^ g.g.h.Y.H.{ 1 8 1.i.| y y.e.I R d.4.t >.a.O.7 X n  X'.XXtXj G kXkXkX",
"kXkX, /.eX|. X_.= o & & ; & & & & & & & & & & & 4 ^ h.g.g.I.H.$.1 7 2.a. .t y.7.I R d.4.t >.u.=.7 X n  X XXXtXj G kXkXkX",
"kXkX, /.9XOXOXoX- o & & & & & & & & & & & & & & 4 ^ g.g.g.I.J.[ 1 6 2.i. .y y.8.I R d.%.r >.u...6 X M OXoX@XtXj G kXkXkX",
"kXkX, /.tX9X9X6X: o & & & & & & & & & & & & & & 4 ^ g.g.g.I.H.[ 1 6 2.i. .t y.0.U R d.%.e >.a.O.7 X W.qX7X0X<Xj G kXkXkX",
"kXkX, /.5X X].'.- o & & & & & & & & & & & & & & 4 ~ g.g.f.I.Z.Z V d 8.i. .y y.0.U R d.%.e >.d.+.7 X K  X XXXtXj G kXkXkX",
"kXkX, /.5X|.'._.= o & & & & & & & & & & & & & & 4 ^ g.g.g.I.z.B pXC 7.p.' t y.0.T R d.3.t >.a.O.7 X n  X|.XXtXj G kXkXkX",
"kXkX, /.9XXXXXXX-   & & & & & & & & & & & & & & 4 ^ g.g.g.I.z.V pX2 7.w.` t y.q.U R d.4.t >.i.O.7 X M XXXXOXtXj G kXkXkX",
"kXkX, /.iX0X0X8X: o & & & & & & & & & & & & & & 4 ^ g.g.g.I.D.} d 0 2.w.` y y.8.I R d.3.t >.i...6 X W.0X7XqX<Xj G kXkXkX",
"kXkX, /.5X X].].- o & & & & & & & & & & & & & & 4 ^ g.g.g.I.S.&.*.e 2.u.' L y.7.I R d.%.r >.u...7 X n [.].XXtXj G kXkXkX",
"kXkX, /.5X X_._.= o & * & & & & & & & & & & & & 5 ^ g.g.h.I.H.3.,.e 1.i. .t y.7.I R d.*.e :.2.I 8 % V  X XXXiXj G kXkXkX",
"kXkX, /.7X[.{.[.- o & & & & & & & & & & & & & & 5 ^ g.g.h.I.H.8.O.w 1.i. .t y.&.i T 5.U e P ( <.>.t u S [.oXtXj G kXkXkX",
"kXkX, /.tX0X0X9X: o & & & & & & & & & & & & & & 5 ^ g.g.g.I.H.8.#.e 6.e.Y e <.~ I P ^ 1.5.6.9.c.7.#.t S 0XqXuXj G kXkXkX",
"kXkX, /.7X[.[.[.- o & & & & & & & & & & & & & & 5 ^ h.g.h.I.H.@.! 8 ( ( R R ~ 6.0.0.e.b.-.&.n.m.' ' f A [.XXiXj G kXkXkX",
"kXkX, /.5X X X_.= o * & & & & & & & & & & & & & 4 ^ g.d._ ;.o.E ^ ( ( ,.0.q.e.b.x.%.$.m.} U Y I 7 % V  X|.XXtXj G kXkXkX",
"kXkX, /.7X].].].- o & & & & & & & & & & & & & & 4 ^ t.Q :.:._ ,.9.e.e.b.m.#.#.v.[ I I i 8 8 8 8 6 X n [.[.XXtXj G kXkXkX",
"kXkX, /.iX0XwX9X: o & & & & & & & & & & & & & & 4 ^ 1.y t.w.9.c.m.$.o.$.[ e e e 8 8 w q 7 ( 4.` 7 X W.0X0XqXuXj G kXkXkX",
"kXkX, /.7X{.XX{.- o & & & & & & & & & & & & & & 4 ^ t.T <.O...[ [ r 8 8 8 8 L L 8 W t.O.e >.d.O.8 X M XXXXOXiXj G kXkXkX",
"kXkX< /.5X'.'._.=   & * & & & & & & ; & & & & & 5 ^ g.y.( y 8 8 7 7 W R r y y.e.I R d.4.t >.a.=.7 X n '.|.{.tXj G kXkXkX",
"kXkX< ^.3X_._._.;   + @ * + * @ + + + & @ + + & 5 ^ g.g.h.r.#.E Y w 1.u.X.y y.0.U R f.4.t >.u...6 X c '.'.].,Xj .XkXkXkX",
"kXkXkXF b h 2 2 ; @ @ @ @ @ @ @ @ @ @ @ @ @ @ @ 5 ~ g.g.h.I.H.8.&.w 2.i.| t y.8.I R d.4.t >.p...p $ < h 2 h x pXhXkXkXkX",
"kXkXkXkXkXkXkXkXkXkXkXkXkXkXkXkXkXkXkXkXkXkXkXkXk.~ g.g.h.I.S.3.,.w 2.i.| t y.7.I R d.&.e ^ ,.l.kXkXkXkXkXkXkXkXkXkXkXkX",
"kXkXkXkXkXkXkXkXkXkXkXkXkXkXkXkXkXkXkXkXkXkXkXkXl.Q g.g.h.Y.S.&.,.e 1.i.| t y.7.I R y...k.l.gXkXkXkXkXkXkXkXkXkXkXkXkXkX",
"kXkXkXkXkXkXkXkXkXkXkXkXkXkXkXkXkXkXkXkXkXkXkXkXl.~ g.g.h.Y.S.&.,.e 2.u.X.y y.3.I L O.A.kXkXkXkXkXkXkXkXkXkXkXkXkXkXkXkX",
"kXkXkXkXkXkXkXkXkXkXkXkXkXkXkXkXkXkXkXkXkXkXkXkXl.Q g.g.h.I.S.%.O.e 1.w.` y t.X.m.dXkXkXkXkXkXkXkXkXkXkXkXkXkXkXkXkXkXkX",
"kXkXkXkXkXkXkXkXkXkXkXkXkXkXkXkXkXkXkXkXkXkXkXkXl.Q g.g.h.I.S.%.#.e 1.e.` Y [ dXkXkXkXkXkXkXkXkXkXkXkXkXkXkXkXkXkXkXkXkX",
"kXkXkXkXkXkXkXkXkXkXkXkXkXkXkXkXkXkXkXkXkXkXkXkXl.~ g.g.f.Y.D.%.o.e ) %.A.kXkXkXkXkXkXkXkXkXkXkXkXkXkXkXkXkXkXkXkXkXkXkX",
"kXkXkXkXkXkXkXkXkXkXkXkXkXkXkXkXkXkXkXkXkXkXkXkXl.Q g.g.f.I.S.o.` l.m.fXkXkXkXkXkXkXkXkXkXkXkXkXkXkXkXkXkXkXkXkXkXkXkXkX",
"kXkXkXkXkXkXkXkXkXkXkXkXkXkXkXkXkXkXkXkXkXkXkXkXfXn.(  .^ ;.o.{ sXkXkXkXkXkXkXkXkXkXkXkXkXkXkXkXkXkXkXkXkXkXkXkXkXkXkXkX",
"kXkXkXkXkXkXkXkXkXkXkXkXkXkXkXkXkXkXkXkXkXkXkXkXkXkXfXfXfXfXfXhXkXkXkXkXkXkXkXkXkXkXkXkXkXkXkXkXkXkXkXkXkXkXkXkXkXkXkXkX"
};
