/* XPM */
static char *_b0fc17c62914ad09976bd4196247b06MjWjj44vjfANVcEH[] = {
/* columns rows colors chars-per-pixel */
"60 60 81 1 ",
"  c None",
". c #94A5B9",
"X c #9DAEBA",
"o c #A7AEB7",
"O c #AAB0B5",
"+ c #A7B1BC",
"@ c #C8A5A4",
"# c #AEB7C0",
"$ c #A5B8C6",
"% c #A8B8C7",
"& c #AAB6C8",
"* c #ADBCCA",
"= c #A4B9D2",
"- c #AFBFD0",
"; c #A3BADA",
": c #A8BFDE",
"> c #B2BED0",
", c #AEC0CE",
"< c #BAC3C7",
"1 c #B1C1CE",
"2 c #BBC3CB",
"3 c #AFC2D0",
"4 c #AEC6DD",
"5 c #B3C3D3",
"6 c #BBC7D3",
"7 c #BBCAD7",
"8 c #B7C6D9",
"9 c #B7CADA",
"0 c #BDCCD9",
"q c #BDD0DD",
"w c #ADC4E3",
"e c #BECEE1",
"r c #B4CBEB",
"t c #B8CFEE",
"y c #BED1E1",
"u c #BDD4EF",
"i c #BED5F4",
"p c #BEDAF2",
"a c #C7CACF",
"s c #C3CBD2",
"d c #C8CED2",
"f c #CCD2D4",
"g c #C2D2DE",
"h c #CBD4DA",
"j c #D2D7DC",
"k c #D5D9DC",
"l c #D9DCDF",
"z c #E8C9CC",
"x c #C3D4E4",
"c c #C3D6EB",
"v c #C4D9EA",
"b c #CADDEC",
"n c #D4DEE4",
"m c #D8DDE1",
"M c #C1D5F4",
"N c #C3DAF4",
"B c #C9DDF4",
"V c #C7DEF9",
"C c #CADEF9",
"Z c #DFE2E5",
"A c #DCE4E9",
"S c #CCE2F5",
"D c #CCE4FB",
"F c #D1E5F5",
"G c #D7ECF6",
"H c #DEEAF5",
"J c #D1E6FA",
"K c #D6ECFD",
"L c #D9ECFC",
"P c #E0E5E7",
"I c #E3E6EA",
"U c #E2E9EB",
"Y c #E9EDED",
"T c #E7EBF1",
"R c #EDEEF2",
"E c #EDF2F4",
"W c #F3F4F5",
"Q c #F7F6F8",
"! c #F8F7F9",
"~ c #F7FAFC",
"^ c #FCFDFD",
/* pixels */
"                                                            ",
"                                                            ",
"                                                            ",
"                                                            ",
"                                                            ",
"                                                            ",
"                                                            ",
"                                                            ",
"                                                            ",
"                                                            ",
"                                                            ",
"                                                            ",
"                                                            ",
"                                                            ",
"                                                            ",
"                                                            ",
"                                                            ",
"                           <hAn0                            ",
"                         fE~^^!H*q9                         ",
"                          !^^^^A9KKJb0                      ",
"                          m^^^^sgLLLLLFx                    ",
"                          s^^^To     KKLF0                  ",
"                          j^^^s       LLKKv                 ",
"                         OE^^A        LLKKGb                ",
"                         U^^E+        LKKKKLx               ",
"                I      jE^^^s0      LLKKKKKLG1              ",
"               @QE   IW^^^^h7LLLKKKKLKKKLKKKLb              ",
"               zYa   ^^^!^l5GKKKKKLKLKKLLKKKGL5             ",
"              f^Y    WWZUA3VDpNNNNCJKKKKKKKKLLx             ",
"              A^^       g,NiiiiiiiiMNSKKKKKKKLF             ",
"              W^       6*NiiiiiiiiiipipDLLKKKLK&            ",
"             +U        5SMiiiiiiiiiiiipSKLKKKKK>            ",
"             hlas2d   9JSiiiiiiiiiiiiiiMCLKKKKL9            ",
"             U^WII  .yKFNciiiiiiiiiiiiiiMNvJKKL5            ",
"             U^^Q^ XvKDv9=;wrtMiiiiirw;;8vFKKKK5            ",
"             I^^~h,SKSVNNutw:;;tiir;:wriiDKKLLJ*            ",
"             m^TsyKDppiiiiiiiirtiitriiiiiiJKKKS             ",
"              k 7GKBiiiiiiiiiiiiiiiiiiiiiiDLKLx             ",
"                 bGNiiupipiiiiiiiiiiiiiipiBKKJ$             ",
"                  bSuuiiiiiiiiiiiiiiiiiiiMDGJq              ",
"                   vBNiiiiiiiiiiiiMMiiMMMVLKg               ",
"            HLG     8bBNiiiiiiiiiiiMiiMMBbx                 ",
"                      9vBSVNNNMNNNMMVNve5                   ",
"                        $5exvvvvcMxg8                       ",
"                                                            ",
"                                                            ",
"                                                            ",
"                                                            ",
"                                                            ",
"                                                            ",
"                                                            ",
"                                                            ",
"                                                            ",
"                                                            ",
"                                                            ",
"                                                            ",
"                                                            ",
"                                                            ",
"                                                            ",
"                                                            "
};
