/* XPM */
static char *result[] = {
/* columns rows colors chars-per-pixel */
"60 60 142 2 ",
"   c #020303",
".  c #0B0302",
"X  c #070808",
"o  c #140401",
"O  c #1C0501",
"+  c #1A0801",
"@  c #220400",
"#  c #210900",
"$  c #2D0C00",
"%  c #340600",
"&  c #3B0700",
"*  c #340D00",
"=  c #3A0E00",
"-  c #341106",
";  c #3D1000",
":  c #490E00",
">  c #530A00",
",  c #5C0B00",
"<  c #451300",
"1  c #4C1400",
"2  c #531500",
"3  c #5A1600",
"4  c #561A05",
"5  c #5D1901",
"6  c #551D0B",
"7  c #5A1E09",
"8  c #650D00",
"9  c #690D00",
"0  c #710F00",
"q  c #7A0E00",
"w  c #611100",
"e  c #6C1100",
"r  c #631B01",
"t  c #6C1D01",
"y  c #611F08",
"u  c #721300",
"i  c #731C01",
"p  c #7B1B01",
"a  c #5F210B",
"s  c #592414",
"d  c #652006",
"f  c #6E2106",
"g  c #61220B",
"h  c #6F250B",
"j  c #762001",
"k  c #7B2201",
"l  c #811300",
"z  c #841A01",
"x  c #8C1A01",
"c  c #941301",
"v  c #931A01",
"b  c #9C1901",
"n  c #A41401",
"m  c #AD1601",
"M  c #A31901",
"N  c #AB1901",
"B  c #B21701",
"V  c #BD1700",
"C  c #B21901",
"Z  c #BC1801",
"A  c #822301",
"S  c #8B2501",
"D  c #862A09",
"F  c #912701",
"G  c #952901",
"H  c #9A2A01",
"J  c #A02600",
"K  c #A42D01",
"L  c #AB2F01",
"P  c #A4250E",
"I  c #BB2301",
"U  c #AD3002",
"Y  c #B33101",
"T  c #BB3401",
"R  c #B93509",
"E  c #BF2711",
"W  c #B02F1A",
"Q  c #C11700",
"!  c #C21901",
"~  c #C91F01",
"^  c #C32401",
"/  c #CA2201",
"(  c #C12D00",
")  c #D32C00",
"_  c #C33601",
"`  c #C13805",
"'  c #CB3801",
"]  c #D43400",
"[  c #DA3400",
"{  c #D53B06",
"}  c #DC3A02",
"|  c #D63D09",
" . c #C42510",
".. c #C52B16",
"X. c #D83E14",
"o. c #CC3A21",
"O. c #CB3E2B",
"+. c #904631",
"@. c #DF400B",
"#. c #D6411E",
"$. c #DF4E1F",
"%. c #D04937",
"&. c #CF513F",
"*. c #E05121",
"=. c #E36236",
"-. c #E4683E",
";. c #9D5E4B",
":. c #A77565",
">. c #CA5F4F",
",. c #D95F42",
"<. c #D25B4B",
"1. c #CE6A59",
"2. c #D56354",
"3. c #D56758",
"4. c #D66A5B",
"5. c #E5754F",
"6. c #E47651",
"7. c #CD7263",
"8. c #D37062",
"9. c #DA796C",
"0. c #E47F65",
"q. c #DF8B7F",
"w. c #E58666",
"e. c #EC8F70",
"r. c #E0968C",
"t. c #E49F95",
"y. c #E89F90",
"u. c #D0ADA4",
"i. c #DBBCB5",
"p. c #E7ACA4",
"a. c #EBB7B0",
"s. c #F4C0AE",
"d. c #EEC2BC",
"f. c #F6CCBD",
"g. c #DCC8C1",
"h. c #F7D0C3",
"j. c #F8DBD2",
"k. c #F7E1DE",
"l. c #FBE4DD",
"z. c #FBF3F2",
"x. c #FEFDFD",
"c. c None",
/* pixels */
"c.c.c.c.c.c.c.c.c.c.c.c.c.c.c.c.c.c.c.c.c.c.c.c.c.c.c.c.c.c.c.c.c.c.c.c.c.c.c.c.c.c.c.c.c.c.c.c.c.c.c.c.c.c.c.c.c.c.c.c.",
"c.c.c.c.c.c.c.c.c.c.c.c.c.c.c.c.c.c.c.c.c.c.c.c.c.c.c.c.c.c.c.c.c.c.c.c.c.c.c.c.c.c.c.c.c.c.c.c.c.c.c.c.c.c.c.c.c.c.c.c.",
"c.c.c.c.c.c.c.c.c.c.c.c.c.c.c.c.c.c.c.c.c.c.c.c.c.c.c.c.c.c.c.c.c.c.c.c.c.c.c.c.c.c.c.c.c.c.c.c.c.c.c.c.c.c.c.c.c.c.c.c.",
"c.c.c.c.c.c.c.c.c.c.c.c.c.c.c.c.c.c.c.c.c.c.c.c.c.c.c.c.c.c.c.c.c.c.c.c.c.c.c.c.c.c.c.c.c.c.c.c.c.c.c.c.c.c.c.c.c.c.c.c.",
"c.c.c.c.c.c.c.c.c.c.c.c.c.c.c.c.c.c.c.c.c.c.c.c.c.c.| } } @.=.6.c.c.c.c.c.c.c.c.c.c.c.c.c.c.c.c.c.c.c.c.c.c.c.c.c.c.c.c.",
"c.c.c.c.c.c.c.c.c.c.c.c.c.c.c.c.c.c.c.c.c.c.c.c.c.} } [ ) #.0.j.j.w.c.c.c.c.c.c.c.c.c.c.c.c.c.c.c.c.c.c.c.c.c.c.c.c.c.c.",
"c.c.c.c.c.c.c.c.c.c.c.c.c.c.c.c.c.c.c.c.c.c.c.c.} [ ) Z C W 8.j.x.l.6.c.c.c.c.c.c.c.c.c.c.c.c.c.c.c.c.c.c.c.c.c.c.c.c.c.",
"c.c.c.c.c.c.c.c.c.c.c.c.c.c.c.c.c.c.c.c.c.c.c.} [ / M p t h ;.u.x.x.s.=.c.c.c.c.c.c.c.c.c.c.c.c.c.c.c.c.c.c.c.c.c.c.c.c.",
"c.c.c.c.c.c.c.c.c.c.c.c.c.c.c.c.c.c.c.c.c.c.} ] ~ b t r t i +.:.g.x.x.h.-.c.c.c.c.c.c.c.c.c.c.c.c.c.c.c.c.c.c.c.c.c.c.c.",
"c.c.c.c.c.c.c.c.c.c.c.c.c.c.c.c.c.c.c.c.c.i ( ~ b r i x b B E >.7.t.a.x.f.$.c.c.c.c.c.c.c.c.c.c.c.c.c.c.c.c.c.c.c.c.c.c.",
"c.c.c.c.c.c.c.c.c.c.c.c.c.c.c.c.c.c.c.c.X . c M t z b v M M Z O.2.2.4.a.x.e.} c.c.c.c.c.c.c.c.c.c.c.c.c.c.c.c.c.c.c.c.c.",
"c.c.c.c.c.c.c.c.c.c.c.c.c.c.c.c.c.c.c.c.  8 B p x Z M x v r v ! <.4.4.r.z.y.$.} c.c.c.c.c.c.c.c.c.c.c.c.c.c.c.c.c.c.c.c.",
"c.c.c.c.c.c.c.c.c.c.c.c.c.c.c.c.c.c.c.  & C x v Z Z C v v z b Z  .<.3.9.k.p.,.} } c.c.c.c.c.c.c.c.c.c.c.c.c.c.c.c.c.c.c.",
"c.c.c.c.c.c.c.c.c.c.c.c.c.c.c.c.c.c.  o c m b ! Z b z i v v p C ! ..<.3.r.i.1.X.} c.c.c.c.c.c.c.c.c.c.c.c.c.c.c.c.c.c.c.",
"c.c.c.c.c.c.c.c.c.c.c.c.c.c.c.c.c.c.  , Z Z Z N x t r t t r i C ! V ..<.4.7.4.o.[ } c.c.c.c.c.c.c.c.c.c.c.c.c.c.c.c.c.c.",
"c.c.c.c.c.c.c.c.c.c.c.c.c.c.c.c.c.  O n ! Z v t r r r r r z m ! ! V x P %.2.2.../ } | c.c.c.c.c.c.c.c.c.c.c.c.c.c.c.c.c.",
"c.c.c.c.c.c.c.c.c.c.c.c.c.c.c.c.c.  9 ! Z z r r r r r r t x b b C V M b b  ...! ! ) } c.c.c.c.c.c.c.c.c.c.c.c.c.c.c.c.c.",
"c.c.c.c.c.c.c.c.c.c.c.c.c.c.c.c.  @ m ! v r r t r t r t r t r r i N ! z r N ! V V / } | c.c.c.c.c.c.c.c.c.c.c.c.c.c.c.c.",
"c.c.c.c.c.c.c.c.c.c.c.c.c.c.c.c.  8 ! N t r r r r r t r t r d t r z m x v Z ! ! B Z ) } c.c.c.c.c.c.c.c.c.c.c.c.c.c.c.c.",
"c.c.c.c.c.c.c.c.c.c.c.c.c.c.c.  o n Z p r r t r r d r r r r r r r r t t z Z V C M B / } | c.c.c.c.c.c.c.c.c.c.c.c.c.c.c.",
"c.c.c.c.c.c.c.c.c.c.c.c.c.c.c.  & n l 3 r r d t r r r r r t r r r 5 r r t C N t z M M ] } c.c.c.c.c.c.c.c.c.c.c.c.c.c.c.",
"c.c.c.c.c.c.c.c.c.c.c.c.c.c.c.  , l 2 < 1 r r r t r t r r r t r r = 5 r p Z M t x b b / } c.c.c.c.c.c.c.c.c.c.c.c.c.c.c.",
"c.c.c.c.c.c.c.c.c.c.c.c.c.c.  o q 9 < < < 1 r r r r r 5 5 r r r 2 = 1 p N ! V M v N V ~ [ } c.c.c.c.c.c.c.c.c.c.c.c.c.c.",
"c.c.c.c.c.c.c.c.c.c.c.c.c.c.  % l > < < < < 2 r r r r r r t d r 2 1 = i m N C i r t m ! ) } c.c.c.c.c.c.c.c.c.c.c.c.c.c.",
"c.c.c.c.c.c.c.c.c.c.c.c.c.c.  > u < 1 < < < 1 1 5 r r t r r r r < 2 < t l u M r r r v b ^ } c.c.c.c.c.c.c.c.c.c.c.c.c.c.",
"c.c.c.c.c.c.c.c.c.c.c.c.c.X . 9 w < < < < < < ; 2 r r j r t r 3 - 2 3 5 > : v t r i x r S [ | c.c.c.c.c.c.c.c.c.c.c.c.c.",
"c.c.c.c.c.c.c.c.c.c.c.c.c.X O u 2 < < < < < < * ; 5 t A r r r 2 * 2 r 2 * * 3 t i v l z M [ } c.c.c.c.c.c.c.c.c.c.c.c.c.",
"c.c.c.c.c.c.c.c.c.c.c.c.c.+ % e 1 ; ; < 1 < < - $ 2 j A r 3 r < - 1 r 2 ; * 1 r i x 8 B ! ) } c.c.c.c.c.c.c.c.c.c.c.c.c.",
"c.c.c.c.c.c.c.c.c.c.c.c.c.o 3 3 < ; $ < < < < $ $ r k S r 5 3 < * 1 r 3 < < < r r r ; i m / } c.c.c.c.c.c.c.c.c.c.c.c.c.",
"c.c.c.c.c.c.c.c.c.c.c.c.c.o t 3 < ; # < < < 1 $ ; r A S 5 5 5 2 % 1 r r 2 3 < r r 2 * 1 p ^ } c.c.c.c.c.c.c.c.c.c.c.c.c.",
"c.c.c.c.c.c.c.c.c.c.c.c.c.o r t < * # 1 1 < < $ < r F S r r r r < 1 r r 2 5 2 r r 1 < 1 i I } R 5 c.c.c.c.c.c.c.c.c.c.c.",
"c.c.c.c.c.c.c.c.c.c.c.c.c.o 5 k 3 - $ 3 1 < < - 1 r H A 5 j j 5 5 2 r r 3 r r r r < 2 < p ^ ] S 5 c.c.c.c.c.c.c.c.c.c.c.",
"c.c.c.c.c.c.c.c.c.c.c.c.c.. 2 j k * * t r < < * 1 r H A r S 3 5 r 5 r r 3 5 r r 3 1 5 2 N ~ J 3 r c.c.c.c.c.c.c.c.c.c.c.",
"c.c.c.c.c.c.c.c.c.c.c.c.c.O < t G < = j k < < * 1 r S j t H < 3 r r 5 r 5 r r p 3 2 3 3 B ! p 3 r c.c.c.c.c.c.c.c.c.c.c.",
"c.c.c.c.c.c.c.c.c.c.c.c.c.; 1 r k A < j H 1 < ; 1 r j r j G ; 2 r r 5 r 5 5 r p 2 5 r 3 c x 5 5 g c.c.c.c.c.c.c.c.c.c.c.",
"c.c.c.c.c.c.c.c.c.c.c.c.c.1 t r t K t t U 3 < ; 1 r r r S S $ 1 r r 5 r 3 r r 5 2 r 5 2 z r 5 5 c.c.c.c.c.c.c.c.c.c.c.c.",
"c.c.c.c.c.c.c.c.c.c.c.c.c.1 j t r k A r L A * < < r 5 r H S < 2 r r 5 5 3 5 r 2 2 r 5 1 u 5 r 5 c.c.c.c.c.c.c.c.c.c.c.c.",
"c.c.c.c.c.c.c.c.c.c.c.c.c.1 t S r t t r G U ; < 1 r r r Y H ; 2 r r r 5 3 r r 3 r r 3 < 5 5 r 5 c.c.c.c.7 c.c.c.c.c.c.c.",
"c.c.c.c.c.c.c.c.c.c.c.c.c.< r S k r r r k _ j 2 2 3 5 t T S $ 1 r r 5 3 5 5 r 5 r r 5 3 3 r r c.c.c.c.5 c.c.c.c.c.c.c.c.",
"c.c.c.c.c.c.c.c.c.c.c.c.c.- 5 t K t r r t Y Y w 5 r 5 t _ r O ; r r 5 5 r r r 3 r r 5 5 5 r r c.c.c.5 r c.c.c.c.c.c.c.c.",
"c.c.c.c.c.c.c.c.c.c.c.r k - 1 r S G r r r H T A 1 r 5 j _ 1 # * r r r 5 5 r r 5 r 5 5 5 5 d 2 c.c.5 r g c.c.c.c.c.c.c.c.",
"c.c.c.c.c.c.c.c.c.c.c.c.h t ; r t L A t r k ' H 2 5 r j T < O * 5 r r 5 r r r 5 r 3 3 5 r 5 < c.r r d c.c.c.c.c.c.c.c.c.",
"c.c.c.c.c.c.c.c.c.c.c.c.r j j 5 r k _ F r r T ' A 3 r j T ; # $ 5 r r 3 5 r r r 3 5 5 r r 1 1 d r r c.c.c.c.c.c.c.c.c.c.",
"c.c.c.c.c.c.c.c.h c.c.c.g r k G t r H _ r 5 S ' U r r j Y * # $ 3 r r 3 r r 5 3 r 5 r r 3 2 5 r r r c.c.c.c.c.c.c.c.c.c.",
"c.c.c.c.c.c.c.c.d k c.c.c.r r A K i t H t 3 t T ' S r j L * # $ 5 r r 3 r r 5 r 5 5 r r 5 5 r r r c.c.c.c.c.c.c.c.c.c.c.",
"c.c.c.c.c.c.c.c.c.d A U c.c.r r j S f t j r r S ' U r r K * # * 5 r r 5 r r r 3 5 r r 5 5 r r d c.7 c.c.c.c.c.c.c.c.c.c.",
"c.c.c.c.c.c.c.c.c.g r k U c.c.r r r t r t j t r Y ' S r H = # $ 3 r 2 3 r 5 5 5 r r r 5 r r a c.5 d c.c.c.c.c.c.c.c.c.c.",
"c.c.c.c.c.c.c.c.c.c.y 5 j K ` D f r r r r t r r j T K j A 2 * * 5 2 < r r 5 r r r r 5 r d c.5 5 r c.c.c.c.c.c.c.c.c.c.c.",
"c.c.c.c.c.c.c.c.c.c.c.r r t S T R S r 3 r r r 5 r S U A j G 2 2 3 1 2 5 5 5 r r r 3 3 4 7 5 r r r c.c.c.c.c.c.c.c.c.c.c.",
"c.c.c.c.c.c.c.c.c.c.c.c.r r r j K ' U d 3 5 r r r r G A r A 5 3 2 2 2 2 5 5 r r r 5 3 5 5 r r g c.c.c.c.c.c.c.c.c.c.c.c.",
"c.c.c.c.c.c.c.c.c.c.c.c.c.c.y r r k U _ U j r 5 r 5 r j 3 r 3 5 3 3 2 2 5 r 5 5 r 5 r r r r r c.c.c.c.c.c.c.c.c.c.c.c.c.",
"c.c.c.c.c.c.c.c.c.c.c.c.c.c.c.c.r r r k L _ U S t 5 3 3 3 2 5 5 3 2 2 5 5 5 r r 5 r r r d c.c.c.c.c.c.c.c.c.c.c.c.c.c.c.",
"c.c.c.c.c.c.c.c.c.c.c.c.c.c.c.c.c.a r r r j S U U G j 2 2 2 w r 2 1 1 2 5 r 5 r r r y c.c.c.c.c.c.c.c.c.c.c.c.c.c.c.c.c.",
"c.c.c.c.c.c.c.c.c.c.c.c.c.c.c.c.c.c.d d d r r r i k A j 5 2 3 r 2 2 5 5 r r r r r g 7 c.c.c.c.c.c.c.c.c.c.c.c.c.c.c.c.c.",
"c.c.c.c.c.c.c.c.c.c.c.c.c.c.c.c.c.c.c.c.c.g 5 d d g r a 6 6 7 4 6 y d d d d r a c.c.c.c.c.c.c.c.c.c.c.c.c.c.c.c.c.c.c.c.",
"c.c.c.c.c.c.c.c.c.c.c.c.c.c.c.c.c.c.c.c.c.c.c.c.c.c.c.c.c.c.s c.c.c.c.c.c.c.c.c.c.c.c.c.c.c.c.c.c.c.c.c.c.c.c.c.c.c.c.c.",
"c.c.c.c.c.c.c.c.c.c.c.c.c.c.c.c.c.c.c.c.c.c.c.c.c.c.c.c.c.c.c.c.c.c.c.c.c.c.c.c.c.c.c.c.c.c.c.c.c.c.c.c.c.c.c.c.c.c.c.c.",
"c.c.c.c.c.c.c.c.c.c.c.c.c.c.c.c.c.c.c.c.c.c.c.c.c.c.c.c.c.c.c.c.c.c.c.c.c.c.c.c.c.c.c.c.c.c.c.c.c.c.c.c.c.c.c.c.c.c.c.c.",
"c.c.c.c.c.c.c.c.c.c.c.c.c.c.c.c.c.c.c.c.c.c.c.c.c.c.c.c.c.c.c.c.c.c.c.c.c.c.c.c.c.c.c.c.c.c.c.c.c.c.c.c.c.c.c.c.c.c.c.c.",
"c.c.c.c.c.c.c.c.c.c.c.c.c.c.c.c.c.c.c.c.c.c.c.c.c.c.c.c.c.c.c.c.c.c.c.c.c.c.c.c.c.c.c.c.c.c.c.c.c.c.c.c.c.c.c.c.c.c.c.c."
};
