/* XPM */
static char *result[] = {
/* columns rows colors chars-per-pixel */
"60 60 243 2 ",
"   c #942E08",
".  c #9B3507",
"X  c #95340B",
"o  c #9B350B",
"O  c #9B390C",
"+  c #983708",
"@  c #9D3613",
"#  c #943C12",
"$  c #9D3B13",
"%  c #9C3D1A",
"&  c #943815",
"*  c #A4350B",
"=  c #A23B0B",
"-  c #A5390A",
";  c #A23B12",
":  c #A23D19",
">  c #A03712",
",  c #B13E13",
"<  c #9E3E20",
"1  c #A03F21",
"2  c #99440E",
"3  c #9B411B",
"4  c #994518",
"5  c #8C4411",
"6  c #A4440B",
"7  c #A8450B",
"8  c #B6480D",
"9  c #AC520C",
"0  c #BD5B0E",
"q  c #B5550C",
"w  c #AC4414",
"e  c #AC4B15",
"r  c #AC4C1A",
"t  c #A44616",
"y  c #B44613",
"u  c #B34C13",
"i  c #BC4B13",
"p  c #B54B1A",
"a  c #AB5416",
"s  c #B55112",
"d  c #BB5312",
"f  c #BB541C",
"g  c #BD5D1D",
"h  c #B95817",
"j  c #9A4928",
"k  c #995336",
"l  c #96532F",
"z  c #AC4C22",
"x  c #A85629",
"c  c #B45B2B",
"v  c #B85823",
"b  c #A75C39",
"n  c #B3583C",
"m  c #BA6227",
"M  c #B86736",
"N  c #C64E09",
"B  c #C4530C",
"V  c #CC560C",
"C  c #C25B0D",
"Z  c #CC5B0C",
"A  c #C75706",
"S  c #D15A0C",
"D  c #DB5D0E",
"F  c #D5550A",
"G  c #C44D12",
"H  c #C55413",
"J  c #CB5413",
"K  c #C55B12",
"L  c #CB5B13",
"P  c #C25319",
"I  c #C45B1A",
"U  c #CB5B1C",
"Y  c #CC561A",
"T  c #D55915",
"R  c #CB640C",
"E  c #CD6A0E",
"W  c #D3650B",
"Q  c #DB6509",
"!  c #D36A0B",
"~  c #DB6B0D",
"^  c #C56213",
"/  c #CB6312",
"(  c #C4621E",
")  c #CB631C",
"_  c #CF6C1A",
"`  c #D16912",
"'  c #D26C1A",
"]  c #D86817",
"[  c #CC751A",
"{  c #D2731C",
"}  c #D37C1E",
"|  c #DB761B",
" . c #ED690B",
".. c #E46D0E",
"X. c #E3730B",
"o. c #ED7A0C",
"O. c #EA7709",
"+. c #F37C0B",
"@. c #F97D09",
"#. c #F37B06",
"$. c #E46D12",
"%. c #E96C14",
"&. c #F26C15",
"*. c #E4761B",
"=. c #EB741D",
"-. c #EC7B1C",
";. c #E87814",
":. c #F37C13",
">. c #F2791C",
",. c #C55D22",
"<. c #C36324",
"1. c #CC6523",
"2. c #CD6B24",
"3. c #C4642A",
"4. c #CB662A",
"5. c #CA6A2D",
"6. c #D26525",
"7. c #D26C24",
"8. c #D1672D",
"9. c #D16C2C",
"0. c #CB7527",
"q. c #D57324",
"w. c #DC7B23",
"e. c #D7762A",
"r. c #C46B37",
"t. c #D26930",
"y. c #CC7533",
"u. c #DB7C36",
"i. c #D77B39",
"p. c #E27524",
"a. c #EC7524",
"s. c #ED7A23",
"d. c #E2722A",
"f. c #EE7B2A",
"g. c #E57B29",
"h. c #F17524",
"j. c #F27B24",
"k. c #F17C2D",
"l. c #F87724",
"z. c #E77A38",
"x. c #F17F33",
"c. c #A95E41",
"v. c #A66748",
"b. c #BA734A",
"n. c #B16E48",
"m. c #C67B4A",
"M. c #D37642",
"N. c #C67E52",
"B. c #D56F4A",
"V. c #DB881F",
"C. c #EF840E",
"Z. c #F58205",
"A. c #F38109",
"S. c #F88109",
"D. c #EB8519",
"F. c #F4841C",
"G. c #F28B1C",
"H. c #F78816",
"J. c #FA921B",
"K. c #F5941A",
"L. c #DC812B",
"P. c #DD8434",
"I. c #DB833A",
"U. c #DA8738",
"Y. c #DA903D",
"T. c #EC8323",
"R. c #ED8C26",
"E. c #E5852A",
"W. c #EC832B",
"Q. c #E68B2D",
"!. c #E78827",
"~. c #F38324",
"^. c #F48A24",
"/. c #FA8C23",
"(. c #F48D2C",
"). c #F98D2B",
"_. c #F58229",
"`. c #ED922C",
"'. c #EA9426",
"]. c #F39524",
"[. c #F4932A",
"{. c #FA932A",
"}. c #FC9B2D",
"|. c #F89926",
" X c #E18235",
".X c #E5823B",
"XX c #EC853C",
"oX c #E58A3B",
"OX c #EB8C3C",
"+X c #E98932",
"@X c #F18334",
"#X c #F2843B",
"$X c #F48B38",
"%X c #EC9334",
"&X c #E89639",
"*X c #F79434",
"=X c #F49A35",
"-X c #FB9C33",
";X c #FA9A3A",
":X c #F59739",
">X c #FAA12C",
",X c #F7A338",
"<X c #EFA338",
"1X c #CA824F",
"2X c #D8884B",
"3X c #CA8353",
"4X c #C88456",
"5X c #D38A56",
"6X c #DA9356",
"7X c #E68C44",
"8X c #E79545",
"9X c #F49946",
"0X c #EA9C57",
"qX c #E98948",
"wX c #F5A447",
"eX c #F7A858",
"rX c #FAB45B",
"tX c #EFAE5F",
"yX c #D9986A",
"uX c #E3986B",
"iX c #DBA56A",
"pX c #E8A666",
"aX c #F6A864",
"sX c #FBBB6A",
"dX c #FAB765",
"fX c #F9BC78",
"gX c #F1B178",
"hX c #F9C37B",
"jX c #EFBC8C",
"kX c #F9C584",
"lX c #E7C39F",
"zX c #F9CA97",
"xX c #F9D5A8",
"cX c #F6CEAB",
"vX c #F7E1BF",
"bX c #F8DBC5",
"nX c #EDD5C2",
"mX c #FAE4C4",
"MX c #F7E8D6",
"NX c #F8F0DE",
"BX c #F8F6E7",
"VX c #FAFAF7",
"CX c None",
/* pixels */
"CXCXCXCXCXCXCXCXCXCXCXCXCXCXCXCXCXCXCXCXCXCXCXCXCXCXCXCXCXCXCXCXCXCXCXCXCXCXCXCXCXCXCXCXCXCXCXCXCXCXCXCXCXCXCXCXCXCXCXCX",
"CXCXCXCXCXCXCXCXCXCXCXCXCXCXCXCXCXCXCXCXCXCXCXCXCXCXCXCXCXCXCXCXCXCXCXCXCXCXCXCXCXCXCXCXCXCXCXCXCXCXCXCXCXCXCXCXCXCXCXCX",
"CXCXCXCXCXCXCXCXCXCXCXCXCXCXCXCXCXCXCXCXCXCXCXCXCXCXCXCXCXCXCXCXCXCXCXCXCXCXCXCXCXCXCXCXCXCXCXCXCXCXCXCXCXCXCXCXCXCXCXCX",
"CXCXCXCXCXCXCXCXCXCXCXCXCXCXCXCXCXCXCXCXCXCXCXCXCXCXCXCXCXCXCXCXCXCXCXCXCXCXCXCXCXCXCXCXCXCXCXCXCXCXCXCXCXCXCXCXCXCXCXCX",
"CXCXCXCXCXCXCXCXCXCXCXCXCXCXCXCXCXCXCXCXCXCXCXCXCXCXCXCXCXCXCXCXCXCXCXCXCXCXCXCXCXCXCXCXCXCXCXCXCXCXCXCXCXCXCXCXCXCXCXCX",
"CXCXCXCXCXCXCXCXCXCXCXCXCXCXCXCXCXCXCXCXCXCXCXCXCXI S L ,.c CXCXCXCXCXCXCXCXCXCXCXCXCXCXCXCXCXCXCXCXCXCXCXCXCXCXCXCXCXCX",
"CXCXCXCXCXCXCXCXCXCXCXCXCXCXCXCXCXCXCXCXCXCXCX3.T D Q Q Q F S ,.CXCXCXCXCXCXCXCXCXCXCXCXCXCXCXCXCXCXCXCXCXCXCXCXCXCXCXCX",
"CXCXCXCXCXCXCXCXCXCXCXCXCXCXCXCXCXCXCXCXCXCXg Z X.H.H.H.].R.*.7.<.CXCXCXCXCXCXCXCXCXCXCXCXCXCXCXCXCXCXCXCXCXCXCXCXCXCXCX",
"CXCXCXCXCXCXCXCXCXCXCXCXCXCXCXCXCXCXCXCXCXg S o.H.+. .@XeXaXrXeX6XM.CXCXCXCXCXCXCXCXCXCXCXCXCXCXCXCXCXCXCXCXCXCXCXCXCXCX",
"CXCXCXCXCXCXCXCXCXCXCXCXCXCXCXCXCXCXCXCX,.T C.H.&. .;.9XeXaXjXbXmXlXyX4XCXCXCXCXCXCXCXCXCXCXCXCXCXCXCXCXCXCXCXCXCXCXCXCX",
"CXCXCXCXCXCXCXCXCXCXCXCXCXCXCXCXCXCXCXCXT -.].>.&.:.F.wXeXaXzXbXbXbXcXuX5XCXCXCXCXCXCXCXCXCXCXCXCXCXCXCXCXCXCXCXCXCXCXCX",
"CXCXCXCXCXCXCXCXCXCXCXCXCXCXCXCXCXCXCXP e.|.W.j.^.J./.9XeXeXpX0XoXP.i.9.e. XCXCXCXCXCXCXCXCXCXCXCXCXCXCXCXCXCXCXCXCXCXCX",
"CXCXCXCXCXCXCXCXCXCXCXCXCXCXCXCXCXCXb g R.).l./.^.^.$X9XrXdXzXNXNXnXlXiXr.z p <.u.CXCXCXCXCXCXCXCXCXCXCXCXCXCXCXCXCXCXCX",
"CXCXCXCXCXCXCXCXCXCXCXCXCXCXCXCXCXCXc w.|.j.).}.}.)._.OXeXdXfXxXBXVXVXVXzX8XM z p 0.CXCXCXCXCXCXCXCXCXCXCXCXCXCXCXCXCXCX",
"CXCXCXCXCXCXCXCXCXCXCXCXCXCXCXCXCXb ) [.^.[.>X=X[.F.(.).9XrXdXsXzXvXVXMXfXdX0XB.r CXCXCXCXCXCXCXCXCXCXCXCXCXCXCXCXCXCXCX",
"CXCXCXCXCXCXCXCXCXCXCXCXCXCXCXCXCXc g.{.{.}.-X^.j.s.>.h.j.fXxXsXrXhXBXBXxXhXzXuX5.CXCXCXCXCXCXCXCXCXCXCXCXCXCXCXCXCXCXCX",
"CXCXCXCXCXCXCXCXCXCXCXCXCXCXCXCXn <.[.>X}.{.j.s.a.a.s.j.[.xXBXfXaXgXMXVXBXxXVXnXt.c CXCXCXCXCXCXCXCXCXCXCXCXCXCXCXCXCXCX",
"CXCXCXCXCXCXCXCXCXCXCXCXCXCXCXCXv w.>X}.{.-.f.a.g.a.h._.).9XpXwXdXrXgXxXmXkXmXmXqXT CXCXCXCXCXCXCXCXCXCXCXCXCXCXCXCXCXCX",
"CXCXCXCXCXCXCXCXCXCXCXCXCXCXCXc.m (.>X{.-.@XXXz.!.f.a.j.>.=.$.C.,XrXaXaXsXsXsXsX*XD I CXCXCXCXCXCXCXCXCXCXCXCXCXCXCXCXCX",
"CXCXCXCXCXCXCXCXCXCXCXCXCXCXCXx 7.}.}._.k.#XqX.X%Xw.p.f.j.a.*.+.+.j.#XeXrXdXrX;XJ.o.R CXCXCXCXCXCXCXCXCXCXCXCXCXCXCXCXCX",
"CXCXCXCXCXCXCXCXCXCXCXCXCXCXCXv T.-X/.x.#X#X XXXU.0.q.a.h.a.*.A.O. . .~.-X:Xf.(.C.-.~ U CXCXCXCXCXCXCXCXCXCXCXCXCXCXCXCX",
"CXCXCXCXCXCXCXCXCXCXCXCXCXCXz ,.|.}.j.x.qXXXI.oXU.i.q.a.h.p.F.A.O. . .>.}.).s.).].J.:.F CXCXCXCXCXCXCXCXCXCXCXCXCXCXCXCX",
"CXCXCXCXCXCXCXCXCXCXCXCXCXCXz 7.>XJ.k.#X#X.XP.U.Y.oXw.d.p.w.T.Z.#.$.=.`.].`.).^.{.}.J.Q U CXCXCXCXCXCXCXCXCXCXCXCXCXCXCX",
"CXCXCXCXCXCXCXCXCXCXCXCXCXCXr L.-XF.x.XX@XI.I.I.&X:XW._ 2.e.G.Z.O.$.-.'.|.].T.a.j.(.}.D.F CXCXCXCXCXCXCXCXCXCXCXCXCXCXCX",
"CXCXCXCXCXCXCXCXCXCXCXCXr.v u R.{.f.@X#X.Xi.I.oX:X[.R.'.&Xw.F.Z.O.] *.!.'.R.*.j.j.j.(.~.D U CXCXCXCXCXCXCXCXCXCXCXCXCXCX",
"CXCXCXCXCXCXCXCXCXCXCX<.T u f [.(.x.#X@X.Xi.U.%X;X*X`.,XY.V.G.Z.O.T | `.R.D.s.s.j.^.-.s.$.Y CXCXCXCXCXCXCXCXCXCXCXCXCXCX",
"CXCXCXCXCXCXCXCXCXCXv <.) 7 I *Xp.z..XXXz.u.+X*X-X*X[.=X=X=XG.A.#.$.h.h._.T.s.s._.{.{.{.T.T CXCXCXCXCXCXCXCXCXCXCXCXCXCX",
"CXCXCXCXCXCXCXCXCXCXr 1.( y / @X8.M.2X7X2XI.%X}.:X%X%X'.|.].D.#.#.%.>.h.a.p.-.j._.).).}.[.D U CXCXCXCXCXCXCXCXCXCXCXCXCX",
"CXCXCXCXCXCXCXCXCXCXt U ) U / u.M.M.5X5X2X8X:X=X=XQ.} R.G.D.C.S.+.X.=.a.{ Q.s.h.a.h.>.j.[.*.B CXCXCXCXCXCXCXCXCXCXCXCXCX",
"CXCXCXCXCXCXCXCXCXCXCXr I ' P.2Xm.5X6X3X5X8X9X;X=X!.{ ^./.!.E o.#.X.*.h.7.&XT.h.d.e.h.>.~.-.K CXCXCXCXCXCXCXCXCXCXCXCXCX",
"CXCXCXCXCXCXCXCXCXCXCXCX4 0 aXzXjXiX6X4X3X0XwX,X;X*XW.^.G.g.R o.@.O.$.a.1.&X+Xg.e.OXXXj.T.~.L CXCXCXCXCXCXCXCXCXCXCXCXCX",
"CXCXCXCXCXCXCXCXCXCXCXCXCXt h 0.8XeX9X%X+X:XwXwX;X/.G.D.K.C.C.+.@.X...=.2.`.@Xu.I.qXXXXX(.{./ 3.CXCXCXCXCXCXCXCXCXCXCXCX",
"CXCXCXCXCXCXCXCXCXCXCXCXCX1 & z r.r.9.y.e.L.Q.Q.Q.L.| [ [ X.D.C.#.o...] 2.[.+Xy.8XOXXXqX,X|.] Y CXCXCXCXCXCXCXCXCXCXCXCX",
"CXCXCXCXCXCXCXCXCXCXCXCXCXt O v y.4XN.N.3X2X7X&Xy.U.y.a m [ 0 C.+.X...] 6.Q.P.Y.wXoXz.u.:X].] Y CXCXCXCXCXCXCXCXCXCXCXCX",
"CXCXCXCXCXCXCXCXCXCXCXCXCX: . f t.1X4X4XN.2X2X6Xm.y.m l 2 a 9 o.#.Q $.T ) E.i.&X8Xi.M.P.oX'.~ J CXCXCXCXCXCXCXCXCXCXCXCX",
"CXCXCXCXCXCXCXCXCXCXCXCXCX: o p t.M b.b.1X1X1Xb.M y.1.a # # 9 Z.+.~ Q V / L.y.&XoXI.Y.<XwX*X$.S CXCXCXCXCXCXCXCXCXCXCXCX",
"CXCXCXCXCXCXCXCXCXCXCXCXCX1 O w 4.c b n.N.4X4Xb.M r.<.s 2 # 0 o.~ V N N L q. XoXoX,X,XwX&X(.%.S CXCXCXCXCXCXCXCXCXCXCXCX",
"CXCXCXCXCXCXCXCXCXCXCXCXCXj X - ( x k v.v.m.m.r.M x g e # 5 ^ R H B N A / '  Xi.I.&X&X&X XG.$.Z P.CXCXCXCXCXCXCXCXCXCXCX",
"CXCXCXCXCXCXCXCXCXCXCXCXCXj @ . f v k k k b M M m m m h 9 q K A B W W W S ` 9.3.y. X XOX*XJ.~ F OXCXCXCXCXCXCXCXCXCXCXCX",
"CXCXCXCXCXCXCXCXCXCXCXCXCXCX: X w P x k l l c 3.3.m <.0 ^ R A Z Q X.X.;.~ / e.q.2.g.x.x././.~ ` CXCXCXCXCXCXCXCXCXCXCXCX",
"CXCXCXCXCXCXCXCXCXCXCXCXCXCX% o , U c l l x m 4.4.4.5.h 7 q L ~ #.Z.Z.o.O.;.*.p.q.p.j.a.&.:.Q CXwXE.CXCXCXCXCXCXCXCXCXCX",
"CXCXCXCXCXCXCXCXCXCXCXCXCXCX% o , Y U c c c t.8.4.8.4.v e e B W o.#.S.Z.+.H.H.~.$.a.j.=.&.:.*.=X/.*.CXCXCXCXCXCXCXCXCXCX",
"CXCXCXCXCXCXCXCXCXCXCXCXCXCX3 $ ; J J 1.9.9.8.8.t.8.6.P u s 0 R ! ~ C.K.K.K.J.^.*.a.h.%.+.H.[.|.g.CXCXCXCXCXCXCXCXCXCXCX",
"CXCXCXCXCXCXCXCXCXCXCXCXCXCXCX% O i T J U 6.8.8.8.6.U d d d / W ! ' [ V.D.'.D.;.a.=.&.S.J.|.}.E.CXCXCXCXCXCXCXCXCXCXCXCX",
"CXCXCXCXCXCXCXCXCXCXCXCXCXCXCX% = ; G V J U 6.U 6.U H d d K R ! ` { 0.V.V.[ R V T T %.|.>X[.q.CXCXCXCXCXCXCXCXCXCXCXCXCX",
"CXCXCXCXCXCXCXCXCXCXCXCXCXCXCXCX= o = B J P J J J P i d 0 R ! ` { [ [ [ q./ C C L ' W.(.| s l CXCXCXCXCXCXCXCXCXCXCXCXCX",
"CXCXCXCXCXCXCXCXCXCXCXCXCXCXCXCX3 $ X i d y i G N 8 u h 0 E E ' q.0.0._ ) h f f r 6 2 t O 5 CXCXCXCXCXCXCXCXCXCXCXCXCXCX",
"CXCXCXCXCXCXCXCXCXCXCXCXCXCXCXCXCX; O w - * , G G P 7 s 0 R / I g g h 9 8 8 i y e + 4 t a CXCXCXCXCXCXCXCXCXCXCXCXCXCXCX",
"CXCXCXCXCXCXCXCXCXCXCXCXCXCXCXCXCX% = o O - P J J P 6 6 q q ^ _ / / N B J V L P : . ; O x CXCXCXCXCXCXCXCXCXCXCXCXCXCXCX",
"CXCXCXCXCXCXCXCXCXCXCXCXCXCXCXCXCXCX: ; o o r = i y O 6 9 q ) ] R B J G P i 8 * @ @ ; 4 CXCXCXCXCXCXCXCXCXCXCXCXCXCXCXCX",
"CXCXCXCXCXCXCXCXCXCXCXCXCXCXCXCXCXCXCX% ; * * O   = e 6 9 8 C K B B i * . o X > - % j CXCXCXCXCXCXCXCXCXCXCXCXCXCXCXCXCX",
"CXCXCXCXCXCXCXCXCXCXCXCXCXCXCXCXCXCXCXCX% : - o   t 8 . = . . u P i .   X X @ % @ CXCXCXCXCXCXCXCXCXCXCXCXCXCXCXCXCXCXCX",
"CXCXCXCXCXCXCXCXCXCXCXCXCXCXCXCXCXCXCXCXCXCX% : 2 O O w X & X   o   X o @ @ = % CXCXCXCXCXCXCXCXCXCXCXCXCXCXCXCXCXCXCXCX",
"CXCXCXCXCXCXCXCXCXCXCXCXCXCXCXCXCXCXCXCXCXCXCXCX@ : $ $ @ > @ > > O $ % < < CXCXCXCXCXCXCXCXCXCXCXCXCXCXCXCXCXCXCXCXCXCX",
"CXCXCXCXCXCXCXCXCXCXCXCXCXCXCXCXCXCXCXCXCXCXCXCXCXCXCX: ; % % 3 3 % CXCXCXCXCXCXCXCXCXCXCXCXCXCXCXCXCXCXCXCXCXCXCXCXCXCX",
"CXCXCXCXCXCXCXCXCXCXCXCXCXCXCXCXCXCXCXCXCXCXCXCXCXCXCXCXCXCXCXCXCXCXCXCXCXCXCXCXCXCXCXCXCXCXCXCXCXCXCXCXCXCXCXCXCXCXCXCX",
"CXCXCXCXCXCXCXCXCXCXCXCXCXCXCXCXCXCXCXCXCXCXCXCXCXCXCXCXCXCXCXCXCXCXCXCXCXCXCXCXCXCXCXCXCXCXCXCXCXCXCXCXCXCXCXCXCXCXCXCX",
"CXCXCXCXCXCXCXCXCXCXCXCXCXCXCXCXCXCXCXCXCXCXCXCXCXCXCXCXCXCXCXCXCXCXCXCXCXCXCXCXCXCXCXCXCXCXCXCXCXCXCXCXCXCXCXCXCXCXCXCX",
"CXCXCXCXCXCXCXCXCXCXCXCXCXCXCXCXCXCXCXCXCXCXCXCXCXCXCXCXCXCXCXCXCXCXCXCXCXCXCXCXCXCXCXCXCXCXCXCXCXCXCXCXCXCXCXCXCXCXCXCX",
"CXCXCXCXCXCXCXCXCXCXCXCXCXCXCXCXCXCXCXCXCXCXCXCXCXCXCXCXCXCXCXCXCXCXCXCXCXCXCXCXCXCXCXCXCXCXCXCXCXCXCXCXCXCXCXCXCXCXCXCX"
};
