/* XPM */
static char *result[] = {
/* columns rows colors chars-per-pixel */
"60 60 224 2 ",
"   c #79291E",
".  c #76261F",
"X  c #752526",
"o  c #7B2627",
"O  c #753031",
"+  c #6E2628",
"@  c #812C1E",
"#  c #9E3E2D",
"$  c #9E3D32",
"%  c #9E3E38",
"&  c #A43D24",
"*  c #A23C2C",
"=  c #AC3D2C",
"-  c #A93D26",
";  c #B23F27",
":  c #A33B31",
">  c #AA3F31",
",  c #A33A3A",
"<  c #B7461F",
"1  c #BB451D",
"2  c #BC481B",
"3  c #BA4919",
"4  c #9E4026",
"5  c #9C412E",
"6  c #97442A",
"7  c #9C4232",
"8  c #974839",
"9  c #AC4324",
"0  c #AF4B24",
"q  c #A3422B",
"w  c #AC422B",
"e  c #A44B2B",
"r  c #A94729",
"t  c #B34424",
"y  c #BB4522",
"u  c #B94B24",
"i  c #B2422B",
"p  c #B54A22",
"a  c #AC552B",
"s  c #B8582B",
"d  c #A24333",
"f  c #AD4C33",
"g  c #A74636",
"h  c #B34C34",
"j  c #AD5434",
"k  c #B25833",
"l  c #AF6032",
"z  c #B96832",
"x  c #C74F0F",
"c  c #CC4D0D",
"v  c #D64E04",
"b  c #DA4D04",
"n  c #D34D0B",
"m  c #DA4D0A",
"M  c #CF5104",
"N  c #CD500C",
"B  c #D35104",
"V  c #DB5106",
"C  c #D4510B",
"Z  c #DD510A",
"A  c #D95C0C",
"S  c #C34B15",
"D  c #CA4C13",
"F  c #C3461C",
"G  c #C24A1B",
"H  c #C94B19",
"J  c #C34614",
"K  c #D34D13",
"L  c #DA4F12",
"P  c #D14A18",
"I  c #D84D18",
"U  c #CE5318",
"Y  c #D35111",
"T  c #DD5214",
"R  c #D5571A",
"E  c #E24D06",
"W  c #E94D06",
"Q  c #E44E0A",
"!  c #EC4E0B",
"~  c #F44F0C",
"^  c #FC4E0D",
"/  c #E4510A",
"(  c #EC520B",
")  c #F4510D",
"_  c #FC510E",
"`  c #E34D13",
"'  c #EC4F11",
"]  c #E24F19",
"[  c #EF4F1D",
"{  c #F74E12",
"}  c #FD4E11",
"|  c #E15011",
" . c #EB5312",
".. c #E4571D",
"X. c #F45211",
"o. c #FB5111",
"O. c #F8521A",
"+. c #DB610C",
"@. c #D56816",
"#. c #DE751B",
"$. c #CF661B",
"%. c #FB6012",
"&. c #F97418",
"*. c #E97618",
"=. c #D34C24",
"-. c #CF532F",
";. c #D35527",
":. c #D05533",
">. c #F35923",
",. c #EC5727",
"<. c #C76828",
"1. c #DE7D25",
"2. c #DB7F29",
"3. c #D47924",
"4. c #C87C39",
"5. c #C67738",
"6. c #CB702C",
"7. c #E27F21",
"8. c #E8662C",
"9. c #A53B46",
"0. c #994C41",
"q. c #9A5046",
"w. c #A14944",
"e. c #A55052",
"r. c #C87D40",
"t. c #E67245",
"y. c #DD851C",
"u. c #EF981D",
"i. c #F29F1A",
"p. c #E48B1F",
"a. c #FAA61E",
"s. c #FAAC1B",
"d. c #F6A61E",
"f. c #CF8C2E",
"g. c #DB8328",
"h. c #CB8733",
"j. c #D48A3C",
"k. c #D89738",
"l. c #E48423",
"z. c #E68E23",
"x. c #E98D22",
"c. c #EA9728",
"v. c #F39C26",
"b. c #E79936",
"n. c #FB9F3F",
"m. c #F7873F",
"M. c #D9A73C",
"N. c #D3B834",
"B. c #F5A523",
"V. c #FDAA23",
"C. c #F6A428",
"Z. c #F6AC27",
"A. c #FAB32A",
"S. c #FABA2D",
"D. c #FDB527",
"F. c #E7AC3D",
"G. c #F2AB33",
"H. c #FBAF33",
"J. c #FCBB33",
"K. c #F4BA3A",
"L. c #FCBC3C",
"P. c #F7B53A",
"I. c #E9AB2F",
"U. c #DDC03A",
"Y. c #EFCE3A",
"T. c #FDC335",
"R. c #FCC53D",
"E. c #F7CD3C",
"W. c #FBCA3C",
"Q. c #F6C73A",
"!. c #F6D43B",
"~. c #FAD33E",
"^. c #FBDD3D",
"/. c #EDE13F",
"(. c #FBE335",
"). c #FBE63B",
"_. c #FBED3E",
"`. c #F5E439",
"'. c #FEF53D",
"]. c #FCF93D",
"[. c #F9F737",
"{. c #DF9843",
"}. c #F89842",
"|. c #CDAF47",
" X c #DBA955",
".X c #E6A442",
"XX c #F6BD41",
"oX c #FABC43",
"OX c #F2B643",
"+X c #E0BB46",
"@X c #F6C344",
"#X c #FCC542",
"$X c #F7CC41",
"%X c #FBCB43",
"&X c #FCCD4B",
"*X c #FBC24C",
"=X c #EED34F",
"-X c #FAD343",
";X c #FBDC43",
":X c #F5D947",
">X c #F2CD50",
",X c #E4C146",
"<X c #F5E444",
"1X c #FBE344",
"2X c #FCEC43",
"3X c #FCEC49",
"4X c #F9E44A",
"5X c #FEF543",
"6X c #F4FA42",
"7X c #FCF843",
"8X c #FDF54A",
"9X c #F4F94C",
"0X c #FAF94C",
"qX c #F7F442",
"wX c #F7EC58",
"eX c #EFFC50",
"rX c #FCF755",
"tX c #F5F954",
"yX c #FBF65E",
"uX c #F6F95B",
"iX c #EFF94B",
"pX c #FEF970",
"aX c #FBF889",
"sX c None",
/* pixels */
"sXsXsXsXsXsXsXsXsXsXsXsXsXsXsXsXsXsXsXsXsXsXsXsXsXsXsXsXsXsXsXsXsXsXsXsXsXsXsXsXsXsXsXsXsXsXsXsXsXsXsXsXsXsXsXsXsXsXsXsX",
"sXsXsXsXsXsXsXsXsXsXsXsXsXsXsXsXsXsXsXsXsXsXsXsXsXsXsXsXsXsXsXsXsXsXsXsXsXsXsXsXsXsXsXsXsXsXsXsXsXsXsXsXsXsXsXsXsXsXsXsX",
"sXsXsXsXsXsXsXsXsXsXsXsXsXsXsXsXsXsXsXsXsXsXsXsXsX>.sXsXsXsXsXsXsXsXsXsXsXsXsXsXsXsXsXsXsX9XsXsXsXsXsXsXsXsXsXsXsXsXsXsX",
"sXsXsXsXsXsXsXsXsXsXsXsXsXsXsXsXsXsXsXsXsXsXsXsXsXsXsXsXsXsXO.O.sXsXsXsXsXsXsXsXsXsXsXsXsX[.sXsXsXsXsXsXsXsXsXsXsXsXsXsX",
"sXsXsXsXsXsXsXsXsXsXsXsXsXsXsXsXsXsXsXsXsXsXsXsXsXsXsXsX,.| ( ^ o.sXsXsXsXsXsXsXsXsXsXsXsX[.sXsXsXsXsXsXsXsXsXsXsXsXsXsX",
"sXsXsXsXsXsXsXsXsXsXsXsXsXsXsXsXsXsXsXsXsXsXsXsXsXsX..o. .m ) { O.sXsXsXsXsXsXsXsXsXsXsXsXsXsXsXsXsXsXsXsXsXsXsXsXsXsXsX",
"sXsXsXsXsXsXsXsXsXsXsXsXsXsXsXsXsXsXsXsXsXsXsXsXsXT ) ) V E X.B K sXsX8.sXsXsXsXsXsXsXsXsXsXsXsXsXsXsXsXsXsXsXsXsXsXsXsX",
"sXsXsXsXsXsXsXsXsXsXsXsXsXsXsXsXsXsXsXsXsXsXsXR n / ) ) B ` P c ..sXsXsXsXsXsXsXsXsXsXsXsXsXsXsXsXsXsXsXsXsXsXsXsXsXsXsX",
"sXsXsXsXsXsXsXsXsXsXsXsXsXsXsXsXsXsXsXsXsXsXsXm b ! ) / b ] 9 - h sXsXsXsXsXsXsXsXsX7XsXsXsXsXsXsXsXsXsXsXsXsXsXsXsXsXsX",
"sXsXsXsXsXsXsXsXsXsXsXsXsXsXsXsXsXsXsXsXsXsXU v b X.) b E  .` y 8 sXsXsXsXsXsXsXsXsX].yX0XsXsXsXsXsXsXsXsXsXsXsXsXsXsXsX",
"sXsXsXsXsXsXsXsXsXsXsXsXsXsXsXsXsXsXsXsXsXsXC B / o.! v B V ~ [ -.sXsXsXsXsXsXsXsX8X7X8X].sXsXsX6XsXsXsXsXsXsXsXsXsXsXsX",
"sXsXsXsXsXsXsXsXsXsXsXsXsXsXsXsXsXsXsXsXsXsXv b ( ^ ~ / v B m ( ) ] sXsXsXsXyXsX7X8X7X8XsXsXsXsX0XsXsXsXsXsXsXsXsXsXsXsX",
"sXsXsXsXsXsXsXsXsXsXsXsXsXsXsXsXsXsXsXsXsXY b ( _ _ } { b v v Q ~ ~ Q I sXrX5X'.8X7X_.5XsXsXsXsXsXsXsXsXsXsXsXsXsXsXsXsX",
"sXsXsXsXsXsXsXsXsXsXsXsXsXsXsXsXsXsXsXsXsXn b ( ^ ^ } } ~ Q  .~ } } ] $.!.8X5X7X].5X2X6XsXsXsXsXsXsXsXsXsXsXsXsXsXsXsXsX",
"sXsXsXsXsXsXsXsXsXsXsX>.sXsXsX>.sXsXsXsXsXv v E ^ ^ o.~ { ) X.o.) ' I M.8X7X5X5X'.'.'.sXsXsXsXsXsXsXsXsXsXsXsXsXsXsXsXsX",
"sXsXsXsXsXsXsXsXsXsXsXO.sXsXsXsXsXsXsXsXc E b E ~ ^ ) ! ! o.o.X./ m @.^.7X5X2X_.5X5X'.1XsXsXsXsXsXsXsXsXsXsXsXsXsXsXsXsX",
"sXsXsXsXsXsXsXsXsXsXsXsXsXsXO o o o X @ S v v B / _ _ _ ) ) ( Q Q ! 2.2XqX2X2X2X5X2X(.`.sXsXsXsXsXsXsXsXsXsXsXsXsXsXsXsX",
"sXsXsXsXsXsXsXsXsXsXsXsXsXsXsX+ X o X o & b v v E X._ _ / / ( X.o.` 6.2X'.7XqX`.(.(.`.I.d 6 sXsXsXsXsXsXsXsXsXsXsXsXsXsX",
"sXsXsXsXsXsXsXsXsXsXtXsXsXsXsXsXsXX   X   3 m B b ~ ~ _ ) ^ } ^ o.C a +XN./.<X:X!.!.c.@.p : sXsXsXsXsXsXsXsXsXsXsXsXsXsX",
"sXsXsXsXsXsXsXsXsXsXsXsXsXsXsXsXsXsXsXsXsXsXsXm b *._ ~ ^ _ _ _ ) =.w d z F.f.h.b.@.n v H w # sXsXsX0.sXsXsXsXsXsXsXsXsX",
"sXsXsXsXsXsXsXsXsXsXsXsXsXsXsXsXsXsXsXsXsXsXsX;.8.R.&.} _ ^ o._ ) X.=.- d d 4 u T m b b v J - sXsXsXq.sXsXsXsXsXsXsXsXsX",
"sXsXsXsXsXsXsXsXsXsXsXsXsXsXsXsXsXsXsXsXsXsXsXt.m.1XA.~ _ ^ o._ ^ ^ ) D 9 9 2 / ) o.( B M m F # sXsXsXsXsXsXsXsXsXsXsXsX",
"sXsXsXsXsXsXsXsXsXsXsXsXsXsX7XsXsXsX7X7XsX9XqX}.n.'.).&.^ ^ _ _ ~ } O.Q M D T ) _ ^ _ Z v v n 0 8 sXsXsXsXsXsXsXsXsXsXsX",
"sXsXsXsXsXsXsXsXsXsXsXsXsXsX7X7X0X].7X8XyX7X5X;X$X5X5XH.^ ^ o._ ~ ~ X. .( / ( X._ ^ o. .m v b K r sXsXsXsXsXsXsXsXsXsXsX",
"sXsXsXsXsXsXsXsXsXsXsXsXsXsXsX7X5X7X'.5X7X7X7X7X5X5X5X3Xv.o.)  ./ ) { Q ( o._ ^ _ ~ X.Q / b v v H d w.sXsXsXsXsXsXsXsXsX",
"sXsXsXsXsXsXsXsXsXsX@XoXsXsXsX3X7X7X'.7X7X7X7X8X5X5X5X5X8X-Xy.B Z / v v ) o.o.^ ) Q ( } ) V v b P = $ sXsXsXsXsXsXsXsXsX",
"sXsXsXsXsXsXsXsXsXsXsX#XR.*X X+X7X7X5X7X7X7X7X5X8X8X'.5X7X7X1Xp.V Z b b ) ^ } ^ W Z { ^ ~ m b b S : sXsXsXsXaXsXsXsXiXsX",
"sXsXsXsXsXsXtXsXsXsXsX*XT.W.#X#X1X2X2X5X'.7X5X5X7X].'.8X5X].7X^.z.V m b X._ ^ ~ Q ! } _ ! b b B 1 $ sXsXsXrXpXsXsXsX6XsX",
";.sXsXsXsXsXsXsXsXsXsX$.c.#XW.R.W.^.;X;X5X5X8X5X].'.3X;X5X'.5X1XR.c.A Q _ _ o.) / ~ ^ _ W v b C t 7 sXsX0X7XyXsXsXsXsXsX",
"sXsXsXsXsXsXsXsXsXsXT v A x.R.#XR.#X&X%X!.5X].7X2X3X~.^.7X7X8X1XW.K.#.W _ _ _ ) ) X.! W b b c G - * h sXtX'.7XsXsXsXsXsX",
"sXsXsX;.sXsXsXsXsXK C b b / P.R.#X&X#X#XW.1X8X1XE.%X!._.'.7X5X-XL.l.V W _ _ { ) } _ ) b K 2 w w s 2.C.sX7X'.0XsXsXsXsXsX",
"sXsXsXsXsXsXsXsXT m B m b @.K.#X#X@X$XW.#XW.~.W.#X%X1X7X7X'.3X#Xl.b b W ^ ^ _ ) ^ _ ) m y & s g.a.P.@XwX8X5XsXsXsXsXsXsX",
"sXsXsXsX:.;.sXsXK m v b v A K.#X#X#XR.#X#X#X@X-X~.1X5X5X_.).%X7.v b b W _ ) ) _ ~ ~ m p * s B.S.L.#X%X_.7X7XsXsXsXsXsXsX",
"sXsX0.w i q sXi S b v v b A P.#XR.W.;X;X-X-X;X3X_.5X5X5X).%Xb.V b b B V W ( _ _ ) W x 7 , y.J.W.%X-X1X7X7X8XsXsXsXsXsXsX",
"sXsXsXd = q sX, 0 c v b b v 1.XXW.R.;X3X3X_.5X7X7X7X3X;XW.&Xb.v V b Q ( W ! } W ( / y $ s d.T.R.W.3X5X7X7X8XsXsXsXsXsXsX",
"sXsXsXsXsXsX6 i G 3 D b b b m 2..XOXR.R.%X1X_._.).;X-XQ.R.oXl.v b V ) _ ^ } ~  .( Y = - 3.A.R.R.-X5X].7X].].sXsXsXuXsXsX",
"sXsXsXsXsXsX# 9 2 9 G b b v b K 0 a 5.k.K.W.%X%X#X#XR.T.G.#.A v B W o._ _ ^ ( W ( H * f v.D.R.R.1X8X].7X5XrXsXsXsXsXsXsX",
"sXsXsXsXsXsX, 7 5 i S B c J n v F = $ # k 4..XG.j.{.G.x.A b b v M E } ^ _ _ E b B y # 6.V.J.#XR.<X8X7X].rXsXsXsXsXsXsXsX",
"sXsXsX7X|.7 q & , : = = = * 1 m v c D G < t r j w G C m v v b E ( ! ) _ ^ _ Q v D w q z.V.R.#XW.2X5X5X8XsXsXsXsXsXsXsXsX",
"sXsXsX8X<XU.U.M.k # $ : * # * F n b v v v n n c H v V b b M B ( _ ) ) o.^ ~ Q v H * s a.D.R.#XW.;X`.2X0XsXsXsXsXsXsXsXsX",
"sXsXsX0X].7X].5X>Xj.k * * : # w D B b v v v v b b v V b / Z b ~ _ ^ ^ ^ { ! B b c q 6.V.J.R.#XW.W.1X4XsXsXsXsXsXsXsXsXsX",
"sXsXsX7X8X7X7X8X'.!.OXj.a : $ - 1 C V Z / E b v b E ! ) ) ) ~ _ _ ^ ^ ! n C S H S w z.V.T.R.#XQ.%XW.sXsXsXsXsXsXsXsXsXsX",
"sXsXsX8X5X5X7X8X8X2X^.R.{.f $ * > J B b ) X.~ / W ) } ^ _ _ _ _ ^ ^ ~ b B 2 $ y x s d.A.R.#X#XT.L.H.sXsXsXsXsXsXsXsXsXsX",
"sXsXsX0X'.7X].8X8X7X).#XoXh.e # : w N b ~ ^ } o.^ ~ o.^ _ _ ^ _ ~ ) b v n D t u 2 <.s.S.#X#X#XS.a.sXsXsXsXsXsXsXsXsXsXsX",
"sXsXsXtX5X].'.].7X7X1XR.R.oXr.d * $ 3 m Q } _ o.} o.~ } _ _ ^ ^ ) / v b n c Y G w g.s.L.#X#XJ.a.Z.sXsXsXsXsXsXsXsXsXsXsX",
"sXsXsXsXsXrX6X8X7X7X5X;XQ.R.k.5 # # t c m _ ^ _ } ~ E ~ _ _ ^ ~ Q b Q Q C n m m 0 c.s.J.R.S.V.a.sXsXsXsXsXsXsXsXsXsXsXsX",
"sXsXsXsXsXsXsXwX2X'.].2XE.R.L.z 5 4 2 v Z ~ _ o.} _ _ ~ ) W _ ^ ! ) } ~ b m v F f c.u.C.A.d.d.sXsXsXsXsXsXsXsXsXsXsXsXsX",
"sXsXsXsXsXsXsXsX=X;X1X7X^.R.#X.X7 & D b b ! ( ) o.} } o.) W ) _ ^ ^ ^ ^ m H N ; * y.u.C.z.c.Z.sXsXsXsXsXsXsXsXsXsXsXsXsX",
"sXsXsXsXsXsXsXsXsX$XW.-X&XQ.R.XX5.= U v b m v v b Z Q ( ~ _ ^ _ } ~ ) { / C p 5 $ s l.<.2.B.sXsXsXsXsXsXsXsXsXsXsXsXsXsX",
"sXsXsXsXsXsXsXsXsXsXQ.T.R.R.R.f.5.f t D b b v v v v v v Q ) ^ ) Q E m C m n H 3 9 * q % j sXsXsXsXsXsXsXsXsXsXsXsXsXsXsX",
"sXsXsXsXsXsXsXsXsXsXsX@XK.R.XX4.% & * 2 b b v v b b v v Q / / b b b n N K n H 1 > , - w z sXsXsXsXsXsXsXsXsXsXsXsXsXsXsX",
"sXsXsXsXsXsXsXsXsXsXsXsXsX5.4.r $ * $ - J c v b v v v v b b B b v b n N K 2 & : # : # a sXsXsXsXsXsXsXsXsXsXsXsXsXsXsXsX",
"sXsXsXsXsXsXsXsXsXsXsXsXsXsX6 $ * # 7 $ * - < x n n n m C c x D 1 p p 9 9 # # & q 5 8 sXsXsXsXsXsXsXsXsXsXsXsXsXsXsXsXsX",
"sXsXsXsXsXsXsXsXsXsXsXsXsXsXsXsX, # # - * # $ * w = t ; w w * : : * : $ $ $ * 7 8 sXe.sXsXsXsXsXsXsXsXsXsXsXsXsXsXsXsXsX",
"sXsXsXsXsXsXsXsXsXsXsXsXsXsXsXsXsXsX7 7 $ * * * # # # & * * * $ * # 5 * 7 q , sXsXsXsXsXsXsXsXsXsXsXsXsXsXsXsXsXsXsXsXsX",
"sXsXsXsXsXsXsXsXsXsXsXsXsXsXsXsXsXsXsXsX$ : * : # * : : : : * , $ 8 g : sXd 8 sXsXsXsXsXsXsXsXsXsXsXsXsXsXsXsXsXsXsXsXsX",
"sXsXsXsXsXsXsXsXsXsXsXsXsXsXsXsXsXsXsXsXsX* 5 sX$ : sXsXsXsX: sXsXsX9.sXsX7 8 sXsXsXsXsXsXsXsXsXsXsXsXsXsXsXsXsXsXsXsXsX",
"sXsXsXsXsXsXsXsXsXsXsXsXsXsXsXsXsXsXsXsXsX* d sXsXsXsXsXsXsXsXsXsX7 , sXsX: 5 sXsXsXsXsXsXsXsXsXsXsXsXsXsXsXsXsXsXsXsXsX",
"sXsXsXsXsXsXsXsXsXsXsXsXsXsXsXsXsXsXsXsXsX$ sXsXsXsXsXsXsXsXsXsXsXsX# sXsXsXsXsXsXsXsXsXsXsXsXsXsXsXsXsXsXsXsXsXsXsXsXsX",
"sXsXsXsXsXsXsXsXsXsXsXsXsXsXsXsXsXsXsXsXsXw.sXsXsXsXsXsXsXsXsXsXsXsXsXsXsXsXsXsXsXsXsXsXsXsXsXsXsXsXsXsXsXsXsXsXsXsXsXsX"
};
