/* XPM */
static char *result[] = {
/* columns rows colors chars-per-pixel */
"60 60 107 2 ",
"   c #EC5B15",
".  c #ED571C",
"X  c #E45C1D",
"o  c #ED591D",
"O  c #F25716",
"+  c #F15817",
"@  c #F2561D",
"#  c #F0591D",
"$  c #EA621D",
"%  c #DC5C24",
"&  c #D75D29",
"*  c #DB5C2C",
"=  c #E75724",
"-  c #EE5722",
";  c #E55C22",
":  c #EC5B21",
">  c #E35E2B",
",  c #EB5E2A",
"<  c #F15622",
"1  c #F05A24",
"2  c #F05E2A",
"3  c #E25F33",
"4  c #EC5F30",
"5  c #F05E32",
"6  c #D96327",
"7  c #DD612B",
"8  c #DD692E",
"9  c #E46224",
"0  c #EC6024",
"q  c #E4632C",
"w  c #EA622B",
"e  c #E66A2B",
"r  c #ED692D",
"t  c #F06125",
"y  c #F1642D",
"u  c #E46331",
"i  c #EE6631",
"p  c #E76B34",
"a  c #EB6933",
"s  c #F26532",
"d  c #EF723B",
"f  c #ED6543",
"g  c #EE7444",
"h  c #E47D4D",
"j  c #EB7E4E",
"k  c #F17343",
"l  c #F27248",
"z  c #EB7E53",
"x  c #E4814E",
"c  c #E68454",
"v  c #EB8057",
"b  c #E58459",
"n  c #EC895D",
"m  c #E88563",
"M  c #EE9F78",
"N  c #F19E7B",
"B  c #E8A57D",
"V  c #EBAA86",
"C  c #EDAA8A",
"Z  c #F3A683",
"A  c #F2A983",
"S  c #F0A689",
"D  c #EFB496",
"F  c #EEBA97",
"G  c #E9B49C",
"H  c #F3B59E",
"J  c #F4B89B",
"K  c #F5B7A2",
"L  c #F4BDA4",
"P  c #F2B5A8",
"I  c #F7BFA8",
"U  c #F2BDB2",
"Y  c #E6C19F",
"T  c #F7C19F",
"R  c #F3C2A5",
"E  c #F5CAAC",
"W  c #F8CEAB",
"Q  c #F4D8AE",
"!  c #F6C5B0",
"~  c #F6CDB4",
"^  c #F7CDBC",
"/  c #F8CCBB",
"(  c #F6D3BC",
")  c #F0D9BF",
"_  c #F6CDC4",
"`  c #FACEC5",
"'  c #F6D4C1",
"]  c #F9D3C2",
"[  c #FADCC5",
"{  c #F5D4CC",
"}  c #F9D3CA",
"|  c #F7DECC",
" . c #F9DECB",
".. c #FCD5D0",
"X. c #F5DED2",
"o. c #FADED7",
"O. c #F4E1CC",
"+. c #F9E1CC",
"@. c #EFE2D4",
"#. c #F5E2D5",
"$. c #FAE3D4",
"%. c #F7E6D9",
"&. c #FCEADF",
"*. c #EFEEE5",
"=. c #F4EFEB",
"-. c #F6F2EA",
";. c #FBF5EC",
/* pixels */
"g o o o o o o o o o o # o o o o o o $ o o # o o o o : o : R J : : o o o o # o o o o o : # # $ # o : o o o o   1 o o o j ",
"g o o o o o o o o o o o o o o o o o o o o o o o o o o o o R J . o o o o o o o o o o o # o o o o o o o o o o o o o . . j ",
"g . o o o o   o o o o o o o o o o o o o o o o o o o 1 o o I J . o o # o o o o o o o o o o o : o o o o o o o o o o o . j ",
"g . o o o o o o o o o # o o o o o o   o o o o o o o o o o I J o o o o o o o o o o o o o o o o o o o o o o o o o o o . j ",
"g o o o o o o o o o o o o o o o o o o o o o o o o o . o # I J o o o o o o o o o o o o o o o o # # o o o o o o o o o . j ",
"g o o o o o o o o o o o # o o o o o o : o o o o o o - : o I J . o o o o o : o o o o o o o o o o o o o o o o o # o . . j ",
"g o o o o o o o o o o o o o o o o o o o o # o o o o o o o I J o o o o o o o o o o o o # o o o o o o o o o o o o o o . j ",
"g o o o o o o o o o o o o o o o o o o o o o o o o o o o o I J . o o o o o # o o o o o o o o o o o o o o o o o o o o . j ",
"g o o o o o o o o o o o o o o o o o o o o o o o o : o : . I J o # o o o o o o # o o o o o o o o o o o o o o o o o o o j ",
"g o o o o o o o o o o o o o o o o o o o o o o o o o . : o I J . o o o o o o o o o # : o o o o o o o o o o o # o o o . j ",
"d o o o o o o o o o o o o o o o o o o o # o o o o o < o o I J o o o o o o o o o o o o o o o o o o # o o o o o o o o . j ",
"g o o o o o o o o o o o o o o o o o o o o o o o o o o o o I J o o o o o o o o o o o o o o o o o o : o o o o o o # o . j ",
"g o o o o o o o o # o o o o o o o o o o o o o o o o : o o I J o o o o o o o o o o o o o o o o o o o o o o o o o o o . j ",
"g o . o # o o o o # # o o o # o # # # # # . # . o . o o o L J . o o o o # # # o # # # @ . . @ @ # # o o # o o o o @ @ j ",
"d o o o o o o o o o o # o o @ o o o o   o o o . o + @ o o T J o o o o o o o   o o o @ < . : < @ # o   o o o o o o o   z ",
"g : o : o o o o o : o < < < o o o : o : : X o : : o : o < R P : : = : ; o o = o X X : : o : o X ; X : : o o o X o X X z ",
"g . @ @ @ @ @ @ @ @ @ @ @ .   o . @ @ @ @ @ @ @ @ . o   . R J . . - @ @ @ @ @ @ @ o o o @ O @ . o < @ @ @ @ @ o @ . @ z ",
"c r i y s i i i i i i p a a p s s r i s r i s s i a p e a R L a a i a i s i i i s s r r s s y r i s s r i i i i i i r n ",
"o.|  .+. .+. .+. .+. .| {  .X... .+. . .+. . . . . .{ [ { =.-.| +.| |  .+. .+. . . .[  .X.X. .[  . . . .+.+.+.| | | +.%.",
"_ ( ] ] ] ] ] ] ] ] ] ] ` { -.o.] ] ] ] ] ] ] ] ] ] } ] ` ' ] ] } } ] ] ] ] ] ] ] ] ] ' %.-.{ ` ] ] ] ] ] ] ] ] ] ] ] ] ",
"u w w q w w w w w w w q w p Q V q , q w w q w w w q q q u q 0 q w w u w w w w q u w , q V E p u 0 q w w w w q w q w w 0 ",
"o . o . o o o . o . o o : 0 ' B o o . . . . o o o o o o . . o . o o . o o o # o - o @ X S ^ > @ . : o - o o . . o o o o ",
"o o o o o o o o o o o o o y ' N . o o o o o o o o o o o o o o o o o o o o o o o o o . o S ^ ; # o - o o o o o o o o o o ",
"o o o o o o o o o o @   # y ' N . o o o o o o o o o o o o o o o o o o o o o o o - o @ o S ^ , @   : o o o o o o o o o o ",
"o o o o o o o o o o # o o t ' N o o o # o o o o o o o o o o o o o o o o o o o o . o @ X C ^ 0 @ @ . o o o o o o o o o o ",
"o o o # o o o o o o o # - t ( N o o o o o o o o o o o o o o o o o o o o o o o o : o @ o S / w @ o : o o o o o o o o o o ",
"o o o o o o o o o o o o : y ] N . o o o o o o o o : # o o o # o o o o o o o o o - o @ o S / ; <   : o o o o o o : o o o ",
"o o o o o o o o o o o @ . 0 ' N . o o o o o o # o o o o o o o o o o o o o o # o o o @ : S / w # @ . o o o o o o o o o o ",
"o o o o o o o o o o o o : 0 ( N . o o o o o o o : o o o o o o o o o o o o o o o - o . o S ^ w < # - o o # o o o o o o o ",
"o o o # # o o o o o # o # y ' N . o o o o o o o o o o o o o o o o o o o o o o o o o . o S ^ ; #   : o o o o o o o o o o ",
"o o o : o o o o o o o . : t ( N . o o o o o o o # o o o o # o o o o o o o o o o o o @ o S ^ 0 @ @ o o o # : o o o o o o ",
"o o o o o o o o o o # o - t ( M . o o o o o o o o o o o o o o o o o o o o o o o - . . o S ^ q @ o - o o o o o o o o o o ",
"o o # o o o o o o o o # . y ] N . o o o o o # o o o o o o o o o o o o o o o o o : o @ o S ^ 9 @   : o o o o o o o o o o ",
"o o o o o o o o o o o . o 0 ' N . o o o o o o o o o o o o o o o o o o o o o o o o o @ . S ^ 0 @ o o o o o o # o o o o o ",
"o o : o : - : o o o : : o w } M . . . : o : : : o : : . : o o o . : : o o : : o O = o + Z ( 0 o ; @ . o o o : : : : : o ",
"o @ : # o o . o # - @ < . , { N . . : o o . . . @ o o < . : o o < . : @ < o o o @ : 1 @ S ^ # @ o @ @ : . < o . @ . o @ ",
"o o o o : o o o X o o     t ) N . o X o : o o o o : o o o ; o o o o o o o X o o o   O   C ' 0 @ o @ o o o : o o o o o o ",
"o o o # o o # o o o o o + 5 ) N @ o . o o o o o o o # o o o . @ o o o # o : o o - . + . C _ 9 @ . : o o o o o o . : # # ",
": 0 t : 0 : 0 t : 0 0 w 0 f ( N 1 t t 0 0 : : 0 : 0 : t 1 0 t t 0 0 1 0 1 0 t o 9 0 ; q A W e : $ 0 0 0 0 : o 0 : t 0 t ",
"^ / / / ^ ^ / / / / / / ~ ` =.o./ / / / / / ^ ~ / / / / ^ ^ / / / / / / / / / / ~ ~ ^ ~ O.*.~ _ ~ / / / / / ^ ^ / / / / ",
"&.$.$.$.$.$.$.$.$.$.$.$.+.$.o.#.$.$.$.$.$.$.$.$.$.$.$.$.$.;.;.$.$.$.$.$.$.$.$.$.$.$.o.o.#.@.X.o.+.$.$.$.$.$.$.$.$.$.$.&.",
"v p p p p p p p p a p p p p p p p p p p p p p p p p p a a ! L p p p p p p p p p p p p p p p a p p p p p p p p p p a p n ",
"g o o X o o o X o X o X X o o X X o X o o o o o o o . o o R J X o . o X o   o X o o o o o X o X o X o o . X . o o o . h ",
"g o o o X o o o o o o o o : o o o o o o o X X o o : o : # I J o X o o X o o : o o X X o o o o : o o X : o o o o o o O j ",
"g o o o o o o o o o o o o o o o o o o o o o o o o - o o o I J o o o o o o o o o o o o o o o o o o o o o o o o o o o o h ",
"g o o o o o o o o o o o o o o o @ : o o o o o o o o o = o I J o o o o o o o o o o o o o o o o o o o o o o o o o o o o j ",
"g o o : o o # o o o # o o o o o o o # o o o o o o o . o o I J . . o o o # o # o o o # o o o o o # o o o o o o o o o o j ",
"g . o . # . o o # o o o . o o . # o . o # o . o o - o o o I J o # . o o . o - o # o . o o . o o o . o o . o . o o o   j ",
"g o o o o o . . o o o o o o o o o o o # o o o o o o : : . I J . o o o o o o o o o o o o o o o o o o o o o o # # o . o j ",
"g o o o o o o o o o   o o o o o o o o o o o o o o o . o o I J o o o o o o # o o o o o o o o o o o o o o o o o o o o o j ",
"g o o o o o . o : . @ # o o o o o o o o o o o o o o . o # I J . o o o o o o o o o o o o o # o o o o o # o o # # o o o j ",
"g o o o o o o o = : < . o o o o o o o o o o o o o o - : o I J o o o o o o o o o o o o o o o o o o o o o o o o o o o X j ",
"g . o o o o X , a , - . o o o o o o o o o o # o o : . o . I J X o o o o o o o o o o o o o o o o o o o o : o o o o X X j ",
"g o o o o o o q u w . . o o o o o o o o o o o o o o . : o I J o o o o o o o o # o o o o o o o o o o o o o o o o o o X j ",
"g O # # . # X q 7 q o o o o o @ o o o o o o o # o # 1 o : I J o o o o o o - # o o # @ # < # . o o : o o o o o o o ; i b ",
"l @ . : < - = a * > - < . @ : < < o . : o : : o @ . : o X T J : - : . : < : < - o X o X o # @ : o = - - : : : o = 4 3 m ",
"g   o X ; 9 X q 6 9 X o X X ; X o   X X 9 % $ $ X   o   = K H ; X o     o X X X X X X o : X X o X       X ; 9 X % w 6 n ",
"k . - , s a , w 9 > . - : y s w . @ o w i i w o   O : = u U P i : o @ # : : w r i i 4 i s w = . # O @ @ 1 s w i = 2 o v ",
"g = , u & 7 u q > q = = a * * u = : r q & & q w ; o . 9 8 Y G * a 0 o = = i > & ; w > ; % w u ; : o : : i * & u > , ; h ",
"d ; q % 7 p 9 q 7 w X q 9 % p q X ; q % 7 q % q 9 o 2 q 6 F D % ; w ; ; q 9 % q > % * u q % q ; X X ; , > % q a ; w % x "
};
