/* XPM */
static char *result[] = {
/* columns rows colors chars-per-pixel */
"60 60 100 2 ",
"   c #FF9E00",
".  c #FF9F00",
"X  c #FF9E01",
"o  c #FF9F01",
"O  c #FF9F02",
"+  c #FF9E03",
"@  c #FF9F03",
"#  c #FF9F07",
"$  c #FA9D09",
"%  c #FB9E08",
"&  c #FA9E09",
"*  c #EB941D",
"=  c #F69D16",
"-  c #FFA000",
";  c #FFA100",
":  c #FEA001",
">  c #FFA001",
",  c #FFA200",
"<  c #FEA002",
"1  c #FFA002",
"2  c #FFA003",
"3  c #FFA004",
"4  c #FFA104",
"5  c #FFA005",
"6  c #FFA105",
"7  c #FFA106",
"8  c #FFA107",
"9  c #FFA108",
"0  c #FFA208",
"q  c #FFA209",
"w  c #FFA10A",
"e  c #FFA20A",
"r  c #FFA20B",
"t  c #FFA30B",
"y  c #FFA20C",
"u  c #FFA20D",
"i  c #FFA30D",
"p  c #FFA20E",
"a  c #FFA20F",
"s  c #FFA30F",
"d  c #FFA110",
"f  c #FFA210",
"g  c #FFA310",
"h  c #FFA311",
"j  c #FFA313",
"k  c #FBA114",
"l  c #FBA117",
"z  c #FFA314",
"x  c #FFA414",
"c  c #FFA415",
"v  c #FFA519",
"b  c #FFA51B",
"n  c #FFA61C",
"m  c #DA892B",
"M  c #DB892B",
"N  c #E28E27",
"B  c #E18E28",
"V  c #E69120",
"C  c #E39026",
"Z  c #FFA821",
"A  c #FFA923",
"S  c #FFAC20",
"D  c #C2815D",
"F  c #5134B9",
"G  c #5335B8",
"H  c #5234B9",
"J  c #633FA9",
"K  c #6A43A6",
"L  c #0E0AEF",
"P  c #190FE4",
"I  c #150DE8",
"U  c #0000F8",
"Y  c #0001F8",
"T  c #0000F9",
"R  c #0000FA",
"E  c #0000FB",
"W  c #0203FA",
"Q  c #0404F8",
"!  c #0505F8",
"~  c #0606F8",
"^  c #0000FC",
"/  c #0000FD",
"(  c #0808F8",
")  c #0909F8",
"_  c #0B0BF8",
"`  c #0D0DF8",
"'  c #1C19F3",
"]  c #1D1AF3",
"[  c #1212F8",
"{  c #1313F8",
"}  c #1212F9",
"|  c #1313F9",
" . c #1818F8",
".. c #1B1BF8",
"X. c #2316E1",
"o. c #2417E1",
"O. c #2014E4",
"+. c #271BE1",
"@. c #4B31C2",
"#. c None",
/* pixels */
"#.#.#.#.#.#.#.#.#.#.#.#.#.#.#.#.#.#.#.#.#.#.#.#.#.#.#.#.#.#.#.#.#.#.#.#.#.#.#.#.#.#.#.#.#.#.#.#.#.#.#.#.#.#.#.#.#.#.#.#.",
"#.#.#.#.#.#.#.#.#.#.#.#.#.#.#.#.#.#.#.#.#.#.#.#.#.#.#.#.#.#.#.#.#.#.#.#.#.#.#.#.#.#.#.#.#.#.#.#.#.#.#.#.#.#.#.#.#.#.#.#.",
"#.#.#.#.#.#.#.#.#.#.#.#.#.#.#.#.#.#.#.#.#.#.#.#.#.#.#.#.#.#.#.#.#.#.#.#.#.#.#.#.#.#.#.#.#.#.#.#.#.#.#.#.#.#.#.#.#.#.#.#.",
"#.#.#.#.#.#.#.#.#.#.#.#.#.#.#.#.#.#.#.#.#.#.#.#.#.#.#.#.#.#.#.#.#.#.#.#.#.#.#.#.#.#.#.#.#.#.#.#.#.#.#.#.#.#.#.#.#.#.#.#.",
"#.#.#.#.#.#.#.#.#.#.#.#.#.#.#.#.#.#.#.#.q - - - - - - - - - - - - - - q #.#.#.#.#.#.#.#.#.#.#.#.#.#.#.#.#.#.#.#.#.#.#.#.",
"#.#.#.#.#.#.#.#.#.#.#.#.#.#.#.#.#.#.#.#.q - - - - - - - - - - - - - - e #.#.#.#.#.#.#.#.#.#.#.#.#.#.#.#.#.#.#.#.#.#.#.#.",
"#.#.#.#.#.#.#.#.#.#.#.#.#.#.#.#.#.#.#.#.q - - - - - - - - - - - - - - e #.#.#.#.#.#.#.#.#.#.#.#.#.#.#.#.#.#.#.#.#.#.#.#.",
"#.#.#.#.#.#.#.#.#.#.#.#.#.#.#.#.#.#.#.#.7 - - - - - - - - - - - - - - 7 #.#.#.#.#.#.#.#.#.#.#.#.#.#.#.#.#.#.#.#.#.#.#.#.",
"#.#.#.#.#.#.#.#.#.#.#.#.@ 1 1 1 1 1 1 1 - - - - - - - - - - - - - - - - > 1 1 1 1 1 > 9 #.#.#.#.#.#.#.#.#.#.#.#.#.#.#.#.",
"#.#.#.#.#.#.#.#.#.#.#.#.o - - - - - - - - - - - - - - - - - - - - - - - - - - - - - - 8 #.#.#.#.#.#.#.#.#.#.#.#.#.#.#.#.",
"#.#.#.#.#.#.#.#.#.#.#.#.o - - - - - - - - - - - - - - - - - - - - - - - - - - - - - - 8 #.#.#.#.#.#.#.#.#.#.#.#.#.#.#.#.",
"#.#.#.#.#.#.#.#.j x x g > - - - - - - - - - - - - - - - - - - - - - - - - - - - - - - 6 x x x z #.#.#.#.#.#.#.#.#.#.#.#.",
"#.#.#.#.#.#.#.#.o - - - - - - - - - - - - - - - - - - - - - - - - - - - - - - - - - - - - - - O #.#.#.#.#.#.#.#.#.#.#.#.",
"#.#.#.#.#.#.#.#.o - - - - - - - - - - - - - - - - - - - - - - - - - - - - - - - - - - - - - - o #.#.#.#.#.#.#.#.#.#.#.#.",
"#.#.#.#.#.#.#.#.o - - - - - - > 1 O O O O O O O > - - - - - - - - - - - - - - > O O O O O O O + #.#.#.#.#.#.#.#.#.#.#.#.",
"#.#.#.#.d g g u > - - - - - - 8 #.#.#.#.#.#.#.#.9 - - - - - - - - - - - - - - 9 #.#.#.#.#.#.#.#.b s g f #.#.#.#.#.#.#.#.",
"#.#.#.#.  - - - - - - - - - - q #.#.#.#.#.#.#.#.q - - - - - - - - - - - - - - 9 #.#.#.#.#.#.#.#.y - - . #.#.#.#.#.#.#.#.",
"#.#.#.#.  - - - - - - - - - - q #.#.#.#.#.#.#.#.q - - - - - - - - - - - - - - 9 #.#.#.#.#.#.#.#.u - - . #.#.#.#.#.#.#.#.",
"#.#.#.#.  - - - - - - 2 7 7 5 a #.#.#.#.#.#.#.#.h 7 7 8 1 - - - - - - 1 8 7 6 p #.#.#.#.#.#.#.#.z 8 8 # #.#.#.#.#.#.#.#.",
"#.#.#.#.  - - - - - - y #.#.#.#.#.#.#.#.#.#.#.#.#.#.#.#.e - - - - - - e #.#.#.#.#.#.#.#.#.#.#.#.#.#.#.#.#.#.#.#.#.#.#.#.",
"#.#.#.#.  - - - - - - u #.#.#.#.#.#.#.#.#.#.#.#.#.#.#.#.e - - - - - - q #.#.#.#.#.#.#.#.#.#.#.#.#.#.#.#.#.#.#.#.#.#.#.#.",
"#.#.#.#.  - - - - - - u #.#.#.#.#.#.#.#.#.#.#.#.#.#.#.#.t - - - - - - q #.#.#.#.#.#.#.#.#.#.#.#.#.#.#.#.#.#.#.#.#.#.#.#.",
"#.#.#.#.  - - - - - - u #.#.#.#.#.#.#.#.#.#.#.#.#.#.#.#.= - - - - - - q #.#.#.#.#.#.#.#.#.#.#.#.#.#.#.#.#.#.#.#.#.#.#.#.",
"#.#.#.#.  - - - - - - u #.#.#.#.#.#.#.#._ Q ! Q Q Q W +.C ; - - - - - q #.#.#.#.#.#.#.#.` Q Q Q Q Q ! ! #.#.#.#.#.#.#.#.",
"#.#.#.#.  - - - - - - u #.#.#.#.#.#.#.#.~ U U U U U R X.N ; - - - - - q #.#.#.#.#.#.#.#.) U U U U U U U #.#.#.#.#.#.#.#.",
"#.#.#.#.  - - - - - - u #.#.#.#.#.#.#.#.~ U U U U U R o.N ; - - - - - q #.#.#.#.#.#.#.#.) U U U U U U Y #.#.#.#.#.#.#.#.",
"Z #.#.v 1 - - - - - - u #.#.#.#.#.#.#.#.~ U U U U U R o.N ; - - - - - q #.#.#.#.#.#.#.#.) U U U U U T L D S A #.#.#.#.#.",
"> > > > - - - - - - - u #.#.#.#.#.#.#.#.~ U U U U U R o.N ; - - - - - q #.#.#.#.#.#.#.#.) U U U U U T P M , > X #.#.#.#.",
"- - - - - - - - - - - u #.#.#.#.#.#.#.#.! U U U E ^ / O.B ; - - - - - q #.#.#.#.#.#.#.#.( U U U E ^ / I m , -   #.#.#.#.",
"- - - - - - - - - - - r #.#.#.#.#.#.#.#. .{ | ] @.G F K * ; - - - - - 0 #.#.#.#.#.#.#.#...[ } ' @.G H J V ; -   #.#.#.#.",
"- - - - - - - - - - - > 2 3 2 u #.#.#.#.#.#.#.#.k $ & % : - - - - - - > 2 3 2 y #.#.#.#.#.#.#.#.l & & % < - -   #.#.#.#.",
"- - - - - - - - - - - - - - - q #.#.#.#.#.#.#.#.q - - - - - - - - - - - - - - 9 #.#.#.#.#.#.#.#.i - - - - - -   #.#.#.#.",
"- - - - - - - - - - - - - - - q #.#.#.#.#.#.#.#.e - - - - - - - - - - - - - - 9 #.#.#.#.#.#.#.#.i - - - - - -   #.#.#.#.",
"- - - - - - - - - - - - - - - 7 n #.#.#.#.#.#.#.8 - - - - - - - - - - - - - - 7 #.#.#.#.#.#.#.#.q - - - - - -   #.#.#.#.",
"- - - - - - - - - - - - - - - - - > > > > > > > - - - - - - - - - - - - - - - - > > > > > > > > - - - - - - -   #.#.#.#.",
"- - - - - - - - - - - - - - - - - - - - - - - - - - - - - - - - - - - - - - - - - - - - - - - - - - - - - - -   #.#.#.#.",
"- - - - - - - - - - - - - - - - - - - - - - - - - - - - - - - - - - - - - - - - - - - - - - - - - - - - - - -   #.#.#.#.",
"- - - - - - - - - - - - - - - - - - - - - - - - - - - - - - - - - - - - - - - - - - - - - - - - - - - - - - -   #.#.#.#.",
"- - - - - - - - - - - - - - - - - - - - - - - - - - - - - - - - - - - - - - - - - - - - - - - - - - - - - - -   #.#.#.#.",
"- - - - - - - - - - - - - - - - - - - - - - - - - - - - - - - - - - - - - - - - - - - - - - - - - - - - - - -   #.#.#.#.",
"- - - - - - - - - - - - - - - - - - - - - - - - - - - - - - - - - - - - - - - - - - - - - - - - - - - - - - -   #.#.#.#.",
"- - - - - - - - - - - - - - - - - - - - - - - - - - - - - - - - - - - - - - - - - - - - - - - - - - - - - - -   #.#.#.#.",
"- - - - - - - - - - - - - - - - - - - - - - - - - - - - - - - - - - - - - - - - - - - - - - - - - - - - - - -   #.#.#.#.",
"- - - - - - - - - - - - - - - - - - - - - - - - - - - - - - - - - - - - - - - - - - - - - - - - - - - - - - -   #.#.#.#.",
"- - - - - - - - - - - - - - - - - - - - - - - - - - - - - - - - - - - - - - - - - - - - - - - - - - - - - - -   #.#.#.#.",
"- - - - - - - - - - - - - - - - - - - - - - - - - - - - - - - - - - - - - - - - - - - - - - - - - - - - - - -   #.#.#.#.",
"- - - - - - - - - - - - - - - - - - - - - - - - - - - - - - - - - - - - - - - - - - - - - - - - - - - - - - -   #.#.#.#.",
"- - - - - - - - - - - - - - - - - - - - - - - - - - - - - - - - - - - - - - - - - - - - - - - - - - - - - - -   #.#.#.#.",
"- - - - - - - 4 j x x g > - - - - - - - - - - 6 c x x x x x x c 6 - - - - - - - - - - 6 x x x x 7 - - - - - -   #.#.#.#.",
"- - - - - - - 9 #.#.#.#.o - - - - - - - - - - e #.#.#.#.#.#.#.#.e - - - - - - - - - - 7 #.#.#.#.u - - - - - -   #.#.#.#.",
"- - - - - - - 9 #.#.#.#.o - - - - - - - - - - e #.#.#.#.#.#.#.#.e - - - - - - - - - - 8 #.#.#.#.i - - - - - -   #.#.#.#.",
"- - - - > 1 > w #.#.#.#.O 1 1 1 - - - - - - - e #.#.#.#.#.#.#.#.e - - - - - - - > 1 > 9 #.#.#.#.s > 1 > - - -   #.#.#.#.",
"- - - > p #.#.#.#.#.#.#.#.#.#.#.6 - - - - - - e #.#.#.#.#.#.#.#.e - - - - - - 6 #.#.#.#.#.#.#.#.#.#.#.#.6 - -   #.#.#.#.",
"- - - - #.#.#.#.#.#.#.#.#.#.#.#.7 - - - - - - e #.#.#.#.#.#.#.#.e - - - - - - 9 #.#.#.#.#.#.#.#.#.#.#.#.9 - -   #.#.#.#.",
"- - - - #.#.#.#.#.#.#.#.#.#.#.#.7 - - - - - - e #.#.#.#.#.#.#.#.e - - - - - - 9 #.#.#.#.#.#.#.#.#.#.#.#.9 - -   #.#.#.#.",
"- - - - #.#.#.#.#.#.#.#.#.#.#.#.7 - - - - - - e #.#.#.#.#.#.#.#.e - - - - - - 9 #.#.#.#.#.#.#.#.#.#.#.#.9 - -   #.#.#.#.",
"#.#.#.#.#.#.#.#.#.#.#.#.#.#.#.#.#.#.#.#.#.#.#.#.#.#.#.#.#.#.#.#.#.#.#.#.#.#.#.#.#.#.#.#.#.#.#.#.#.#.#.#.#.#.#.#.#.#.#.#.",
"#.#.#.#.#.#.#.#.#.#.#.#.#.#.#.#.#.#.#.#.#.#.#.#.#.#.#.#.#.#.#.#.#.#.#.#.#.#.#.#.#.#.#.#.#.#.#.#.#.#.#.#.#.#.#.#.#.#.#.#.",
"#.#.#.#.#.#.#.#.#.#.#.#.#.#.#.#.#.#.#.#.#.#.#.#.#.#.#.#.#.#.#.#.#.#.#.#.#.#.#.#.#.#.#.#.#.#.#.#.#.#.#.#.#.#.#.#.#.#.#.#.",
"#.#.#.#.#.#.#.#.#.#.#.#.#.#.#.#.#.#.#.#.#.#.#.#.#.#.#.#.#.#.#.#.#.#.#.#.#.#.#.#.#.#.#.#.#.#.#.#.#.#.#.#.#.#.#.#.#.#.#.#."
};
