/* XPM */
static char *result[] = {
/* columns rows colors chars-per-pixel */
"60 60 159 2 ",
"   c black",
".  c #010100",
"X  c #000001",
"o  c #010101",
"O  c #030300",
"+  c #000002",
"@  c #000003",
"#  c #020202",
"$  c #020203",
"%  c gray1",
"&  c #050500",
"*  c #070700",
"=  c #060603",
"-  c #000004",
";  c #010105",
":  c #020204",
">  c #020206",
",  c #040404",
"<  c gray2",
"1  c #060606",
"2  c #070707",
"3  c #080803",
"4  c #0C0C00",
"5  c #080804",
"6  c #030308",
"7  c #040408",
"8  c #050509",
"9  c #070708",
"0  c #05050A",
"q  c #06060A",
"w  c gray3",
"e  c #090909",
"r  c #0A0A08",
"t  c #0B0B08",
"y  c gray4",
"u  c #0B0B0B",
"i  c #0C0C0C",
"p  c gray6",
"a  c #111100",
"s  c #131300",
"d  c #151500",
"f  c #181803",
"g  c #1D1D00",
"h  c #1E1E00",
"j  c #0B0B10",
"k  c #0C0C11",
"l  c #101010",
"z  c #111111",
"x  c #141411",
"c  c #111116",
"v  c #121217",
"b  c #151515",
"n  c #161616",
"m  c #161617",
"M  c gray9",
"N  c #131318",
"B  c #141419",
"V  c #161618",
"C  c #181818",
"Z  c #191919",
"A  c gray10",
"S  c #1E1E1E",
"D  c gray12",
"F  c #202001",
"G  c #202002",
"H  c #252500",
"J  c #262600",
"K  c #272700",
"L  c #272701",
"P  c #242407",
"I  c #282803",
"U  c #2D2D00",
"Y  c #242408",
"T  c #303000",
"R  c #3A3A00",
"E  c #3D3D00",
"W  c #2D2D1A",
"Q  c #454507",
"!  c #4F4F00",
"~  c #515100",
"^  c #505001",
"/  c #5A5A00",
"(  c #5C5C00",
")  c #5D5D00",
"_  c #5F5F00",
"`  c #5F5F07",
"'  c #57571F",
"]  c #5F5F1A",
"[  c #5E5E1B",
"{  c #606000",
"}  c #616100",
"|  c #616101",
" . c #636300",
".. c #646400",
"X. c #656500",
"o. c #666600",
"O. c #676704",
"+. c #666606",
"@. c #676707",
"#. c #6D6D00",
"$. c #686807",
"%. c #66660D",
"&. c #67670D",
"*. c #737300",
"=. c #717102",
"-. c #757500",
";. c #777700",
":. c #777702",
">. c #646410",
",. c #646411",
"<. c #666612",
"1. c #868600",
"2. c #9E9E00",
"3. c #9E9E03",
"4. c #A2A200",
"5. c #A4A400",
"6. c #A8A800",
"7. c #AAAA00",
"8. c #ABAB00",
"9. c #ACAC00",
"0. c #ACAC01",
"q. c #AEAE00",
"w. c #A0A009",
"e. c #B0B000",
"r. c #B2B200",
"t. c #B3B300",
"y. c #B4B401",
"u. c #C1C100",
"i. c #C2C200",
"p. c #C5C500",
"a. c #C8C800",
"s. c #CBCB00",
"d. c #CCCC00",
"f. c #D0D000",
"g. c #D2D200",
"h. c #D3D300",
"j. c #D4D401",
"k. c #D6D600",
"l. c #D8D800",
"z. c #DCDC00",
"x. c #DDDD00",
"c. c #DFDF00",
"v. c #E0E000",
"b. c #E1E100",
"n. c #E2E200",
"m. c #E3E300",
"M. c #E4E400",
"N. c #E5E500",
"B. c #EBEB00",
"V. c #F5F500",
"C. c #F6F600",
"Z. c #F8F800",
"A. c #F9F900",
"S. c #FAFA00",
"D. c #FCFC00",
"F. c #FDFD00",
"G. c #FEFE00",
"H. c yellow",
"J. c None",
/* pixels */
"J.J.J.J.J.J.J.J.J.J.J.J.J.J.J.J.J.J.J.J.J.J.J.J.J.J.J.J.J.J.J.J.J.J.J.J.J.J.J.J.J.J.J.J.J.J.J.J.J.J.J.J.J.J.J.J.J.J.J.J.",
"J.J.J.J.J.J.J.J.J.J.J.J.J.J.J.J.J.J.J.J.J.J.J.J.J.J.J.J.J.J.J.J.J.J.J.J.J.J.J.J.J.J.J.J.J.J.J.J.J.J.J.J.J.J.J.J.J.J.J.J.",
"J.J.J.J.J.J.J.J.J.J.J.J.J.J.J.J.J.J.J.J.J.J.J.J.J.J.J.J.J.J.J.J.J.J.J.J.J.J.J.J.J.J.J.J.J.J.J.J.J.J.J.J.J.J.J.J.J.J.J.J.",
"J.J.J.J.J.J.J.J.J.J.J.J.J.J.J.J.J.J.J.J.J.J.J.J.J.J.J.J.J.J.J.J.J.J.J.J.J.J.J.J.J.J.J.J.J.J.J.J.J.J.J.J.J.J.J.J.J.J.J.J.",
"J.J.J.J.J.J.J.J.J.J.J.J.J.J.J.J.J.J.J.J.J.J.J.<                 o J.J.J.J.J.J.J.J.J.J.J.J.J.J.J.J.J.J.J.J.J.J.J.J.J.J.J.",
"J.J.J.J.J.J.J.J.J.J.J.J.J.J.J.J.J.J.J.J.J.J.J.:                 X J.J.J.J.J.J.J.J.J.J.J.J.J.J.J.J.J.J.J.J.J.J.J.J.J.J.J.",
"J.J.J.J.J.J.J.J.J.J.J.J.J.J.J.J.J.J.J.J.J.J.J.P h h h h h h h h F J.J.J.J.J.J.J.J.J.J.J.J.J.J.J.J.J.J.J.J.J.J.J.J.J.J.J.",
"J.J.J.J.J.J.J.J.J.J.J.J.J.J.J.J.J.u w w w 2 r 3.c.z.z.z.z.z.z.z.z.+.6 w w w w w J.J.J.J.J.J.J.J.J.J.J.J.J.J.J.J.J.J.J.J.",
"J.J.J.J.J.J.J.J.J.J.J.J.J.J.J.J.J.%         O 7.H.H.H.H.H.H.H.H.H. .            J.J.J.J.J.J.J.J.J.J.J.J.J.J.J.J.J.J.J.J.",
"J.J.J.J.J.J.J.J.J.J.J.J.J.J.J.J.J.-           6.H.H.H.H.H.H.H.H.G.}             J.J.J.J.J.J.J.J.J.J.J.J.J.J.J.J.J.J.J.J.",
"J.J.J.J.J.J.J.J.J.J.J.J.J.J.J.J.] :.-.-.-.-.;.f.H.H.H.H.H.H.H.H.G.7.*.-.-.-.-.=.J.J.J.J.J.J.J.J.J.J.J.J.J.J.J.J.J.J.J.J.",
"J.J.J.J.J.J.J.J.J.J.J.J.J.A # + | H.H.H.H.H.H.H.H.H.H.H.H.H.H.H.H.H.H.H.H.H.H.m.G + < J.J.J.J.J.J.J.J.J.J.J.J.J.J.J.J.J.",
"J.J.J.J.J.J.J.J.J.J.J.J.J.V     _ H.H.H.H.H.H.H.H.H.H.H.H.H.H.H.H.H.H.H.H.H.H.b.g   $ J.J.J.J.J.J.J.J.J.J.J.J.J.J.J.J.J.",
"J.J.J.J.J.J.J.J.J.J.J.J.J.W d a #.H.H.H.H.H.H.H.H.H.H.H.H.H.H.H.H.H.H.H.H.H.H.m.T s f J.J.J.J.J.J.J.J.J.J.J.J.J.J.J.J.J.",
"J.J.J.J.J.J.J.J.J.J.A l x w.k.g.m.H.H.H.H.H.H.H.H.H.H.H.H.H.H.H.H.H.H.H.H.H.H.S.l.h.j.&.k z J.J.J.J.J.J.J.J.J.J.J.J.J.J.",
"J.J.J.J.J.J.J.J.J.J.e   O 9.H.H.H.H.H.H.H.H.H.H.H.H.H.H.H.H.H.H.H.H.H.H.H.H.H.H.H.H.H._     C J.J.J.J.J.J.J.J.J.J.J.J.J.",
"J.J.J.J.J.J.J.J.J.J.0     7.H.H.H.H.H.H.H.H.H.H.H.H.H.H.H.H.H.H.H.H.H.H.H.H.H.H.H.H.H.)     B J.J.J.J.J.J.J.J.J.J.J.J.J.",
"J.J.J.J.J.J.J.J.J.J.@. .X.d.H.H.H.H.H.H.H.H.H.H.H.H.H.H.H.V.e.4.5.v.H.H.H.H.H.H.H.H.H.2.{ ..<.J.J.J.J.J.J.J.J.J.J.J.J.J.",
"J.J.J.J.J.J.J., @ I N.H.H.H.H.H.H.H.H.H.H.H.H.H.H.H.H.H.H.M.K   & 9.H.H.H.H.H.H.H.H.H.H.H.H.0.= # i J.J.J.J.J.J.J.J.J.J.",
"J.J.J.J.J.J.J.o   H M.H.H.H.H.H.H.H.H.H.H.H.H.H.H.H.H.H.H.M.H   O 8.H.H.H.H.H.H.H.H.H.H.H.H.8.O   e J.J.J.J.J.J.J.J.J.J.",
"J.J.J.J.J.J.J.o   J x.Z.C.C.C.C.A.H.H.H.H.H.H.H.H.H.H.H.H.N.U * 4 q.H.H.H.H.H.H.H.H.H.H.H.H.8.O   e J.J.J.J.J.J.J.J.J.J.",
"J.J.J.J.J.J.J.J.J.J.Q E E E E R 1.H.H.H.H.H.H.H.H.H.H.H.H.Z.s.u.i.B.H.H.H.H.H.H.H.H.H.H.H.H.8.O   y J.J.J.J.J.J.J.J.J.J.",
"J.J.J.J.J.J.J.J.J.J.8           ) H.H.H.H.H.H.H.H.H.H.H.H.H.H.H.H.H.H.H.H.H.H.H.H.H.H.H.H.H.8.O   y J.J.J.J.J.J.J.J.J.J.",
"J.J.J.J.J.J.J.J.J.J.e           { H.H.H.H.H.H.H.H.H.H.H.H.H.H.H.H.H.H.H.H.H.H.H.H.H.H.H.H.H.7.    0 J.J.J.J.J.J.J.J.J.J.",
"J.J.J.J.J.J.J.J.J.J.S b n n n c ,.y.t.t.t.t.t.t.t.r.f.H.H.H.H.H.H.H.H.H.H.H.H.H.H.H.H.H.H.H.a.( / ` J.J.J.J.J.J.J.J.J.J.",
"J.J.J.J.J.J.J.J.J.J.J.J.J.J.J.J.J.5 & & & & & & & . o.G.H.H.H.H.H.H.H.H.H.H.H.H.H.H.H.H.H.H.G.D.G.n.L X # J.J.J.J.J.J.J.",
"J.J.J.J.J.J.J.J.J.J.J.J.J.J.J.J.J.%                  .H.H.H.H.H.H.H.H.H.H.H.H.H.H.H.H.H.H.H.H.H.H.M.J   o J.J.J.J.J.J.J.",
"J.J.J.J.J.J.J.J.J.J.J.J.J.J.J.J.J.e < 1 1 < < < < ; O.A.S.S.S.S.S.F.H.H.H.H.H.H.H.H.H.H.H.H.H.H.H.M.J   o J.J.J.J.J.J.J.",
"J.J.J.J.J.J.J.J.J.J.J.J.J.J.J.J.J.J.J.J.J.J.J.J.J.J.J.^ ! ! ! ! ~ p.H.H.H.H.H.H.H.H.H.H.H.H.H.H.H.M.J   o J.J.J.J.J.J.J.",
"J.J.J.J.J.J.J.J.J.J.J.J.J.J.J.J.J.J.J.J.J.J.J.J.J.J.J.X           7.H.H.H.H.H.H.H.H.H.H.H.H.H.H.H.M.J   o J.J.J.J.J.J.J.",
"J.J.J.J.J.J.J.J.J.J.J.J.J.J.J.J.J.J.J.J.J.J.J.J.J.J.J.X           7.H.H.H.H.H.H.H.H.H.H.H.H.H.H.H.M.J   o J.J.J.J.J.J.J.",
"J.J.J.J.J.J.J.J.J.J.J.J.J.J.J.J.J.J.J.J.J.J.J.J.J.J.' ^ ! ! ! ! ~ p.H.H.H.H.H.H.H.H.H.H.H.H.H.H.H.M.J   o J.J.J.J.J.J.J.",
"J.J.J.J.J.J.J.J.J.J.J.J.J.J.J.J.J.e < 2 2 1 1 1 1 > O.A.S.S.S.S.S.F.H.H.H.H.H.H.H.H.H.H.H.H.H.H.H.M.J   o J.J.J.J.J.J.J.",
"J.J.J.J.J.J.J.J.J.J.J.J.J.J.J.J.J.%                  .H.H.H.H.H.H.H.H.H.H.H.H.H.H.H.H.H.H.H.H.H.H.M.J   o J.J.J.J.J.J.J.",
"J.J.J.J.J.J.J.J.J.J.J.J.J.J.J.J.J.3 & & & & & & & . o.G.H.H.H.H.H.H.H.H.H.H.H.H.H.H.H.H.H.H.G.D.G.n.L X # J.J.J.J.J.J.J.",
"J.J.J.J.J.J.J.J.J.J.D n n M M v >.y.t.t.t.t.t.t.t.r.f.H.H.H.H.H.H.H.H.H.H.H.H.H.H.H.H.H.H.H.a.( / ` J.J.J.J.J.J.J.J.J.J.",
"J.J.J.J.J.J.J.J.J.J.y           { H.H.H.H.H.H.H.H.H.H.H.H.H.H.H.H.H.H.H.H.H.H.H.H.H.H.H.H.H.7.    0 J.J.J.J.J.J.J.J.J.J.",
"J.J.J.J.J.J.J.J.J.J.q           ) H.H.H.H.H.H.H.H.H.H.H.H.H.H.H.H.H.H.H.H.H.H.H.H.H.H.H.H.H.8.O   e J.J.J.J.J.J.J.J.J.J.",
"J.J.J.J.J.J.J.J.J.J.Q E E E E R 1.H.H.H.H.H.H.H.H.H.H.H.H.H.H.H.H.H.H.H.H.H.H.H.H.H.H.H.H.H.8.O   e J.J.J.J.J.J.J.J.J.J.",
"J.J.J.J.J.J.J.o   J x.Z.C.C.C.C.A.H.H.H.H.H.H.H.H.H.H.H.H.H.H.H.H.H.H.H.H.H.H.H.H.H.H.H.H.H.8.O   e J.J.J.J.J.J.J.J.J.J.",
"J.J.J.J.J.J.J.o   H M.H.H.H.H.H.H.H.H.H.H.H.H.H.H.H.H.H.H.H.H.H.H.H.H.H.H.H.H.H.H.H.H.H.H.H.8.O   e J.J.J.J.J.J.J.J.J.J.",
"J.J.J.J.J.J.J., @ I N.H.H.H.H.H.H.H.H.H.H.H.H.H.H.H.H.H.H.H.H.H.H.H.H.H.H.H.H.H.H.H.H.H.H.H.0.= # i J.J.J.J.J.J.J.J.J.J.",
"J.J.J.J.J.J.J.J.J.J.$. .X.d.H.H.H.H.H.H.H.H.H.H.H.H.H.H.H.H.H.H.H.H.H.H.H.H.H.H.H.H.H.2.{ ..<.J.J.J.J.J.J.J.J.J.J.J.J.J.",
"J.J.J.J.J.J.J.J.J.J.0     7.H.H.H.H.H.H.H.H.H.H.H.H.H.H.H.H.H.H.H.H.H.H.H.H.H.H.H.H.H.)     N J.J.J.J.J.J.J.J.J.J.J.J.J.",
"J.J.J.J.J.J.J.J.J.J.e   O 9.H.H.H.H.H.H.H.H.H.H.H.H.H.H.H.H.H.H.H.H.H.H.H.H.H.H.H.H.H._     M J.J.J.J.J.J.J.J.J.J.J.J.J.",
"J.J.J.J.J.J.J.J.J.J.Z p x w.k.g.m.H.H.H.H.H.H.H.H.H.H.H.H.H.H.H.H.H.H.H.H.H.H.S.l.h.j.%.j l J.J.J.J.J.J.J.J.J.J.J.J.J.J.",
"J.J.J.J.J.J.J.J.J.J.J.J.J.W d a #.H.H.H.H.H.H.H.H.H.H.H.H.H.H.H.H.H.H.H.H.H.H.m.T s f J.J.J.J.J.J.J.J.J.J.J.J.J.J.J.J.J.",
"J.J.J.J.J.J.J.J.J.J.J.J.J.m     _ H.H.H.H.H.H.H.H.H.H.H.H.H.H.H.H.H.H.H.H.H.H.b.g   $ J.J.J.J.J.J.J.J.J.J.J.J.J.J.J.J.J.",
"J.J.J.J.J.J.J.J.J.J.J.J.J.Z # + | H.H.H.H.H.H.H.H.H.H.H.H.H.H.H.H.H.H.H.H.H.H.m.G + < J.J.J.J.J.J.J.J.J.J.J.J.J.J.J.J.J.",
"J.J.J.J.J.J.J.J.J.J.J.J.J.J.J.J.[ :.-.-.-.-.;.f.H.H.H.H.H.H.H.H.G.7.*.-.-.-.-.=.J.J.J.J.J.J.J.J.J.J.J.J.J.J.J.J.J.J.J.J.",
"J.J.J.J.J.J.J.J.J.J.J.J.J.J.J.J.J.-           6.H.H.H.H.H.H.H.H.G.}             J.J.J.J.J.J.J.J.J.J.J.J.J.J.J.J.J.J.J.J.",
"J.J.J.J.J.J.J.J.J.J.J.J.J.J.J.J.J.%         O 7.H.H.H.H.H.H.H.H.H. .            J.J.J.J.J.J.J.J.J.J.J.J.J.J.J.J.J.J.J.J.",
"J.J.J.J.J.J.J.J.J.J.J.J.J.J.J.J.J.u w w w 9 t 3.c.z.z.z.z.z.z.z.z.+.7 w w w w w J.J.J.J.J.J.J.J.J.J.J.J.J.J.J.J.J.J.J.J.",
"J.J.J.J.J.J.J.J.J.J.J.J.J.J.J.J.J.J.J.J.J.J.J.Y h h h h h h h h F J.J.J.J.J.J.J.J.J.J.J.J.J.J.J.J.J.J.J.J.J.J.J.J.J.J.J.",
"J.J.J.J.J.J.J.J.J.J.J.J.J.J.J.J.J.J.J.J.J.J.J.:                 X J.J.J.J.J.J.J.J.J.J.J.J.J.J.J.J.J.J.J.J.J.J.J.J.J.J.J.",
"J.J.J.J.J.J.J.J.J.J.J.J.J.J.J.J.J.J.J.J.J.J.J.,                 o J.J.J.J.J.J.J.J.J.J.J.J.J.J.J.J.J.J.J.J.J.J.J.J.J.J.J.",
"J.J.J.J.J.J.J.J.J.J.J.J.J.J.J.J.J.J.J.J.J.J.J.J.J.J.J.J.J.J.J.J.J.J.J.J.J.J.J.J.J.J.J.J.J.J.J.J.J.J.J.J.J.J.J.J.J.J.J.J.",
"J.J.J.J.J.J.J.J.J.J.J.J.J.J.J.J.J.J.J.J.J.J.J.J.J.J.J.J.J.J.J.J.J.J.J.J.J.J.J.J.J.J.J.J.J.J.J.J.J.J.J.J.J.J.J.J.J.J.J.J.",
"J.J.J.J.J.J.J.J.J.J.J.J.J.J.J.J.J.J.J.J.J.J.J.J.J.J.J.J.J.J.J.J.J.J.J.J.J.J.J.J.J.J.J.J.J.J.J.J.J.J.J.J.J.J.J.J.J.J.J.J.",
"J.J.J.J.J.J.J.J.J.J.J.J.J.J.J.J.J.J.J.J.J.J.J.J.J.J.J.J.J.J.J.J.J.J.J.J.J.J.J.J.J.J.J.J.J.J.J.J.J.J.J.J.J.J.J.J.J.J.J.J."
};
