/* XPM */
static char *result[] = {
/* columns rows colors chars-per-pixel */
"60 60 111 2 ",
"   c #D60D14",
".  c #DC0D14",
"X  c #DF051E",
"o  c #DF0B19",
"O  c #D41216",
"+  c #D2111A",
"@  c #EE060C",
"#  c #E30B0F",
"$  c #EA090D",
"%  c #F60405",
"&  c #FD0102",
"*  c #F30409",
"=  c #FB0608",
"-  c #F60A0A",
";  c #FA0909",
":  c #F6100F",
">  c #E70710",
",  c #ED0111",
"<  c #E30A12",
"1  c #E90910",
"2  c #E2031B",
"3  c #E2081E",
"4  c #F91112",
"5  c #F51D1D",
"6  c #F81D1E",
"7  c #DF0520",
"8  c #DC0825",
"9  c #F31E22",
"0  c #E52127",
"q  c #F62223",
"w  c #F4292A",
"e  c #EF3C3A",
"r  c #F33939",
"t  c #EE413F",
"y  c #990D5D",
"u  c #8C0F6D",
"i  c #D53D5B",
"p  c #EF4341",
"a  c #F34142",
"s  c #ED5454",
"d  c #ED595A",
"f  c #F05151",
"g  c #ED6363",
"h  c #EA6F6F",
"j  c #EB706E",
"k  c #EB7574",
"l  c #5E1A92",
"z  c #5412A6",
"x  c #4C2ABB",
"c  c #1616DF",
"v  c #1917DF",
"b  c #1919DF",
"n  c #3517C3",
"m  c #3718C3",
"M  c #391DCA",
"N  c #211ED0",
"B  c #3835C5",
"V  c #2220D0",
"C  c #2F2DD8",
"Z  c #3126D3",
"A  c #302ED7",
"S  c #312FDD",
"D  c #3231D6",
"F  c #3231DD",
"G  c #1717E0",
"H  c #161AE3",
"J  c #191AE1",
"K  c #3231E0",
"L  c #4846D3",
"P  c #4344D8",
"I  c #7D7CDE",
"U  c #7E7DE0",
"Y  c #EA8C8D",
"T  c #E69190",
"R  c #E99192",
"E  c #E89F9E",
"W  c #E5A29E",
"Q  c #E9A09F",
"!  c #CD8EAA",
"~  c #E6A3A2",
"^  c #E8A1A1",
"/  c #E5ABAA",
"(  c #E8ADAB",
")  c #E5BEBD",
"_  c #E8BDBE",
"`  c #E4C1BE",
"'  c #8987DB",
"]  c #8989DB",
"[  c #BBBBD7",
"{  c #CEAFC6",
"}  c #C7C1DD",
"|  c #C9CADE",
" . c #D5D4D5",
".. c #D2D4DF",
"X. c #D8D3DB",
"o. c #DFDEDE",
"O. c #E4C4C4",
"+. c #E4C9C6",
"@. c #E2CECE",
"#. c #E1DCDB",
"$. c #DFE1DE",
"%. c #E1E1DE",
"&. c #C7C7E0",
"*. c #C7CAE2",
"=. c #CACCE3",
"-. c #D2D3E1",
";. c #DEDEE1",
":. c #E1DFE1",
">. c #DFE2E2",
",. c #E1E3E2",
"<. c None",
/* pixels */
"<.<.<.<.<.<.<.<.<.<.<.<.<.<.<.<.<.<.<.<.<.<.<.<.<.<.<.<.<.<.<.<.<.<.<.<.<.<.<.<.<.<.<.<.<.<.<.<.<.<.<.<.<.<.<.<.<.<.<.<.",
"<.<.<.<.<.<.<.<.<.<.<.<.<.<.<.<.<.<.<.<.<.<.<.<.<.<.<.<.<.<.<.<.<.<.<.<.<.<.<.<.<.<.<.<.<.<.<.<.<.<.<.<.<.<.<.<.<.<.<.<.",
"<.<.<.<.<.<.<.<.<.<.<.<.<.<.<.<.<.<.<.<.<.<.<.<.<.<.<.<.<.<.<.<.<.<.<.<.<.<.<.<.<.<.<.<.<.<.<.<.<.<.<.<.<.<.<.<.<.<.<.<.",
"<.<.<.<.<.<.<.<.<.<.<.<.<.<.<.<.<.<.<.<.<.<.<.<.<.<.<.<.<.<.<.<.<.<.<.<.<.<.<.<.<.<.<.<.<.<.<.<.<.<.<.<.<.<.<.<.<.<.<.<.",
"<.<.<.<.<.<.<.<.<.<.<.<.<.<.<.<.<.<.<.<.<.<.<.<.<.<.<.<.<.<.<.<.<.<.<.<.<.<.<.<.<.<.<.<.<.<.<.<.<.<.<.<.<.<.<.<.<.<.<.<.",
"<.<.<.<.<.<.<.<.<.<.<.<.<.<.<.<.<.<.<.<.<.<.<.<.<.<.<.  <.<.<.<.<.<.<.<.<.<.<.<.<.<.<.<.<.<.<.<.<.<.<.<.<.<.<.<.<.<.<.<.",
"<.<.<.<.<.<.<.<.<.<.<.<.<.<.<.<.<.<.<.<.<.<.<.<.<.<.. & % & & & & < <.<.<.<.<.<.<.<.<.<.<.<.<.<.<.<.<.<.<.<.<.<.<.<.<.<.",
"<.<.<.<.<.<.<.<.<.<.<.<.<.<.<.<.<.<.<.<.<.<.<.<.<.<.<.& & & % & & <.<.<.<.<.<.<.<.<.<.<.<.<.<.<.<.<.<.<.<.<.<.<.<.<.<.<.",
"<.<.<.<.<.<.<.<.<.<.<.<.<.<.<.<.<.<.<.<.<.<.<.<.<.<.. & & & & & & # <.<.<.<.<.<.<.<.<.<.<.<.<.<.<.<.<.<.<.<.<.<.<.<.<.<.",
"<.<.<.<.<.<.<.<.<.<.<.<.<.<.<.<.<.<.<.<.<.<.<.< @ @ * & & & & & & * @ @ $ <.<.<.<.<.<.<.<.<.<.<.<.<.<.<.<.<.<.<.<.<.<.<.",
"<.<.<.<.<.<.<.<.<.<.<.<.<.<.<.<.<.<.<.<.<.<.<.* & & & & & & & & & & & % % <.<.<.<.<.<.<.<.<.<.<.<.<.<.<.<.<.<.<.<.<.<.<.",
"<.<.<.<.<.<.<.<.<.<.<.<.<.<.<.<.<.<.<.<.<.<.<.* & & & & & & & & & % & & * <.<.<.<.<.<.<.<.<.<.<.<.<.<.<.<.<.<.<.<.<.<.<.",
"<.<.<.<.<.<.<.<.<.<.<.<.<.<.<.<.<.<.<.<.<.<.+ * & & & & & & & & & & & & * + <.<.<.<.<.<.<.<.<.<.<.<.<.<.<.<.<.<.<.<.<.<.",
"<.<.<.<.<.<.<.<.<.<.<.<.<.<.<.<.<.<.<.<.<.> % & & & & & & & & & & & & & & % @ <.<.<.<.<.<.<.<.<.<.<.<.<.<.<.<.<.<.<.<.<.",
"<.<.<.<.<.<.<.<.<.<.<.<.<.<.<.<.<.<.<.<.<.@ & & & & & & & & & & & & & & & & @ <.<.<.<.<.<.<.<.<.<.<.<.<.<.<.<.<.<.<.<.<.",
"<.<.<.<.<.<.<.<.<.<.<.<.<.<.<.<.<.<.<.<.<.0 9 9 5 & & & & & & ; 9 q 5 : & & @ <.<.<.<.<.<.<.<.<.<.<.<.<.<.<.<.<.<.<.<.<.",
"<.<.<.<.<.<.<.<.<.<.<.<.<.<.<.<.<.<.<.<.- R O.@.Y ; & & & & & r ) ` _ r & & * $ <.<.<.<.<.<.<.<.<.<.<.<.<.<.<.<.<.<.<.<.",
"<.<.<.<.<.<.<.<.<.<.<.<.<.<.<.<.<.<.<.<.; Q >.>.~ ; & & & & & a o.;.#.p & & & & <.<.<.<.<.<.<.<.<.<.<.<.<.<.<.<.<.<.<.<.",
"<.<.<.<.<.<.<.<.<.<.<.<.<.<.<.<.<.<.<.<.% E ,.,.~ - % & & & & t #.#.#.p & & & & <.<.<.<.<.<.<.<.<.<.<.<.<.<.<.<.<.<.<.<.",
"<.<.<.<.<.<.<.<.<.<.<.<.<.<.<.<.<.<.<.<.k ) >.>.) k e & & - g R o.o.o.T g - & & <.<.<.<.<.<.<.<.<.<.<.<.<.<.<.<.<.<.<.<.",
"<.<.<.<.<.<.<.<.<.<.<.<.<.<.<.<.<.<.<.X.,.#.;.o.$.,.k & & 5 O.,.>.o.:.:.O.6 & & <.<.<.<.<.<.<.<.<.<.<.<.<.<.<.<.<.<.<.<.",
"<.<.<.<.<.<.<.<.<.<.<.<.<.<.<.<.<.<.<. .%.>.%.o.$.$.k & & 6 O.$.%.#.o.>.O.6 & & <.<.<.<.<.<.<.<.<.<.<.<.<.<.<.<.<.<.<.<.",
"<.<.<.<.<.<.<.<.<.<.<.<.<.<.<.<.<.<.<.[ *.*.=.o.o.>.k % & 5 { *.*...;.>.O.6 & & <.<.<.<.<.<.<.<.<.<.<.<.<.<.<.<.<.<.<.<.",
"<.<.<.<.<.<.<.<.<.<.<.<.<.<.<.<.<.<.<.B D D L | %.>.k & & 3 x F A ] %.>.O.6 & & <.<.<.<.<.<.<.<.<.<.<.<.<.<.<.<.<.<.<.<.",
"<.<.<.<.<.<.<.<.<.<.<.<.<.<.<.<.<.<.<.V J G K &.,.>.k & & X n J c I %.>.O.6 & & <.<.<.<.<.<.<.<.<.<.<.<.<.<.<.<.<.<.<.<.",
"<.<.<.<.<.<.<.<.<.<.<.<.<.<.<.<.<.<.<.V b J F &.%.>.k & & X n J b I %.,.O.6 & & < <.<.<.<.<.<.<.<.<.<.<.<.<.<.<.<.<.<.<.",
"<.<.<.<.<.<.<.<.<.<.<.<.<.<.<.<.<.<.+ l J J K &.#.>.k & & X n J b I %.:.O.5 & & < <.<.<.<.<.<.<.<.<.<.<.<.<.<.<.<.<.<.<.",
"<.<.<.<.<.<.<.<.<.<.<.<.<.<.<.<.<.<.& u J J K &.>.>.k & & 3 m b b I %.:.O.5 & & % % <.<.<.<.<.<.<.<.<.<.<.<.<.<.<.<.<.<.",
"<.<.<.<.<.<.<.<.<.<.<.<.<.<.<.<.<.<.& u H J S &.,.,.k & & 3 m H v U ,.,.O.6 & & & % <.<.<.<.<.<.<.<.<.<.<.<.<.<.<.<.<.<.",
"<.<.<.<.<.<.<.<.<.<.<.<.<.<.<.<.<.<.& y n Z P *.#.+.g & & 2 z M A ' %.@.( 6 & & & & <.<.<.<.<.<.<.<.<.<.<.<.<.<.<.<.<.<.",
"<.<.<.<.<.<.<.<.<.<.<.<.<.<.<.<.<.<.% , 8 ! =.>./ w 4 & & & 2 i } -.#.d 6 & & & & & <.<.<.<.<.<.<.<.<.<.<.<.<.<.<.<.<.<.",
"<.<.<.<.<.<.<.<.<.<.<.<.<.<.<.<.<.<.& & ; ^ ,.,.^ % & & & & & a #.,.#.t & & & & & % <.<.<.<.<.<.<.<.<.<.<.<.<.<.<.<.<.<.",
"<.<.<.<.<.<.<.<.<.<.<.<.<.<.<.<.<.<.= & ; ^ >.,.~ ; & & & & & a #.,.#.a & & & & & & <.<.<.<.<.<.<.<.<.<.<.<.<.<.<.<.<.<.",
"<.<.<.<.<.<.<.<.<.<.<.<.<.<.<.<.<.<.& & & f k k d * & & & & & q j k h q & & & & & & <.<.<.<.<.<.<.<.<.<.<.<.<.<.<.<.<.<.",
"<.<.<.<.<.<.<.<.<.<.<.<.<.<.<.<.<.<.& & & % & % % & & & & & & & % % & % & & & & & & <.<.<.<.<.<.<.<.<.<.<.<.<.<.<.<.<.<.",
"<.<.<.<.<.<.<.<.<.<.<.<.<.<.<.<.<.<.& & & & & & & & & & & & & & & & & & & & & & & & <.<.<.<.<.<.<.<.<.<.<.<.<.<.<.<.<.<.",
"<.<.<.<.<.<.<.<.<.<.<.<.<.<.<.<.<.<.& & & & & & & & & & & & & & & & & & & & & & & % <.<.<.<.<.<.<.<.<.<.<.<.<.<.<.<.<.<.",
"<.<.<.<.<.<.<.<.<.<.<.<.<.<.<.<.<.<.& & & & & & & & & & & & & & & & & & & & & & & % <.<.<.<.<.<.<.<.<.<.<.<.<.<.<.<.<.<.",
"<.<.<.<.<.<.<.<.<.<.<.<.<.<.<.<.<.<.& & & & & & & & & & & & & & & & & & & & & & & & <.<.<.<.<.<.<.<.<.<.<.<.<.<.<.<.<.<.",
"<.<.<.<.<.<.<.<.<.<.<.<.<.<.<.<.<.<.& & & & & & & & & & & & & & & & & & & & & & & ; <.<.<.<.<.<.<.<.<.<.<.<.<.<.<.<.<.<.",
"<.<.<.<.<.<.<.<.<.<.<.<.<.<.<.<.<.<.& & & & & & & & & & & & & & & & & & & & & & & & <.<.<.<.<.<.<.<.<.<.<.<.<.<.<.<.<.<.",
"<.<.<.<.<.<.<.<.<.<.<.<.<.<.<.<.<.<.= & & & & & & & & & & & & & & & & & & & & & & & <.<.<.<.<.<.<.<.<.<.<.<.<.<.<.<.<.<.",
"<.<.<.<.<.<.<.<.<.<.<.<.<.<.<.<.<.<.= & & & & & & & & & & & & & & & & & & & & & & % <.<.<.<.<.<.<.<.<.<.<.<.<.<.<.<.<.<.",
"<.<.<.<.<.<.<.<.<.<.<.<.<.<.<.<.<.<.& & & & & & & & & & & & & & & & & & & & & & & % <.<.<.<.<.<.<.<.<.<.<.<.<.<.<.<.<.<.",
"<.<.<.<.<.<.<.<.<.<.<.<.<.<.<.<.<.<.& & & & & & & & & & & & & & & & & & & & & & & % <.<.<.<.<.<.<.<.<.<.<.<.<.<.<.<.<.<.",
"<.<.<.<.<.<.<.<.<.<.<.<.<.<.<.<.<.<.& & & % & & & & & & & & & & & & & & & & & & & & <.<.<.<.<.<.<.<.<.<.<.<.<.<.<.<.<.<.",
"<.<.<.<.<.<.<.<.<.<.<.<.<.<.<.<.<.<.& & & & & & & & & & % & & & & & & & & & % = & & <.<.<.<.<.<.<.<.<.<.<.<.<.<.<.<.<.<.",
"<.<.<.<.<.<.<.<.<.<.<.<.<.<.<.<.<.<.& & & . + & & & & & . O O . % & & & % +   & & & <.<.<.<.<.<.<.<.<.<.<.<.<.<.<.<.<.<.",
"<.<.<.<.<.<.<.<.<.<.<.<.<.<.<.<.<.<.& & % <.<.- & & & % <.<.<.<.% & & & * <.<.% & % <.<.<.<.<.<.<.<.<.<.<.<.<.<.<.<.<.<.",
"<.<.<.<.<.<.<.<.<.<.<.<.<.<.<.<.<.<.& & % <.<.* % & & & <.<.<.<.& & & & * <.<.% & % <.<.<.<.<.<.<.<.<.<.<.<.<.<.<.<.<.<.",
"<.<.<.<.<.<.<.<.<.<.<.<.<.<.<.<.<.<.& * $ <.<.< @ & & & <.<.<.<.% & & @ < <.<.< - & <.<.<.<.<.<.<.<.<.<.<.<.<.<.<.<.<.<.",
"<.<.<.<.<.<.<.<.<.<.<.<.<.<.<.<.<.<.% < <.<.<.<.<.% & % <.<.<.<.& & % <.<.<.<.<.< % <.<.<.<.<.<.<.<.<.<.<.<.<.<.<.<.<.<.",
"<.<.<.<.<.<.<.<.<.<.<.<.<.<.<.<.<.<.% $ <.<.<.<.<.% & & <.<.<.<.% & % <.<.<.<.<.1 % <.<.<.<.<.<.<.<.<.<.<.<.<.<.<.<.<.<.",
"<.<.<.<.<.<.<.<.<.<.<.<.<.<.<.<.<.<.* 1 <.<.<.<.<.% & * <.<.<.<.% & ; <.<.<.<.<.$ * <.<.<.<.<.<.<.<.<.<.<.<.<.<.<.<.<.<.",
"<.<.<.<.<.<.<.<.<.<.<.<.<.<.<.<.<.<.<.<.<.<.<.<.<.<.3 <.<.<.<.<.<.. + <.<.<.<.<.<.+ <.<.<.<.<.<.<.<.<.<.<.<.<.<.<.<.<.<.",
"<.<.<.<.<.<.<.<.<.<.<.<.<.<.<.<.<.<.<.<.<.<.<.<.<.<.<.<.<.<.<.<.<.<.<.<.<.<.<.<.<.<.<.<.<.<.<.<.<.<.<.<.<.<.<.<.<.<.<.<.",
"<.<.<.<.<.<.<.<.<.<.<.<.<.<.<.<.<.<.<.<.<.<.<.<.<.<.<.<.<.<.<.<.<.<.<.<.<.<.<.<.<.<.<.<.<.<.<.<.<.<.<.<.<.<.<.<.<.<.<.<.",
"<.<.<.<.<.<.<.<.<.<.<.<.<.<.<.<.<.<.<.<.<.<.<.<.<.<.<.<.<.<.<.<.<.<.<.<.<.<.<.<.<.<.<.<.<.<.<.<.<.<.<.<.<.<.<.<.<.<.<.<.",
"<.<.<.<.<.<.<.<.<.<.<.<.<.<.<.<.<.<.<.<.<.<.<.<.<.<.<.<.<.<.<.<.<.<.<.<.<.<.<.<.<.<.<.<.<.<.<.<.<.<.<.<.<.<.<.<.<.<.<.<.",
"<.<.<.<.<.<.<.<.<.<.<.<.<.<.<.<.<.<.<.<.<.<.<.<.<.<.<.<.<.<.<.<.<.<.<.<.<.<.<.<.<.<.<.<.<.<.<.<.<.<.<.<.<.<.<.<.<.<.<.<."
};
