/* XPM */
static char *result[] = {
/* columns rows colors chars-per-pixel */
"60 60 213 2 ",
"   c #0D0100",
".  c #140100",
"X  c #1C0100",
"o  c #240100",
"O  c #2B0100",
"+  c #240904",
"@  c #2D0B04",
"#  c #340101",
"$  c #3B0101",
"%  c #350A03",
"&  c #3B0B04",
"*  c #3D0E08",
"=  c #2B1108",
"-  c #2B1109",
";  c #3D1106",
":  c #34130A",
">  c #3D130B",
",  c #3E1A0D",
"<  c #3E1510",
"1  c #3D1A10",
"2  c #410101",
"3  c #4C0302",
"4  c #420F06",
"5  c #410F08",
"6  c #550302",
"7  c #5B0402",
"8  c #550B02",
"9  c #5A0D02",
"0  c #431106",
"q  c #4B1204",
"w  c #42140A",
"e  c #421A0E",
"r  c #4C1E0E",
"t  c #571705",
"y  c #521E0E",
"u  c #5C1B0B",
"i  c #421A10",
"p  c #4C1E11",
"a  c #511D10",
"s  c #640302",
"d  c #6B0301",
"f  c #6E0D01",
"g  c #730401",
"h  c #7B0301",
"j  c #720A02",
"k  c #7B0A01",
"l  c #661A07",
"z  c #641C0C",
"x  c #6A1A09",
"c  c #741205",
"v  c #7C1806",
"b  c #5E220D",
"n  c #5F2212",
"m  c #62220D",
"M  c #6F250E",
"N  c #71220E",
"B  c #612211",
"V  c #6E2E13",
"C  c #722D13",
"Z  c #782D13",
"A  c #6C3518",
"S  c #7E3216",
"D  c #7E311A",
"F  c #74381F",
"G  c #6C3C25",
"H  c #6C3D29",
"J  c #7C3E27",
"K  c #7B4123",
"L  c #830201",
"P  c #8C0301",
"I  c #840901",
"U  c #8B0A01",
"Y  c #930301",
"T  c #9B0601",
"R  c #960A02",
"E  c #9B0B02",
"W  c #861705",
"Q  c #8A1302",
"!  c #9E1102",
"~  c #911905",
"^  c #981B07",
"/  c #A00601",
"(  c #A10D01",
")  c #AB0F01",
"_  c #A21102",
"`  c #AC1402",
"'  c #A61B08",
"]  c #B31503",
"[  c #B91703",
"{  c #B51B03",
"}  c #B91D03",
"|  c #9D260D",
" . c #9C2B0A",
".. c #863316",
"X. c #82351B",
"o. c #863E1F",
"O. c #8A3D1E",
"+. c #93381C",
"@. c #A6280A",
"#. c #B62202",
"$. c #BB2101",
"%. c #BE2904",
"&. c #BA2C0A",
"*. c #BF300E",
"=. c #A73614",
"-. c #AF3614",
";. c #843422",
":. c #873D21",
">. c #8B3E22",
",. c #903E29",
"<. c #C11E04",
"1. c #C22603",
"2. c #C32B04",
"3. c #CA2E06",
"4. c #C42C0A",
"5. c #CB2E09",
"6. c #C63005",
"7. c #CB3205",
"8. c #CF3907",
"9. c #CD3309",
"0. c #CE390A",
"q. c #D23507",
"w. c #D2360B",
"e. c #D43D0D",
"r. c #DB3E0E",
"t. c #C73A16",
"y. c #CB3D13",
"u. c #D53D11",
"i. c #85401E",
"p. c #8B401E",
"a. c #BC461E",
"s. c #864123",
"d. c #8B4123",
"f. c #89412A",
"g. c #9A5537",
"h. c #B34921",
"j. c #AD5336",
"k. c #B05331",
"l. c #A4603B",
"z. c #AB623B",
"x. c #BA663A",
"c. c #BC643C",
"v. c #D6400E",
"b. c #DB420E",
"n. c #DD490D",
"m. c #CC4419",
"M. c #D64311",
"N. c #DC4411",
"B. c #DE4A15",
"V. c #D3441C",
"C. c #DE551B",
"Z. c #E2480F",
"A. c #E14614",
"S. c #E14A14",
"D. c #E34C1A",
"F. c #E94F1A",
"G. c #E65214",
"H. c #E4521B",
"J. c #E9521E",
"K. c #EC5A1E",
"L. c #CA4B23",
"P. c #C35528",
"I. c #CD5B2D",
"U. c #D45725",
"Y. c #D95223",
"T. c #D25C2F",
"R. c #C55C34",
"E. c #CC5D32",
"W. c #D35B34",
"Q. c #E45424",
"!. c #EE5723",
"~. c #E55A24",
"^. c #EB5B23",
"/. c #E25F2A",
"(. c #EB5E2A",
"). c #F15F27",
"_. c #F25F2A",
"`. c #E95E31",
"'. c #CB602D",
"]. c #C16334",
"[. c #C4643C",
"{. c #C96639",
"}. c #CF6D3E",
"|. c #D56736",
" X c #DC6636",
".X c #DE6C36",
"XX c #DB6639",
"oX c #D56E3E",
"OX c #DC6C3B",
"+X c #D6703C",
"@X c #E76026",
"#X c #EB6125",
"$X c #E6612C",
"%X c #EB632C",
"&X c #EC6A2D",
"*X c #EC6431",
"=X c #EA6D35",
"-X c #E26D3A",
";X c #EC6D3A",
":X c #F26B35",
">X c #F1693C",
",X c #E57137",
"<X c #E97036",
"1X c #BC6441",
"2X c #C66C42",
"3X c #CA6C42",
"4X c #C36D49",
"5X c #D56E42",
"6X c #DA6D43",
"7X c #DA6B48",
"8X c #C37048",
"9X c #D57042",
"0X c #DD7142",
/* pixels */
"F p.>.>.>.d.d.d.i.p.i.i...q + A i.i.i.o.o.O.:.;.:.>.o.S q + F o.o.o.o.o.o.:.O.O.O.,...q + F :.:.K i.i.i.>.O.O.O.o.S q o ",
"}.;X;X:X;X;X;X;X,X&X<X<XY.v ; x.<X,X,X=X=X;X;X;X;X;X=XU.v > x.<X,X,X=X;X=X=X=X;X:X>XY.v w ].;X;X,X;X,X;X;X;X>X;X=XT.W & ",
"oX/.!.!.!.!.K.K.K.K.K.C.*.j 0 '.^.!.K.^.!.^.!.^.^.^.H.*.f w ].#XJ.K.K.J.^.^.K.K.K.H.6.f 0 E.(.!.^.!.^.!.!.!.!.!.B.*.k & ",
"XXH.b.N.Z.b.b.b.v.n.v.8.` d 4 I.H.M.b.b.r.M.e.b.M.r.9._ d ; x.H.b.b.r.Z.b.b.r.b.b.0.` s & I.J.r.r.r.r.r.r.b.r.r.9.` d % ",
"-XS.6.%.1.%.%.%.1.%.%.] Y d w E.D.6.%.%.%.%.1.1.%.1.[ R s > [.D.5.2.1.1.1.2.1.1.1.] Y s & I.F.3.%.1.1.1.1.1.%.1.{ Y d % ",
"m.Z.2.$.$.#.$.$.} $.$.` Y s 5 a.S.1.$.$.$.} } $.} } ` Y s & h.S.2.$.} $.<.$.} } $.` Y 7 % a.D.2.} $.$.$.$.$.$.#.` P d @ ",
"@.Z.2.$.$.} } $.$.$.} ` Y s # @.r.1.#.$.} } 1.} } $.] Y s #  .r.2.$.$.$.$.$.$.$.$.` Y s #  .M.1.$.$.$.$.$.$.$.$.` U d O ",
"R 2.%.$.$.<.1.$.$.$.$.` Y s O Q %.%.$.$.1.<.} $.} 1.` Y s O W 1.%.#.$.$.1.$.$.$.$.` Y s O Q 2.%.$.$.$.$.$.$.$.$.` Y s + ",
"I ` { { { [ [ [ [ [ ] _ Y s O h ` [ [ ] [ [ { ] [ [ ) Y d O g ] { { ] ] { } [ [ [ ) Y s O h ` [ [ { { { [ ] [ { ) Y s o ",
"h R R T T T R Y R R T R P s # g U T T T Y R R T R R Y P s # d T T T R R Y T T T T Y Y d # g R R T R R R R T R T Y P s O ",
"3 6 6 6 6 6 7 6 6 6 6 6 6 & X 2 6 6 6 6 6 6 7 6 6 6 6 6 $ X 2 7 7 6 6 6 6 6 7 7 6 6 6 2 X 3 8 6 6 6 6 6 6 6 6 6 6 7 2 X ",
"X o X X X . X X X X X X X X   . o o X X . X X X X X X X . . . X X X X . . X X o o o X .   X X X X X X X X X X X X X .   ",
"C C C V t o , C C C C V V V V V Z C C t o , V C C C C V V C V C C C t o , C C C C V V V V C V C V t o e C C C C C C V V ",
".X-XOX|.=.& K ,XXX-X-XOXOXOX.X.X-X-X|.=.& J 7X-X.X.X.XOXOX6XOXOX.X X=.& J 0XOXOXOXOX.XoXOXOXOXOX|.=.& J 0X-X-XOX-X-X.X.X",
"!.(.(.V.' $ d.:X^.).!.^.^.^.~.(.^.!.V.^ # f.;X^.^.^.!.^.^.!.(.!.^.V.' 2 s.=X^.^.@X~.^.(.@X@X#X~.M.| # f.;X(.~.~.(.^.^.^.",
"M.r.u.#.U # d.).n.b.N.N.b.b.n.N.N.b.#.P # d.(.S.b.n.b.N.M.N.b.b.r.%.U $ d.#Xn.b.b.b.M.b.N.b.b.v.$.I # s.`.B.N.b.e.M.N.M.",
"2.1.%.( P $ >.(.e.2.2.2.6.2.%.2.2.1._ L # d.%Xe.2.2.1.1.2.1.1.2.1._ L $ >.#Xe.2.%.1.%.2.2.2.2.%.( L O ,.%Xe.2.1.6.%.2.%.",
"#.{ #.R L $ X.J.8.$.$.$.#.#.#.$.$.{ E h # D Y.w.$.} $.} #.#.} %.} R L $ S H.8.#.#.$.$.#.} $.#.{ E L # D Q.8.$.$.#.$.$.$.",
"$.$.{ R L $ z y.8.$.$.$.$.$.$.$.$.} / L # z y.w.$.} $.$.$.$.$.$.} T L $ l 8.0.$.} $.$.$.} $.} } / L $ l y.9.} $.$.$.$.} ",
"$.$.#.T L $ 8 &.2.} %.$.#.$.$.$.$.} T h # 9 @.4.$.$.$.$.$.$.$.} } T L $ 7 #.1.#.$.$.$.$.} 1.} } / L # 8 #.3.1.} } $.$.} ",
"[ { { R L $ 3 _ [ { [ [ [ [ [ [ [ ] T L # 3 ! } [ } [ } } } [ } [ T P $ 3 _ { [ [ [ [ } [ [ } [ / L $ 6 ( } [ [ [ { } [ ",
"T T T P L # 2 Y R R E T E R E E R T Y h % 3 L R / T E / T / / T R P L $ 3 Y T T T T E / T E T E Y h # 3 U E E E T R E E ",
"6 7 6 6 6 X O 7 7 7 7 7 7 7 7 7 7 7 7 3 X O 6 7 7 7 7 7 7 6 6 7 6 6 6 o O 6 6 7 7 6 7 6 6 6 7 7 7 3 X # 6 7 7 7 7 7 7 6 ",
"X o o o o . . o o o o o o o X X o O O o . . + o o o o o o X o o o o o . X o O o o O o X X o o o o +   . o o o O o o o X ",
"b b m m m m m m m m b b u & + y m m B B B u B n m m B u & X p m m b b b m m m m b m u % X p n n n n m B m m m m z u & X ",
"1XoX+X9X+XoX+X+XoX+XoX}.R.N ; j.5X6X9X5X7X7X5X5X5X5X5Xk.N : z.9X5X6X5X5X6XoX6XoX5X6XR.M : l.9X5X}.oXoXoXoXoXoXoXOXR.N % ",
"6X).#X#X$X$X$X@X@X@X@X~.y.c 4 {.*X(.$X$X`.`.%X%X#X#X~.t.c > [.%X`.`.(.%X#X$X(.%X%XQ.t.c > {.&X#X$X(.%X#X%X#X(.%X!.t.c & ",
"-XG.n.b.n.M.N.N.M.n.n.8.` s 4 E.Q.N.N.N.A.N.N.N.N.B.u.` d > '.J.A.N.N.N.N.B.N.n.N.w.` s > '.H.B.M.B.Z.N.Z.N.b.A.u.` d % ",
".XG.8.2.6.2.6.6.6.6.6.#.T s 5 W.D.6.4.2.2.2.2.2.2.2.} T s > R.J.q.3.2.2.6.6.6.2.6.#.R s 4 W.H.7.2.2.6.6.2.3.3.1.[ T d % ",
"T.S.1.$.#.#.$.$.$.$.$.` Y s * L.B.4.$.$.} $.$.$.$.} ` P d * P.S.2.$.$.$.#.#.#.$.$.` P s 4 P.S.2.#.#.#.$.} $.$.} ` Y d # ",
"-.u.1.#.$.$.%.$.$.$.$.` Y d % @.v.1.$.} $.%.$.$.$.$.` Y s %  .N.2.$.$.$.$.$.#.$.{ ` Y s # @.b.2.$.$.$.$.$.$.$.$.` P d O ",
"~ 4.1.$.$.} $.} } } #.` Y d O Q 6.%.} $.$.$.$.$.$.$.] P s # Q 5.2.$.#.$.$.$.$.$.$.` Y s # Q 4.%.#.$.$.$.#.$.$.$.` P s o ",
"k ] { } #.} } } } } #.` Y s O h { { } { } } } } } } ` P s # g ] #.#.} } } } } } } ) Y s # h ] { } } } } #.{ #.#.` P s O ",
"g R E E E ! E E R R R R P s O g R E E E E E R E E E Y h 7 O d R E R R R E E E E T R P 7 O g R E E E E E R R R E R L s o ",
"6 s s 7 7 7 7 7 s 7 7 s s 5 X 6 7 7 s 7 7 s 7 7 7 7 7 7 2 X 3 s 7 s s 9 7 7 s 7 s 7 s 2 X 6 s 7 s 7 s 7 s s 9 s 7 6 & X ",
"O # # O O o O O O o o O # X   o O O o o o O O O O O O O X . o O O O O + X O O O o O O X . + O O O O o o O O O O O o X . ",
"p a a y & X - p r r p p p p p r p p r ; . - r r a p r p r r p p p p ; X = p a a r p r r p a a a b : . - p p r p p p r p ",
"3X3X3X3X+.% K 3X2X2X2X2X4X3X2X2X2X2X[.+.@ G 2X3X3X3X3X{.3X3X3X2X3X2X+.% G 8X4X2X3X3X{.3X4X3X4X5X2X>.% H 8X3X2X2X2X2X2X2X",
"%X%X*XY.' 2 d.:X$X%X*X_.`.*X(.%X*X%XC.@.4 d.;X%X%X$X%X%X%X%X(.(.(.Y.@.2 s.;X*X`.%X%X%X%X%X(._.`.Y.| $ f.;X%X%X%X%X%X*X%X",
"S.S.A.%.U $ d.%XB.B.A.A.A.N.B.B.N.M.&.U $ ,.`.D.B.N.B.A.B.B.B.B.N.&.T $ s.*XB.D.S.A.A.S.A.A.D.A.4.U # :.*XB.D.S.N.S.A.D.",
"7.7.3._ L $ O.!.u.4.3.3.3.3.6.6.5.2.` L $ ,.`.u.7.6.2.3.6.3.5.5.2._ P $ d._.r.5.3.3.3.2.6.5.3.3.] P # f.`.r.6.7.3.5.5.5.",
"<.} } T L $ ..!.w.$.$.$.$.$.$.$.%.{ T h # ;.~.0.$.$.$.$.#.{ $.} } R L $ X.!.w.} $.$.$.$.$.$.$.} / L # ;.Q.w.$.$.$.$.$.$.",
"} $.} T L # x u.w.$.$.$.$.#.$.$.$.[ T h # z m.8.#.#.#.$.$.} $.%.{ T L # l M.w.} $.$.$.$.$.$.$.} / h # x M.w.$.$.$.$.$.$.",
"} 1.} T h # 9 4.9.} { $.$.$.$.$.} } T L # 9 &.5.#.$.$.$.$.$.} %.#.E L # 8 4.5.%.$.$.%.$.$.$.$.} R h $ 8 &.5.$.$.$.$.$.#.",
"} $.} T h # 6 ` #.$.} #.} { #.} #.} T h # 3 _ %.$.#.#.} $.} } } { R L # 3 ) <.} %.} } %.} $.$.} R h $ 6 _ %.} } } #.$.} ",
"E ! E P h # 3 P E E ! E E ! ! E E R Y h # 3 U E ! ! ! E E E E ! E I h # 3 Y ( E E E E E E E E R P h # 3 P E E E E _ E ( ",
"d d d d d O $ d g j d g d d d d g d d s + $ s d d d d d g g d g d d s o $ g g d d d d d d d d d d s @ $ s d d d d d j d ",
"# # # $ # X X # $ $ $ # $ # # # # # # # . X # # $ # # $ # # $ $ $ $ # . X $ $ # $ # # # O # $ $ # # . X # # # # $ # # # ",
", e 1 i i 1 > i p i , 1 1 + . : e , w e , , e i i p 1 , + . : e i i i 1 1 i i e e i 1 + . < i w i i 1 1 , i e , i w + . ",
"j.x.x.x.c.1Xc.c.c.c.c.1Xj.z : g.x.x.c.c.c.x.c.c.c.c.c.j.m : g.x.c.1Xc.c.c.1Xc.c.c.c.j.B : g.2X1X1X1Xc.1Xc.c.c.c.R.k.m @ ",
"}.&X&X&X*X*X%X%X&X%X&X%XV.v 4 '.&X&X%X&X%X%X&X&X&X*X$Xm.v w ].&X*X&X%X&X%X&X&X%X&X$XL.c w {.>X*X*X*X;X*X*X%X%X*X*XL.W & ",
"|.K.B.N.D.B.B.S.B.B.B.e.[ d 4 T.~.B.S.D.B.D.S.S.S.S.u.{ d > ].H.S.S.S.Z.Z.S.n.S.S.e.[ d * R.Q.D.B.B.S.B.S.S.S.S.u.] g & ",
"XXF.w.9.9.9.6.7.8.6.9.%./ d > W.H.q.5.7.0.w.9.5.q.9.1.T s < R.D.q.7.q.3.7.q.3.q.q.1./ d & I.Q.0.7.7.7.6.7.7.7.7.%.( g % ",
"W.S.1.#.$.$.$.#.$.$.$.` Y s 4 P.D.2.$.%.$.$.$.} } <.` P s > P.D.3.<.} 1.$.$.$.} } ] Y s & P.D.%.#.#.#.#.$.$.#.#.` P d % ",
"-.A.2.$.$.$.#.$.} $.} ] Y s $ -.N.2.$.$.$.$.$.$.$.$.` P s % =.A.1.<.1.} } $.$.1.1.` Y s & =.N.4.#.#.$.$.$.$.$.$.` P s O ",
"^ w.1.{ $.$.$.$.1.$.<.] Y s # ^ 9.1.#.$.$.$.$.$.$.$.` P s # ~ w.1.<.<.1.$.$.} } } ` Y s # ~ w.1.$.%.$.$.} $.$.$.] P s O ",
"L } } { $.} { } $.} $.` Y s # I { #.#.{ { #.#.#.{ #.` P s # h } $.$.$.#.$.#.{ { { ` Y s O k } #.{ } } { } } } } ` Y d O ",
"h ( _ ! _ E ! _ _ _ ! R P s O g E E ! ! ! ! ! ! ! ! E L d O g ! _ E ! ( E E _ _ _ T P 7 o g ( _ _ ! ! _ _ E ( _ E P s o ",
"d h g g g h g g h g g h h 6 O s h h g h h g h h h h g g 7 O 7 h h h h g h h h h h h h 6 o s L h h h g h h h h h h h 6 X ",
"$ 2 2 $ $ $ 2 $ $ $ 2 2 2 O X # $ 2 2 $ 2 2 2 2 $ 2 2 2 O . # 2 $ 2 2 2 2 2 $ 2 2 $ 2 O . $ 2 2 2 2 $ $ 2 2 $ 2 2 2 O . "
};
