/* XPM */
static char *result[] = {
/* columns rows colors chars-per-pixel */
"60 60 109 2 ",
"   c #161C36",
".  c #181D37",
"X  c #171E3A",
"o  c #191E3A",
"O  c #17203A",
"+  c #1A213D",
"@  c #1D2543",
"#  c #1F2846",
"$  c #1F2748",
"%  c #1F2949",
"&  c #202745",
"*  c #212946",
"=  c #202748",
"-  c #242C4C",
";  c #26304E",
":  c #29324E",
">  c #252E51",
",  c #263153",
"<  c #2A3455",
"1  c #2F3A56",
"2  c #2B3659",
"3  c #2D3A5C",
"4  c #303A57",
"5  c #313C5E",
"6  c #2F3E60",
"7  c #323E61",
"8  c #35415F",
"9  c #39435E",
"0  c #354264",
"q  c #394566",
"w  c #3C4865",
"e  c #374468",
"r  c #3A4669",
"t  c #3D4A6B",
"y  c #3F4E71",
"u  c #434C67",
"i  c #414D6E",
"p  c #44516E",
"a  c #49536E",
"s  c #414F71",
"d  c #455374",
"f  c #495676",
"g  c #4C5976",
"h  c #475679",
"j  c #485779",
"k  c #475879",
"l  c #4B5B7C",
"z  c #505E7D",
"x  c #4F607F",
"c  c #53617D",
"v  c #4F5F80",
"b  c #515F81",
"n  c #4F6081",
"m  c #546383",
"M  c #596685",
"N  c #576887",
"B  c #5B6A86",
"V  c #576788",
"C  c #586788",
"Z  c #5C6B8A",
"A  c #5F718E",
"S  c #5F7190",
"D  c #606E8D",
"F  c #61718E",
"G  c #647493",
"H  c #697695",
"J  c #677896",
"K  c #6A7996",
"L  c #677A98",
"P  c #6C7D9A",
"I  c #717E9C",
"U  c #6F809D",
"Y  c #72829E",
"T  c #7485A1",
"R  c #7887A3",
"E  c #7789A4",
"W  c #7A8BA6",
"Q  c #7C8DA9",
"!  c #7F91AC",
"~  c #808FAA",
"^  c #8193AD",
"/  c #8596B1",
"(  c #8997B2",
")  c #8799B1",
"_  c #8B9BB4",
"`  c #8E9EB8",
"'  c #909EB7",
"]  c #909EBA",
"[  c #8FA0B7",
"{  c #8FA0B9",
"}  c #90A0B7",
"|  c #93A3BB",
" . c #99A7BE",
".. c #97A8BE",
"X. c #99A9BF",
"o. c #97A6C0",
"O. c #98A7C1",
"+. c #9CACC2",
"@. c #9FB0C4",
"#. c #A1AFC5",
"$. c #A0AFC8",
"%. c #A2B2C6",
"&. c #A4B4CA",
"*. c #A9B7CE",
"=. c #ABBACE",
"-. c #ADBCD1",
";. c #B0BED3",
":. c #B2C1D4",
">. c #B5C3D8",
/* pixels */
". @ 9 i i q O - l R ! ! ! W A 3 6 s z z i : 5 B } } ^ G 8 +   O 2 i i i - @ q I Q ~ ^ Q I w 3 r z z a 5 : d ^ ' _ Y i = ",
"@ 4 I ~ ! P * - r C W Q Q J y 3 f _ ;.#.W m G ' :.-._ ! F < O : m ~ ~ W 9 @ 7 l Y Q Q T z 5 t K =.=._ D M ~ =.>.+.Q Y w ",
"5 P #.;.#.W g * - r m m m d 3 3 K ^ _ ) Q N K ^ _ _ ! ^ H 2 , M ` ;.-./ M 1 @ 3 v C V v 7 2 b ~ _ _ ^ G C ~ _ _ ^ ^ R r ",
"r W |  .} W b 4 @ - 0 0 0 < @ 8 Y ^ ^ W A p l G A A F m i 2 2 K ` o.| / F w $ @ 6 7 7 6 & , M ^ ^ ~ K l d Z D D G Z j 6 ",
"0 H W ^ ^ E b 7 < 4 f h f u 5 : m K P G s 3 0 t t y t 0 , - 2 M E Q ~ Q Z t < < i d d a u - u G P P l 7 1 r y t y r < > ",
"5 l P E E T v 0 t F ) _ _ ) K : - r l z r 0 0 w e 3 2 < = o , s S E E E Z u 5 b ~ ( ( ( ~ 7 - 3 d b s 7 e e q 7 1 < > . ",
"6 h v n v v k 7 c _ :.:.:.+.! P : - l W W W W W Y l 0 % X X , d v v v v l t r Q *.;.;.*.^ W u & r I W W E W E Z t ; o . ",
"2 7 h k k h e 3 m } :.| ` ) ! E 0 g Y ) &.*.=.=.%.E z 7 $ . , 3 r v l v r 3 w ~ ;.#.] ' ^ ^ g q L ^ $.=.-.=.=.) Z t , . ",
"= < 7 t r q - > t D ~ ~ ! ^ ! E t Z { +.+.+.+.@. .^ B t - . @ ; 7 r r t , - 5 m Y ^ ! ! ^ ^ l d / +.+.+.+.+.+._ L d < + ",
"$ , > > - - @ > < 3 d K U Y Y P 0 m _ @.^ Q ! Q Q Y m r - @ + - < - - - @ % 2 2 i Z Y Y Y Y j u R $.` ~ ! Q ! E S d 2 @ ",
"7 5 & . . + 4 0 7 5 0 l c x k h 1 t S Q Q E W W Y x k e 2 7 7 7 ; . . O , 5 0 8 8 d c m l l 0 8 m E W W W E Q Z f y 3 6 ",
"Y I 7 @ + 5 K Y Y Y Y E W M 3 3 @ 0 l m m m m b c l 0 2 t Y T T l % X ; m Y Y Y Y T E J 0 3 * : l b m m m m m l y 3 6 S ",
"#.~ x 3 0 G Q X.*.&.&.%.} Y c 2 o , t l l l l l h e 1 7 Z &.&.` S e < m Y } *.&.*.&. .Q F 0 @ & e h l l l l l t 6 2 d ] ",
"#.^ V r d / | %.%.%.%.%.X.[ I q @ @ 1 t t t r y r 2 - 0 K #.#._ H d 0 U } +.%.%.%.%.+...~ f - O > r t t t t r 5 > < m } ",
"~ Q C 0 i W &._ ^ ^ Q ^ @.@.Q k @   - r q q w w e 2 @ 4 Z Q ~ ^ L y 0 J +.+.! ! ! ! } &._ B <   @ 7 r q w r r 5 = = l T ",
"Q W C e 0 m Q ^ ^ ! ^ ! ^ X.+.l & - l W Q Q W W P 7 + 5 Z Q Q Q G d 3 l U ^ ! ! ! ! ^ ` *.G < @ 7 T ~ ~ W Q W d = - l T ",
"V V n e 0 n W ! ! ! ! ! ! ) ! l 2 z Y ( =.:.=.@.W L 0 w v N N N m d 3 d P ! ! ! ! ! ! ^ _ C 0 w P Q +.-.-.&.^ T l 4 j N ",
"l l t , 1 m W ! ! ! ^ ! ! ! U l 5 D ' #.X.X.X.@.X.! s 3 t l l l d 8 - d P ! ! ! ! ! ! ! Q V e d ) +.+.+.+.+.+.` C 2 r h ",
"y y 1 + - x U Q ! ! ! ! ! ! Y l 5 m ) #.^ ! ! [ @.Y t ; 2 y t s 8 # O p G E ! ! ! ! ! ! Q V e r T @._ ! Q / @./ z , > r ",
"< , O . ; d l P ! ! ! ! ! ! T l 7 i F E E E E Q Y x 5 # @ < 2 2 &   + i l Z Q ! ! ! ! ! ! C e 0 m T W W W E W Z r , X > ",
", + O # 2 3 f l L ! ! ! ! ! T l 5 t v n m n n n b l 7 & + 2 2 @ O + 1 4 d l C Q ! ! ! ! Q V e 6 l m n m N m b v t > . < ",
"A B c F z 2 0 d m H ! ! ! U N l 7 3 y k l l l l k j 7 > 7 F F D c D D 5 3 y n S W / ! Q A n e 3 0 j k l k k k v t < , m ",
"+.X.@.X.^ g 3 e d m L L J Z h t > - 3 r r r r r t t 4 t H X.X.X.X.#.| M 0 3 t l S P L H l t 1 - 3 r r r r t r i 7 7 b ` ",
"-.=.=.:.#.^ s 3 0 j k k l h t , @ 2 t r t r t 0 < > , M ] =.=.-.=.=.*.{ N 7 3 d k k k k d 2 $ - t r t r u r 2 , , r ~ &.",
"^ / ^ ^ } *.^ d 3 0 h k k t ; + 2 D ^ ! Q Q Q F 2 @ > m Q ^ ^ ^ / / ) *.` Z 3 3 s f l d 3 @ - f Q ! ! W W Y r @ $ t E / ",
"! ^ ! ! ^ } &.^ k < 3 3 7 3 < 2 F ..-.=.=._ ! W G 2 < t G ! ! ! ! ! Q _ &.| D 3 3 5 5 3 < , g ^ =.-.-...! ! U t > 7 C R ",
"^ ! ! ! ^ ^ ..Y c 0 @ + @ @ * 5 _ +. . ...^ ! ^ T 5 < r m G ! ! ^ ! ^ ^ ] ^ C t - @ & & & > K %... .+._ ! ! ^ d < 7 l Z ",
"U P U U U U P m d t 9 9 9 < @ 5 ~ ) ! ! ! ! ^ W G 5 - 5 d v L U P P P P I S k s u 5 5 5 & > F ' ! ! ! ! ! ! Y i > < s k ",
"h h h h d k h h t g ^ / ^ Z 6 3 i G W E R E E G d 2 @ = 6 d h h f j h h f j s t Y ( ( I r 2 w M E E W W W Y l 0 = & , i ",
"2 3 3 3 1 3 2 3 x / :.:.} Q G 3 3 d n x m l n h 3 2 2 * @ 2 3 3 2 3 6 2 3 2 t T &.;.+.~ T r 2 0 b v b b x l 0 3 2 - + < ",
"@ @ > < , , @ - m / } } ^ ^ P 3 2 1 6 6 7 ; < d G K K s @ + @ o - 2 < < $ = r Q { } _ ^ Q t , 2 7 7 7 < - w Z G K N > @ ",
"  @ s b m f + - h P ! ^ ^ E V 3 0 M P H c 5 i P +.+._ K i @   @ 7 b b z : @ 0 G Q ! ! Q H w 5 l H K B t q M } @.| R l < ",
"& u Q ] ` Y < - 5 z Y T T C r 3 b ` -.&./ m K ] -.=._ ^ K < @ 5 G ] ` ^ a = 2 p J T T L h 1 s T =.=.` G C ^ &.-...! W t ",
"7 R *.;.$.W z - * 5 f l l t , 6 P ~ ^ ~ E m G Q Q W Q W D 2 < S o.;.-.( Z 5 + 1 d l k d 2 2 m ^ ^ ^ Q F M Q Q Q W Q Y e ",
"r E ( _ / E b 7 * # 3 5 5 : @ 3 I / ^ E m e s V m N N d 7 2 2 G / _ _ ! Z t - + 2 7 5 1 + > C / ^ Q F s w m N m N l e 2 ",
"7 Z W Q ^ E b 7 1 i Z Z Z B a * i M F m e 2 6 7 7 0 0 3 > & < v U ! ! ! D t 3 0 c Z Z M z : 5 z F Z t 3 2 0 0 0 0 7 < * ",
"7 l S L L L v 7 d I | .. ._ Y w ; 5 l Z l f j j h q 3 - @ O , s C P P P V r 0 D ` ....| ^ g 1 : s C z h k f h t 3 , = . ",
"7 s v h j v d 7 c } >.;.;.+.^ Y : , c ^ ) _ _ _ ~ C e - O . < t k l k k h t w Q -.:.:.&.^ ^ a & s W ) _ _ _ ) H d 2 o   ",
", 7 s v j d 7 , v _ =.` ^ ^ ^ E w M Q _ -.:.;.:.*.Q N e = . < 2 r l h l 0 2 e E *. .^ ) ! ! g i W ^ %.:.;.;.;.' G s , @ ",
"$ , 7 7 7 7 + > 5 k K Q ^ ^ ^ W w Z } &.{ ` ` ` ` ! C w - X + > 6 7 6 7 - % 3 d D T ! ! ! ^ c p ^ %...` ` ` ` / L s < o ",
"= < = @ @ @ @ , 2 1 r A G G G A 0 z W  .^ ~ ! ! Q J n t , = = > - # # @ # > , < 0 z G G J G d t P ..) Q ! ! ! P Z d < = ",
"s i - . . = u i i t d m N x y t < r B Y P T U T P l d 0 3 i i s 1 o   + 5 t p y i l Z m d y 3 1 z L Y T U T I m h r 3 u ",
"/ E s = @ w T ^ / ^ ^ ^ ! Z 0 < + 0 l l v v v v k h 7 2 h ~ ^ ^ C , + 4 F ^ ! ^ ^ ^ ^ Y e 3 % - f l l l k v v l r 2 7 Y ",
"&.^ m 7 u T ^ %.:.-.:.:.{ E G 2 o - r l k k k k h 7 2 0 G -.;.` G t 1 K W | :.:.;.:.%.Q U t @ @ 7 j l l v k l e 3 3 z X.",
"] ~ C e d ^ @.O.| { | | @...U t + O : 0 0 0 0 0 7 2 $ 7 F } | ( K h 7 T O.@.| { | } +.@.! z : . * 5 0 7 7 7 0 2 - - z ^ ",
"^ Q V r t Y +.) ! ! ! ! ..@./ l & . 4 l l g l l d 2 o 1 C Q ^ ^ K s 7 D [ | ! ! ! Q ` +.| D 1   * d l l l l l 8 $ = l E ",
"E T V e 7 n W ! ! ! ! ! ! ....l = 2 M ^ _ _ _ / R t = 5 C E E E G s 3 d U ! ! ! ! ! ! ) &.G 1 = a E ( _ ` _ ^ c , - l P ",
"v l l q 0 n W ! ! ! ! ! ! ^ R l 5 M Q _ =.-.:.@.^ R t r k v v m v s 3 h U ^ ! ! ! ! ! ^ ! V w i W ^ %.:.-.=.( ~ m 5 j z ",
"l j r - : m W Q ! ! ! ! / ! T k 7 S o.&.` ` _ ..&.^ t 3 e l k k t 2 & p P ^ ! ! ! ! ! / Q V 0 d ^ *.o._ ` ` &.` M 2 7 f ",
"r q - . ; z G W ! ! ! ! ! ! T k 7 k E ..^ ~ ! ( { G t % - w r r < @ O d C Y ^ ! ! ! ! ! Q Z e r P | _ ! ! / | E d , = 7 ",
"> - . . , y j G E ! ! ! ! ! T v 7 t C P P P I I P l 7 @ @ < < > +   & r d B Y ! ! ! ! ! ! V e 0 v K I I U U P V t , . > ",
"7 - & < 7 3 d l S Q ! ! ! Q U k 6 q l l v v l v k l 7 = @ 7 7 , = - 5 2 t k m R Q ! ! Q W V e 7 h l l l l l l l t , + 3 ",
"Y Y Y Y Z 3 3 s l A Q ! ! P l j 3 2 r l k v l k k l 7 , i Y W Y Y Y U 0 1 r l m E Q ! E m l w 2 3 j l l l l l l r < 3 H ",
"=.*.=.*.' Z 6 6 t m Z Z Z m h 0 $ - 3 7 6 7 6 6 0 0 2 f E *.=.=.=.&.%.U t 3 r l Z Z Z Z l r ; # 2 5 8 0 0 0 0 0 6 e K O.",
"%.%.+.%.+.] m 7 6 y l k l d 0 $ $ w z l b l v d , = , M ` +.@.X.%.@.@.+.L t 3 r j k k l t , @ < z l l z z l 3 = - r ~ +.",
"! ! ! ^ ' &.` z 3 6 d d d e , @ 0 P ` ` ` / ! L q @ - z R ^ ! ^ ^ ~ ! &.X.L e 3 y d d t 2 @ < M _ ' [ ^ ^ E d ; $ r T Q ",
"! ! ! ^ ^ _ *.( b < < 2 2 2 , 1 I #.>.;.;._ ! ! P 6 < r Z W ! ! ! ! ! ^ @.+.G 6 2 2 2 2 , 2 m ] :.:.:...! ! W p , 7 m Y ",
"! ! ! ! ! ! ) G l q + o O O @ 5 | X._ _ _ ^ ! ! T 7 2 r x C W ! ! ! ! ^ _ Y m p # O O . + - I &._ ) ) / ! ! ! d 2 5 l m ",
"A F F A G A F z i t z c c w - 3 H ~ ~ ^ ! ! ^ T C 5 = 2 i l Z S A A A F A M d r g c c g - 2 c W ! ! ! ! ! ! G w - - 0 h ",
"s s s d s s s d i m ' | ) G r 1 t D T Y Y Y T D t 2 = @ 2 s d s t p y p p d p d ~ } ` R d 1 q z Y Y Y Y U P k 8 - + , w "
};
